<?xml version="1.0" encoding="UTF-8" standalone="no"?>
<svg
   xmlns:dc="http://purl.org/dc/elements/1.1/"
   xmlns:cc="http://creativecommons.org/ns#"
   xmlns:rdf="http://www.w3.org/1999/02/22-rdf-syntax-ns#"
   xmlns:svg="http://www.w3.org/2000/svg"
   xmlns="http://www.w3.org/2000/svg"
   xmlns:sodipodi="http://sodipodi.sourceforge.net/DTD/sodipodi-0.dtd"
   xmlns:inkscape="http://www.inkscape.org/namespaces/inkscape"
   width="24"
   height="24"
   viewBox="0 0 24 24"
   version="1.1"
   id="svg12"
   sodipodi:docname="ic-transaction-mint-inactive.svg">
  <metadata
     id="metadata16">
    <rdf:RDF>
      <cc:Work
         rdf:about="">
        <dc:format>image/svg+xml</dc:format>
        <dc:type
           rdf:resource="http://purl.org/dc/dcmitype/StillImage" />
      </cc:Work>
    </rdf:RDF>
  </metadata>
  <sodipodi:namedview
     pagecolor="#ffffff"
     bordercolor="#666666"
     borderopacity="1"
     objecttolerance="10"
     gridtolerance="10"
     guidetolerance="10"
     inkscape:pageopacity="0"
     inkscape:pageshadow="2"
     inkscape:window-width="640"
     inkscape:window-height="480"
     id="namedview14"
     inkscape:document-rotation="0" />
  <defs
     id="defs4">
    <style
       type="text/css"
       id="style2">
            .cls-1{opacity:.7}.cls-2{fill:#B6B6B6}.cls-3{fill:none}
        </style>
  </defs>
  <g
     id="ic_mint"
     class="cls-1">
    <g
       id="Group_9004"
       data-name="Group 9004">
      <path
         id="Path_18964"
         d="M6 5h12v2.586l-.793-.793-1.414 1.414L19 11.414l3.207-3.207-1.414-1.414-.793.793V3H4v7h2z"
         class="cls-2"
         data-name="Path 18964" />
      <path
         id="Path_18965"
         d="M12 8a4 4 0 1 0 4 4 4 4 0 0 0-4-4zm0 6a2 2 0 1 1 2-2 2 2 0 0 1-2 2z"
         class="cls-2"
         data-name="Path 18965" />
      <path
         id="Path_18966"
         d="M18 19H6v-2.586l.793.793 1.414-1.414L5 12.586l-3.207 3.207 1.414 1.414.793-.793V21h16v-7h-2z"
         class="cls-2"
         data-name="Path 18966" />
    </g>
    <path
       id="Rectangle_4647"
       d="M0 0h24v24H0z"
       class="cls-3"
       data-name="Rectangle 4647" />
  </g>
</svg>
