<?xml version="1.0" encoding="UTF-8" standalone="no"?>
<svg
   xmlns:dc="http://purl.org/dc/elements/1.1/"
   xmlns:cc="http://creativecommons.org/ns#"
   xmlns:rdf="http://www.w3.org/1999/02/22-rdf-syntax-ns#"
   xmlns:svg="http://www.w3.org/2000/svg"
   xmlns="http://www.w3.org/2000/svg"
   xmlns:sodipodi="http://sodipodi.sourceforge.net/DTD/sodipodi-0.dtd"
   xmlns:inkscape="http://www.inkscape.org/namespaces/inkscape"
   xml:space="preserve"
   width="24px"
   height="24px"
   version="1.0"
   style="shape-rendering:geometricPrecision; text-rendering:geometricPrecision; image-rendering:optimizeQuality; fill-rule:evenodd; clip-rule:evenodd"
   viewBox="0 0 3.16 3.16"
   id="svg12"
   sodipodi:docname="ic-check-staking.svg"><metadata
   id="metadata16"><rdf:RDF><cc:Work
       rdf:about=""><dc:format>image/svg+xml</dc:format><dc:type
         rdf:resource="http://purl.org/dc/dcmitype/StillImage" /></cc:Work></rdf:RDF></metadata><sodipodi:namedview
   pagecolor="#ffffff"
   bordercolor="#666666"
   borderopacity="1"
   objecttolerance="10"
   gridtolerance="10"
   guidetolerance="10"
   inkscape:pageopacity="0"
   inkscape:pageshadow="2"
   inkscape:window-width="640"
   inkscape:window-height="480"
   id="namedview14"
   inkscape:document-rotation="0" />
 <defs
   id="defs4">
  <style
   type="text/css"
   id="style2">
   <![CDATA[
    .fil1 {fill:none}
    .fil0 {fill:#F05A40;fill-rule:nonzero}
   ]]>
  </style>
 </defs>
 <g
   id="Слой_x0020_1">
  <metadata
   id="CorelCorpID_0Corel-Layer" />
  <path
   class="fil0"
   d="M2.55 0.59c0,0.17 -0.01,0.37 -0.03,0.56l0.02 -0.01c0.13,-0.1 0.28,-0.21 0.28,-0.35 0,-0.06 -0.02,-0.11 -0.06,-0.14 -0.04,-0.03 -0.11,-0.05 -0.21,-0.06zm-1.69 1.93l0.33 0c0.03,-0.05 0.05,-0.09 0.06,-0.14 0.02,-0.06 0.03,-0.12 0.04,-0.18 -0.22,-0.1 -0.37,-0.26 -0.47,-0.46 -0.05,0.02 -0.1,0.04 -0.17,0.04 -0.07,0 -0.12,-0.05 -0.12,-0.12 0,-0.06 0.05,-0.11 0.12,-0.11 0.02,0 0.03,-0.01 0.04,-0.01 0,0 0,0 0,-0.01 0,0 0,-0.01 0,-0.01 0,0 0.01,0 0.01,0l0 0c-0.04,-0.07 -0.13,-0.13 -0.21,-0.19 -0.19,-0.14 -0.38,-0.28 -0.38,-0.54 0,-0.14 0.04,-0.25 0.16,-0.33 0.08,-0.06 0.19,-0.1 0.34,-0.11l0 -0.2c0,-0.07 0.05,-0.12 0.11,-0.12l1.72 0c0.06,0 0.12,0.05 0.12,0.12l0 0.2c0.15,0.01 0.26,0.05 0.34,0.11 0.11,0.08 0.15,0.19 0.15,0.33 0,0.26 -0.19,0.4 -0.38,0.54 -0.08,0.06 -0.16,0.12 -0.21,0.19l0 0c0.01,0 0.01,0 0.01,0 0,0 0,0.01 0,0.01 0,0.01 0,0.01 0,0.01 0.01,0 0.02,0.01 0.05,0.01 0.06,0 0.11,0.05 0.11,0.11 0,0.07 -0.05,0.12 -0.11,0.12 -0.06,0 -0.11,-0.01 -0.15,-0.03 -0.1,0.22 -0.26,0.39 -0.5,0.46 0.01,0.05 0.01,0.09 0.03,0.14 0.01,0.05 0.04,0.11 0.07,0.17l0.33 0c0.07,0 0.12,0.05 0.12,0.11l0 0.38c0,0.07 -0.05,0.12 -0.12,0.12l-1.44 0c-0.06,0 -0.12,-0.05 -0.12,-0.12l0 -0.38c0,-0.06 0.06,-0.11 0.12,-0.11zm1.32 0.23l-0.93 0 -0.27 0 0 0.14 1.2 0 0 -0.14zm-1.57 -2.16c-0.1,0.01 -0.17,0.03 -0.21,0.06 -0.04,0.03 -0.06,0.08 -0.06,0.14 0,0.14 0.15,0.25 0.29,0.35l0.02 0.02c-0.03,-0.2 -0.04,-0.39 -0.04,-0.57zm0.09 0.93c0,0 0,0 0,0l0 0 0 0zm1.76 0c0,0 0,0 0,0l0 0 0 0zm-1.62 -1.16l0 0.1 0 0.01 0 0c0,0.27 0.01,0.59 0.08,0.88 0.08,0.3 0.23,0.56 0.52,0.66 0.05,0.01 0.09,0.06 0.09,0.11 0,0.1 -0.02,0.22 -0.05,0.33 -0.01,0.02 -0.02,0.04 -0.03,0.07l0.26 0c-0.02,-0.04 -0.03,-0.08 -0.04,-0.11 -0.03,-0.1 -0.03,-0.2 -0.03,-0.29l0 0c0,-0.06 0.04,-0.11 0.1,-0.11 0.58,-0.09 0.58,-1.1 0.58,-1.65l0 -0.09 -1.48 0 0 0.09z"
   id="path7" />
  <rect
   class="fil1"
   width="3.16"
   height="3.16"
   id="rect9" />
 </g>
</svg>
