<?xml version="1.0" encoding="UTF-8" standalone="no"?>
<svg
   xmlns:dc="http://purl.org/dc/elements/1.1/"
   xmlns:cc="http://creativecommons.org/ns#"
   xmlns:rdf="http://www.w3.org/1999/02/22-rdf-syntax-ns#"
   xmlns:svg="http://www.w3.org/2000/svg"
   xmlns="http://www.w3.org/2000/svg"
   xmlns:sodipodi="http://sodipodi.sourceforge.net/DTD/sodipodi-0.dtd"
   xmlns:inkscape="http://www.inkscape.org/namespaces/inkscape"
   width="18px"
   height="17px"
   viewBox="0 0 18 17"
   version="1.1"
   id="svg11"
   sodipodi:docname="ic-close-white.svg">
  <metadata
     id="metadata17">
    <rdf:RDF>
      <cc:Work
         rdf:about="">
        <dc:format>image/svg+xml</dc:format>
        <dc:type
           rdf:resource="http://purl.org/dc/dcmitype/StillImage" />
      </cc:Work>
    </rdf:RDF>
  </metadata>
  <defs
     id="defs15" />
  <sodipodi:namedview
     pagecolor="#ffffff"
     bordercolor="#666666"
     borderopacity="1"
     objecttolerance="10"
     gridtolerance="10"
     guidetolerance="10"
     inkscape:pageopacity="0"
     inkscape:pageshadow="2"
     inkscape:window-width="640"
     inkscape:window-height="480"
     id="namedview13"
     inkscape:document-rotation="0" />
  <!-- Generator: Sketch 52.6 (67491) - http://www.bohemiancoding.com/sketch -->
  <title
     id="title2">ic-close-white</title>
  <desc
     id="desc4">Created with Sketch.</desc>
  <g
     id="Page-1"
     stroke="none"
     stroke-width="1"
     fill="none"
     fill-rule="evenodd">
    <g
       id="ic-close-white"
       transform="translate(-1.000000, -2.000000)">
      <g
         id="ic_close">
        <polygon
           id="Rectangle_3745"
           points="0 0 20 0 20 20 0 20" />
        <path
           d="M17.8,16.8 L11.1,10 L17.8,3.2 L18.3,2.7 L17.8,2.2 C17.4946361,1.90014879 17.0053639,1.90014879 16.7,2.2 L10,8.9 L3.3,2.2 C2.99463611,1.90014879 2.50536389,1.90014879 2.2,2.2 L1.7,2.7 L2.2,3.2 L8.9,10 L2.2,16.8 C1.90014879,17.1053639 1.90014879,17.5946361 2.2,17.9 L2.7,18.4 L3.2,17.9 L9.9,11.1 L16.6,17.9 L17.1,18.4 L17.6,17.9 C18.1,17.5 18.1,17 17.8,16.8 Z"
           id="Path_18563"
           fill="#FFFFFF"
           opacity="0.695521763" />
      </g>
    </g>
  </g>
</svg>
