<?xml version="1.0" encoding="UTF-8" standalone="no"?>
<svg
   xmlns:dc="http://purl.org/dc/elements/1.1/"
   xmlns:cc="http://creativecommons.org/ns#"
   xmlns:rdf="http://www.w3.org/1999/02/22-rdf-syntax-ns#"
   xmlns:svg="http://www.w3.org/2000/svg"
   xmlns="http://www.w3.org/2000/svg"
   xmlns:sodipodi="http://sodipodi.sourceforge.net/DTD/sodipodi-0.dtd"
   xmlns:inkscape="http://www.inkscape.org/namespaces/inkscape"
   xml:space="preserve"
   width="24px"
   height="24px"
   version="1.0"
   style="shape-rendering:geometricPrecision; text-rendering:geometricPrecision; image-rendering:optimizeQuality; fill-rule:evenodd; clip-rule:evenodd"
   viewBox="0 0 50.24 50.2"
   id="svg24"
   sodipodi:docname="ic-check-tor.svg"><metadata
   id="metadata28"><rdf:RDF><cc:Work
       rdf:about=""><dc:format>image/svg+xml</dc:format><dc:type
         rdf:resource="http://purl.org/dc/dcmitype/StillImage" /></cc:Work></rdf:RDF></metadata><sodipodi:namedview
   pagecolor="#ffffff"
   bordercolor="#666666"
   borderopacity="1"
   objecttolerance="10"
   gridtolerance="10"
   guidetolerance="10"
   inkscape:pageopacity="0"
   inkscape:pageshadow="2"
   inkscape:window-width="640"
   inkscape:window-height="480"
   id="namedview26"
   inkscape:document-rotation="0" />
 <defs
   id="defs4">
  <style
   type="text/css"
   id="style2">
   <![CDATA[
    .fil0 {fill:#F05A40;fill-rule:nonzero}
   ]]>
  </style>
 </defs>
 <g
   id="Слой_x0020_1">
  <metadata
   id="CorelCorpID_0Corel-Layer" />
  <g
   id="g9">
   <path
   class="fil0"
   d="M50.24 25.1l-3.87 0 0 0 -0.03 -1.1 -0.08 -1.08 -0.14 -1.06 -0.19 -1.05 -0.23 -1.03 -0.29 -1.01 -0.33 -0.99 -0.39 -0.96 -0.42 -0.94 -0.47 -0.92 -0.51 -0.89 -0.56 -0.86 -0.59 -0.84 -0.63 -0.8 -0.67 -0.77 -0.7 -0.74 -0.74 -0.71 -0.77 -0.66 -0.81 -0.64 -0.83 -0.59 -0.86 -0.55 -0.89 -0.51 -0.92 -0.47 -0.94 -0.43 -0.96 -0.38 -0.99 -0.33 -1 -0.29 -1.03 -0.23 -1.04 -0.19 -1.07 -0.13 -1.08 -0.09 -1.09 -0.02 0 -3.84 1.29 0.03 1.28 0.1 1.26 0.16 1.23 0.22 1.22 0.28 1.19 0.34 1.17 0.4 1.15 0.45 1.11 0.5 1.08 0.55 1.05 0.61 1.02 0.65 0.99 0.7 0.95 0.75 0.91 0.79 0.87 0.83 0.83 0.87 0.79 0.91 0.74 0.95 0.7 0.98 0.66 1.02 0.6 1.05 0.56 1.08 0.5 1.12 0.45 1.14 0.39 1.16 0.34 1.19 0.28 1.22 0.22 1.23 0.16 1.26 0.1 1.27 0.03 1.29 0 0zm-25.12 25.1l0 -3.83 0 0 1.09 -0.03 1.08 -0.08 1.07 -0.14 1.04 -0.19 1.03 -0.23 1 -0.29 0.99 -0.33 0.96 -0.38 0.94 -0.43 0.92 -0.47 0.89 -0.51 0.86 -0.55 0.83 -0.59 0.81 -0.63 0.77 -0.67 0.74 -0.71 0.7 -0.73 0.67 -0.78 0.63 -0.8 0.59 -0.83 0.56 -0.87 0.51 -0.89 0.47 -0.91 0.42 -0.95 0.39 -0.96 0.33 -0.99 0.29 -1.01 0.23 -1.03 0.19 -1.04 0.14 -1.07 0.08 -1.08 0.03 -1.1 3.87 0 -0.03 1.29 -0.1 1.27 -0.16 1.26 -0.22 1.23 -0.28 1.22 -0.34 1.19 -0.39 1.17 -0.45 1.14 -0.5 1.11 -0.56 1.08 -0.6 1.05 -0.66 1.02 -0.7 0.98 -0.74 0.95 -0.79 0.91 -0.83 0.87 -0.87 0.83 -0.91 0.79 -0.95 0.75 -0.99 0.7 -1.02 0.65 -1.05 0.61 -1.08 0.55 -1.11 0.51 -1.15 0.45 -1.17 0.39 -1.19 0.34 -1.22 0.28 -1.23 0.22 -1.26 0.16 -1.28 0.1 -1.29 0.03 0 0zm-25.12 -25.1l3.87 0 0 0 0.03 1.1 0.08 1.08 0.14 1.07 0.19 1.04 0.23 1.03 0.29 1.01 0.34 0.99 0.38 0.96 0.42 0.95 0.47 0.91 0.51 0.89 0.56 0.87 0.59 0.83 0.63 0.8 0.67 0.78 0.7 0.73 0.74 0.71 0.77 0.67 0.81 0.63 0.83 0.59 0.86 0.55 0.89 0.51 0.92 0.47 0.94 0.43 0.96 0.38 0.99 0.33 1 0.29 1.03 0.23 1.05 0.19 1.06 0.14 1.08 0.08 1.09 0.03 0 3.83 -1.29 -0.03 -1.28 -0.1 -1.26 -0.16 -1.23 -0.22 -1.22 -0.28 -1.19 -0.34 -1.17 -0.39 -1.14 -0.45 -1.12 -0.51 -1.08 -0.55 -1.05 -0.61 -1.02 -0.65 -0.99 -0.7 -0.95 -0.75 -0.91 -0.79 -0.87 -0.83 -0.83 -0.87 -0.79 -0.91 -0.74 -0.95 -0.7 -0.98 -0.66 -1.02 -0.6 -1.05 -0.56 -1.08 -0.5 -1.11 -0.45 -1.14 -0.39 -1.17 -0.34 -1.19 -0.28 -1.22 -0.22 -1.23 -0.16 -1.26 -0.1 -1.27 -0.03 -1.29 0 0zm25.12 -25.1l0 3.84 0 0 -1.09 0.02 -1.08 0.09 -1.06 0.13 -1.05 0.19 -1.03 0.23 -1 0.29 -0.99 0.33 -0.96 0.38 -0.94 0.43 -0.92 0.47 -0.89 0.51 -0.86 0.55 -0.83 0.59 -0.81 0.64 -0.77 0.66 -0.74 0.71 -0.7 0.74 -0.67 0.77 -0.63 0.8 -0.59 0.84 -0.56 0.86 -0.51 0.89 -0.47 0.92 -0.42 0.94 -0.38 0.96 -0.34 0.99 -0.29 1.01 -0.23 1.03 -0.19 1.05 -0.14 1.06 -0.08 1.08 -0.03 1.1 -3.87 0 0.03 -1.29 0.1 -1.27 0.16 -1.26 0.22 -1.23 0.28 -1.22 0.34 -1.19 0.39 -1.16 0.45 -1.14 0.5 -1.12 0.56 -1.08 0.6 -1.05 0.66 -1.02 0.7 -0.98 0.74 -0.95 0.79 -0.91 0.83 -0.87 0.87 -0.83 0.91 -0.79 0.95 -0.75 0.99 -0.7 1.02 -0.65 1.05 -0.61 1.08 -0.55 1.12 -0.5 1.14 -0.45 1.17 -0.4 1.19 -0.34 1.22 -0.28 1.23 -0.22 1.26 -0.16 1.28 -0.1 1.29 -0.03 0 0z"
   id="path7" />
  </g>
  <g
   id="g13">
   <path
   class="fil0"
   d="M23.18 1.92c0,-1.06 0.87,-1.92 1.94,-1.92 1.07,0 1.94,0.86 1.94,1.92l-3.88 0zm0 46.36l0 -46.36 3.88 0 0 46.36 -3.88 0zm3.88 0c0,1.06 -0.87,1.92 -1.94,1.92 -1.07,0 -1.94,-0.86 -1.94,-1.92l3.88 0z"
   id="path11" />
  </g>
  <g
   id="g17">
   <path
   class="fil0"
   d="M25.12 42.87c-1.07,0 -1.94,-0.86 -1.94,-1.92 0,-1.06 0.87,-1.92 1.94,-1.92l0 3.84zm13.91 -17.77l3.88 0 0 0 -0.03 0.91 -0.06 0.9 -0.12 0.89 -0.15 0.88 -0.2 0.86 -0.24 0.84 -0.28 0.82 -0.32 0.81 -0.35 0.79 -0.4 0.76 -0.42 0.75 -0.47 0.72 -0.49 0.69 -0.53 0.68 -0.56 0.64 -0.59 0.62 -0.61 0.59 -0.65 0.55 -0.67 0.53 -0.7 0.5 -0.72 0.46 -0.74 0.43 -0.77 0.39 -0.79 0.36 -0.81 0.32 -0.83 0.28 -0.84 0.24 -0.86 0.2 -0.88 0.15 -0.89 0.12 -0.91 0.06 -0.91 0.03 0 -3.84 0.72 -0.02 0.7 -0.05 0.7 -0.09 0.68 -0.12 0.67 -0.15 0.66 -0.19 0.65 -0.22 0.63 -0.25 0.61 -0.28 0.6 -0.3 0.59 -0.34 0.56 -0.36 0.55 -0.39 0.52 -0.41 0.51 -0.44 0.48 -0.46 0.46 -0.48 0.44 -0.51 0.41 -0.53 0.39 -0.54 0.37 -0.57 0.33 -0.58 0.31 -0.6 0.28 -0.62 0.25 -0.63 0.22 -0.65 0.18 -0.66 0.16 -0.68 0.12 -0.68 0.09 -0.7 0.05 -0.71 0.02 -0.72 0 0zm-13.91 -13.93l0 -3.84 0.91 0.03 0.91 0.07 0.89 0.11 0.88 0.16 0.86 0.19 0.84 0.24 0.83 0.28 0.81 0.32 0.79 0.36 0.77 0.39 0.74 0.43 0.72 0.46 0.7 0.5 0.67 0.53 0.65 0.56 0.61 0.58 0.59 0.62 0.56 0.65 0.53 0.67 0.49 0.69 0.47 0.72 0.42 0.75 0.4 0.76 0.35 0.79 0.32 0.81 0.28 0.82 0.24 0.85 0.2 0.86 0.15 0.87 0.12 0.89 0.06 0.9 0.03 0.91 -3.88 0 -0.02 -0.72 -0.05 -0.71 -0.09 -0.7 -0.12 -0.68 -0.16 -0.68 -0.18 -0.66 -0.22 -0.65 -0.25 -0.63 -0.28 -0.61 -0.31 -0.61 -0.33 -0.58 -0.37 -0.56 -0.39 -0.55 -0.41 -0.53 -0.44 -0.5 -0.46 -0.49 -0.48 -0.46 -0.51 -0.44 -0.52 -0.41 -0.55 -0.39 -0.56 -0.36 -0.59 -0.33 -0.6 -0.31 -0.61 -0.28 -0.63 -0.25 -0.65 -0.22 -0.66 -0.18 -0.67 -0.16 -0.68 -0.12 -0.7 -0.09 -0.7 -0.05 -0.72 -0.02zm0 0c-1.07,0 -1.94,-0.86 -1.94,-1.92 0,-1.06 0.87,-1.92 1.94,-1.92l0 3.84z"
   id="path15" />
  </g>
  <g
   id="g21">
   <path
   class="fil0"
   d="M25.1 18.91c-1.07,0 -1.94,-0.86 -1.94,-1.92 0,-1.06 0.87,-1.92 1.94,-1.92l0 3.84zm10.05 6.19l-3.88 0 0 0 0 -0.32 -0.03 -0.32 -0.04 -0.31 -0.05 -0.3 -0.07 -0.3 -0.08 -0.3 -0.1 -0.28 -0.11 -0.29 -0.13 -0.27 -0.13 -0.27 -0.15 -0.26 -0.16 -0.25 -0.18 -0.24 -0.18 -0.23 -0.2 -0.23 -0.2 -0.21 -0.22 -0.21 -0.22 -0.19 -0.23 -0.19 -0.25 -0.17 -0.25 -0.16 -0.26 -0.15 -0.26 -0.14 -0.27 -0.12 -0.28 -0.11 -0.29 -0.1 -0.29 -0.08 -0.3 -0.07 -0.3 -0.05 -0.31 -0.04 -0.31 -0.02 -0.32 -0.01 0 -3.84 0.52 0.02 0.51 0.03 0.5 0.07 0.5 0.09 0.48 0.11 0.48 0.14 0.47 0.15 0.46 0.18 0.44 0.21 0.44 0.22 0.42 0.24 0.41 0.26 0.39 0.28 0.38 0.3 0.36 0.32 0.35 0.33 0.33 0.35 0.32 0.36 0.3 0.38 0.28 0.39 0.26 0.41 0.24 0.42 0.22 0.43 0.2 0.44 0.18 0.46 0.16 0.47 0.13 0.47 0.11 0.49 0.09 0.49 0.07 0.5 0.03 0.51 0.02 0.51 0 0zm-10.05 10.03l0 -3.84 0.32 0 0.31 -0.03 0.31 -0.04 0.3 -0.05 0.3 -0.07 0.29 -0.08 0.29 -0.1 0.28 -0.11 0.27 -0.12 0.26 -0.14 0.26 -0.15 0.25 -0.16 0.25 -0.17 0.23 -0.18 0.22 -0.2 0.22 -0.2 0.2 -0.22 0.2 -0.22 0.18 -0.24 0.18 -0.24 0.16 -0.25 0.15 -0.26 0.13 -0.27 0.13 -0.27 0.11 -0.28 0.1 -0.29 0.08 -0.3 0.07 -0.29 0.05 -0.31 0.04 -0.31 0.03 -0.32 0 -0.32 3.88 0 -0.02 0.51 -0.03 0.51 -0.07 0.5 -0.09 0.5 -0.11 0.48 -0.13 0.48 -0.16 0.46 -0.18 0.46 -0.2 0.44 -0.22 0.44 -0.24 0.41 -0.26 0.41 -0.28 0.39 -0.3 0.38 -0.32 0.37 -0.33 0.35 -0.35 0.33 -0.36 0.31 -0.38 0.3 -0.39 0.28 -0.41 0.26 -0.42 0.24 -0.44 0.23 -0.44 0.2 -0.46 0.18 -0.47 0.16 -0.48 0.13 -0.48 0.11 -0.5 0.09 -0.5 0.07 -0.51 0.04 -0.52 0.01zm0 0c-1.07,0 -1.94,-0.86 -1.94,-1.92 0,-1.06 0.87,-1.92 1.94,-1.92l0 3.84z"
   id="path19" />
  </g>
 </g>
</svg>
