<?xml version="1.0" encoding="UTF-8" standalone="no"?>
<svg
   xmlns:dc="http://purl.org/dc/elements/1.1/"
   xmlns:cc="http://creativecommons.org/ns#"
   xmlns:rdf="http://www.w3.org/1999/02/22-rdf-syntax-ns#"
   xmlns:svg="http://www.w3.org/2000/svg"
   xmlns="http://www.w3.org/2000/svg"
   xmlns:sodipodi="http://sodipodi.sourceforge.net/DTD/sodipodi-0.dtd"
   xmlns:inkscape="http://www.inkscape.org/namespaces/inkscape"
   xml:space="preserve"
   width="24px"
   height="24px"
   version="1.0"
   style="shape-rendering:geometricPrecision; text-rendering:geometricPrecision; image-rendering:optimizeQuality; fill-rule:evenodd; clip-rule:evenodd"
   viewBox="0 0 11.21 11.21"
   id="svg20"
   sodipodi:docname="ic-coin-qrax.svg"><metadata
   id="metadata24"><rdf:RDF><cc:Work
       rdf:about=""><dc:format>image/svg+xml</dc:format><dc:type
         rdf:resource="http://purl.org/dc/dcmitype/StillImage" /></cc:Work></rdf:RDF></metadata><sodipodi:namedview
   pagecolor="#ffffff"
   bordercolor="#666666"
   borderopacity="1"
   objecttolerance="10"
   gridtolerance="10"
   guidetolerance="10"
   inkscape:pageopacity="0"
   inkscape:pageshadow="2"
   inkscape:window-width="640"
   inkscape:window-height="480"
   id="namedview22"
   inkscape:document-rotation="0" />
 <defs
   id="defs4">
  <style
   type="text/css"
   id="style2">
   <![CDATA[
    .fil0 {fill:#6172F2;fill-rule:nonzero}
   ]]>
  </style>
 </defs>
 <g
   id="Слой_x0020_1">
  <metadata
   id="CorelCorpID_0Corel-Layer" />
  <path
   class="fil0"
   d="M0.88 8.62c-0.01,-0.01 -0.01,-0.02 -0.02,-0.03 -0.54,-0.87 -0.84,-1.87 -0.86,-2.89 -0.02,-0.98 0.22,-1.98 0.75,-2.9 0.59,-1.01 1.45,-1.78 2.43,-2.25 0.01,0 0.01,0 0.01,0 0.01,-0.01 0.02,-0.01 0.04,-0.02 0.76,-0.36 1.57,-0.53 2.38,-0.53 0.8,0 1.61,0.17 2.38,0.53 0.01,0.01 0.02,0.01 0.03,0.02l0.01 0c0.99,0.47 1.85,1.24 2.43,2.25 0.53,0.92 0.77,1.92 0.75,2.9 -0.02,1.02 -0.31,2.02 -0.86,2.89 0,0.01 -0.01,0.02 -0.02,0.03 -0.52,0.82 -1.23,1.47 -2.04,1.91 -0.73,0.39 -1.55,0.63 -2.38,0.67 0,0 -0.01,0 -0.02,0 -0.09,0.01 -0.18,0.01 -0.27,0.01 -0.01,0 -0.01,0 -0.01,0 -0.01,0 -0.01,0 -0.01,0 -0.1,0 -0.19,0 -0.28,-0.01 -0.01,0 -0.01,0 -0.02,0 -0.83,-0.04 -1.64,-0.28 -2.37,-0.67 -0.81,-0.44 -1.52,-1.09 -2.05,-1.91zm4.72 1.89c0,0 0.01,0 0.01,0l0 0c0.82,0 1.63,-0.2 2.35,-0.59 0.76,-0.42 1.43,-1.05 1.89,-1.86 0.68,-1.17 0.82,-2.51 0.5,-3.72 -0.33,-1.22 -1.12,-2.31 -2.29,-2.98 -0.28,-0.16 -0.56,-0.29 -0.85,-0.39 -0.11,-0.04 -0.22,-0.07 -0.33,-0.1 -0.4,-0.11 -0.81,-0.17 -1.22,-0.17 -0.01,0 -0.01,0 -0.01,0 -0.02,0 -0.03,0 -0.04,0 -0.02,0 -0.03,0 -0.04,0 -0.01,0 -0.01,0 -0.01,0 -0.42,0 -0.83,0.06 -1.22,0.17 -0.12,0.03 -0.23,0.06 -0.34,0.1 -0.29,0.1 -0.57,0.23 -0.84,0.39 -1.18,0.67 -1.97,1.76 -2.29,2.98 -0.33,1.21 -0.19,2.55 0.49,3.72 0.47,0.81 1.13,1.44 1.9,1.86 0.72,0.39 1.52,0.59 2.34,0.59z"
   id="path7" />
  <path
   class="fil0"
   d="M8.39 7.48c0.11,-0.16 0.33,-0.2 0.48,-0.09 0.16,0.11 0.2,0.33 0.09,0.49l-0.07 0.1c-0.11,0.16 -0.33,0.2 -0.49,0.09 -0.15,-0.11 -0.19,-0.33 -0.08,-0.49l0.07 -0.1zm-0.86 0.87c0.16,-0.11 0.38,-0.07 0.49,0.09 0.11,0.16 0.07,0.37 -0.09,0.48 -0.44,0.32 -0.95,0.54 -1.49,0.65 -0.52,0.11 -1.07,0.12 -1.62,0.01 -1.1,-0.21 -2.01,-0.86 -2.58,-1.72l-0.02 -0.03c-0.56,-0.85 -0.81,-1.92 -0.59,-3.01 0.22,-1.09 0.86,-2 1.72,-2.58 0.86,-0.58 1.94,-0.83 3.04,-0.61 1.1,0.22 2,0.86 2.58,1.72 0.58,0.86 0.83,1.95 0.61,3.04 -0.04,0.19 -0.22,0.32 -0.41,0.28 -0.19,-0.04 -0.31,-0.22 -0.28,-0.41 0.18,-0.91 -0.02,-1.81 -0.5,-2.52 -0.48,-0.71 -1.23,-1.24 -2.14,-1.42 -0.9,-0.18 -1.8,0.02 -2.51,0.5 -0.71,0.48 -1.25,1.23 -1.43,2.14 -0.17,0.9 0.03,1.78 0.49,2.49l0.02 0.02c0.48,0.72 1.23,1.25 2.13,1.43 0.46,0.09 0.92,0.08 1.35,-0.01 0.44,-0.09 0.87,-0.28 1.23,-0.54z"
   id="path9" />
  <path
   class="fil0"
   d="M3.99 5.08c-0.17,-0.1 -0.23,-0.31 -0.13,-0.48 0.1,-0.17 0.31,-0.23 0.48,-0.13l2.88 1.67c0.17,0.09 0.23,0.31 0.13,0.47 -0.09,0.17 -0.31,0.23 -0.48,0.13l-2.88 -1.66z"
   id="path11" />
  <path
   class="fil0"
   d="M5.08 7.22c-0.1,0.17 -0.32,0.23 -0.48,0.13 -0.17,-0.09 -0.23,-0.31 -0.13,-0.48l1.67 -2.88c0.09,-0.17 0.31,-0.23 0.47,-0.13 0.17,0.1 0.23,0.31 0.13,0.48l-1.66 2.88z"
   id="path13" />
  <path
   class="fil0"
   d="M4.09 6.38c-0.19,0.05 -0.38,-0.07 -0.43,-0.25 -0.05,-0.19 0.06,-0.38 0.25,-0.43l3.21 -0.86c0.19,-0.05 0.38,0.06 0.43,0.24 0.05,0.19 -0.06,0.38 -0.24,0.43l-3.22 0.87z"
   id="path15" />
  <path
   class="fil0"
   d="M6.37 7.13c0.05,0.18 -0.06,0.37 -0.24,0.42 -0.19,0.05 -0.38,-0.06 -0.43,-0.24l-0.86 -3.22c-0.05,-0.19 0.06,-0.38 0.24,-0.43 0.19,-0.05 0.38,0.06 0.43,0.25l0.86 3.22z"
   id="path17" />
 </g>
</svg>
