<?xml version="1.0" encoding="UTF-8" standalone="no"?>
<svg
   xmlns:dc="http://purl.org/dc/elements/1.1/"
   xmlns:cc="http://creativecommons.org/ns#"
   xmlns:rdf="http://www.w3.org/1999/02/22-rdf-syntax-ns#"
   xmlns:svg="http://www.w3.org/2000/svg"
   xmlns="http://www.w3.org/2000/svg"
   xmlns:sodipodi="http://sodipodi.sourceforge.net/DTD/sodipodi-0.dtd"
   xmlns:inkscape="http://www.inkscape.org/namespaces/inkscape"
   xml:space="preserve"
   width="24px"
   height="24px"
   version="1.0"
   style="shape-rendering:geometricPrecision; text-rendering:geometricPrecision; image-rendering:optimizeQuality; fill-rule:evenodd; clip-rule:evenodd"
   viewBox="0 0 96.33 96.26"
   id="svg24"
   sodipodi:docname="ic-check-tor-off.svg"><metadata
   id="metadata28"><rdf:RDF><cc:Work
       rdf:about=""><dc:format>image/svg+xml</dc:format><dc:type
         rdf:resource="http://purl.org/dc/dcmitype/StillImage" /></cc:Work></rdf:RDF></metadata><sodipodi:namedview
   pagecolor="#ffffff"
   bordercolor="#666666"
   borderopacity="1"
   objecttolerance="10"
   gridtolerance="10"
   guidetolerance="10"
   inkscape:pageopacity="0"
   inkscape:pageshadow="2"
   inkscape:window-width="640"
   inkscape:window-height="480"
   id="namedview26"
   inkscape:document-rotation="0" />
 <defs
   id="defs4">
  <style
   type="text/css"
   id="style2">
   <![CDATA[
    .fil0 {fill:#5C6BDD;fill-rule:nonzero}
   ]]>
  </style>
 </defs>
 <g
   id="Слой_x0020_1">
  <metadata
   id="CorelCorpID_0Corel-Layer" />
  <g
   id="g9">
   <path
   class="fil0"
   d="M96.33 48.13l-7.43 0 0 0 -0.05 -2.1 -0.16 -2.08 -0.26 -2.04 -0.36 -2.01 -0.45 -1.97 -0.55 -1.94 -0.64 -1.89 -0.73 -1.85 -0.82 -1.81 -0.9 -1.76 -0.98 -1.7 -1.06 -1.66 -1.14 -1.6 -1.21 -1.54 -1.28 -1.48 -1.35 -1.42 -1.42 -1.35 -1.48 -1.28 -1.54 -1.21 -1.59 -1.13 -1.66 -1.06 -1.7 -0.98 -1.76 -0.9 -1.8 -0.82 -1.85 -0.73 -1.89 -0.64 -1.93 -0.54 -1.97 -0.46 -2 -0.36 -2.04 -0.25 -2.07 -0.16 -2.09 -0.06 0 -7.35 2.47 0.06 2.45 0.19 2.41 0.31 2.38 0.42 2.33 0.54 2.29 0.65 2.24 0.76 2.19 0.86 2.13 0.96 2.08 1.07 2.02 1.16 1.95 1.25 1.89 1.34 1.82 1.43 1.75 1.52 1.67 1.59 1.59 1.67 1.51 1.75 1.43 1.82 1.34 1.88 1.26 1.95 1.16 2.02 1.06 2.07 0.96 2.14 0.86 2.18 0.76 2.24 0.65 2.28 0.54 2.33 0.42 2.37 0.31 2.41 0.18 2.44 0.06 2.47 0 0zm-48.16 48.13l0 -7.36 0 0 2.09 -0.05 2.07 -0.16 2.04 -0.26 2 -0.35 1.97 -0.46 1.93 -0.55 1.89 -0.64 1.85 -0.72 1.8 -0.82 1.76 -0.9 1.7 -0.98 1.66 -1.06 1.59 -1.13 1.54 -1.21 1.48 -1.29 1.42 -1.35 1.35 -1.41 1.28 -1.48 1.21 -1.54 1.14 -1.6 1.06 -1.66 0.98 -1.7 0.9 -1.76 0.82 -1.81 0.73 -1.85 0.64 -1.89 0.55 -1.94 0.45 -1.97 0.36 -2.01 0.26 -2.04 0.16 -2.08 0.05 -2.1 7.43 0 -0.06 2.47 -0.18 2.44 -0.31 2.41 -0.42 2.37 -0.54 2.33 -0.65 2.28 -0.76 2.24 -0.86 2.18 -0.96 2.13 -1.06 2.08 -1.16 2.01 -1.26 1.96 -1.34 1.88 -1.43 1.82 -1.51 1.75 -1.59 1.67 -1.67 1.59 -1.75 1.52 -1.82 1.42 -1.89 1.35 -1.95 1.25 -2.02 1.16 -2.08 1.06 -2.13 0.97 -2.19 0.86 -2.24 0.76 -2.29 0.65 -2.33 0.54 -2.38 0.42 -2.41 0.31 -2.45 0.19 -2.47 0.06 0 0zm-48.17 -48.13l7.43 0 0 0 0.05 2.1 0.16 2.08 0.26 2.04 0.36 2.01 0.45 1.97 0.55 1.94 0.64 1.89 0.73 1.85 0.82 1.81 0.9 1.76 0.98 1.7 1.06 1.66 1.14 1.6 1.21 1.54 1.28 1.48 1.35 1.41 1.42 1.35 1.48 1.29 1.54 1.21 1.6 1.13 1.65 1.06 1.71 0.98 1.75 0.9 1.8 0.82 1.85 0.72 1.89 0.64 1.93 0.55 1.97 0.46 2 0.35 2.04 0.26 2.07 0.16 2.1 0.05 0 7.36 -2.48 -0.06 -2.45 -0.19 -2.41 -0.31 -2.37 -0.42 -2.34 -0.54 -2.28 -0.65 -2.25 -0.76 -2.18 -0.86 -2.14 -0.97 -2.08 -1.06 -2.02 -1.16 -1.95 -1.25 -1.89 -1.35 -1.82 -1.42 -1.74 -1.52 -1.68 -1.59 -1.59 -1.67 -1.51 -1.75 -1.43 -1.82 -1.34 -1.88 -1.25 -1.96 -1.16 -2.01 -1.06 -2.08 -0.97 -2.13 -0.86 -2.18 -0.76 -2.24 -0.65 -2.28 -0.53 -2.33 -0.43 -2.37 -0.3 -2.41 -0.19 -2.44 -0.06 -2.47 0 0zm48.17 -48.13l0 7.35 0 0 -2.1 0.06 -2.07 0.16 -2.04 0.25 -2 0.36 -1.97 0.46 -1.93 0.54 -1.89 0.64 -1.85 0.73 -1.8 0.82 -1.75 0.9 -1.71 0.98 -1.65 1.06 -1.6 1.13 -1.54 1.21 -1.48 1.28 -1.42 1.35 -1.35 1.42 -1.28 1.48 -1.21 1.54 -1.14 1.6 -1.06 1.66 -0.98 1.7 -0.9 1.76 -0.82 1.81 -0.73 1.85 -0.64 1.89 -0.55 1.94 -0.45 1.97 -0.36 2.01 -0.26 2.04 -0.16 2.08 -0.05 2.1 -7.43 0 0.06 -2.47 0.19 -2.44 0.3 -2.41 0.43 -2.37 0.53 -2.33 0.65 -2.28 0.76 -2.24 0.86 -2.18 0.97 -2.14 1.06 -2.07 1.16 -2.02 1.25 -1.95 1.34 -1.88 1.43 -1.82 1.51 -1.75 1.59 -1.67 1.68 -1.59 1.74 -1.52 1.82 -1.43 1.89 -1.34 1.95 -1.25 2.02 -1.16 2.08 -1.07 2.14 -0.96 2.18 -0.86 2.25 -0.76 2.28 -0.65 2.34 -0.54 2.37 -0.42 2.41 -0.31 2.45 -0.19 2.48 -0.06 0 0z"
   id="path7" />
  </g>
  <g
   id="g13">
   <path
   class="fil0"
   d="M44.45 3.68c0,-2.03 1.66,-3.68 3.72,-3.68 2.05,0 3.71,1.65 3.71,3.68l-7.43 0zm0 88.9l0 -88.9 7.43 0 0 88.9 -7.43 0zm7.43 0c0,2.03 -1.66,3.68 -3.71,3.68 -2.06,0 -3.72,-1.65 -3.72,-3.68l7.43 0z"
   id="path11" />
  </g>
  <g
   id="g17">
   <path
   class="fil0"
   d="M48.17 82.2c-2.05,0 -3.72,-1.65 -3.72,-3.68 0,-2.03 1.67,-3.68 3.72,-3.68l0 7.36zm26.67 -34.07l7.43 0 0 0 -0.04 1.75 -0.14 1.72 -0.21 1.71 -0.3 1.67 -0.38 1.65 -0.46 1.62 -0.54 1.58 -0.61 1.55 -0.68 1.51 -0.75 1.47 -0.82 1.42 -0.89 1.38 -0.95 1.34 -1.01 1.29 -1.07 1.23 -1.13 1.19 -1.18 1.12 -1.23 1.07 -1.29 1.02 -1.34 0.95 -1.38 0.88 -1.43 0.83 -1.47 0.75 -1.52 0.68 -1.55 0.61 -1.58 0.54 -1.62 0.46 -1.66 0.38 -1.68 0.3 -1.71 0.22 -1.73 0.13 -1.75 0.05 0 -7.36 1.37 -0.03 1.36 -0.1 1.33 -0.17 1.31 -0.24 1.29 -0.3 1.26 -0.35 1.24 -0.42 1.21 -0.48 1.18 -0.53 1.15 -0.59 1.11 -0.64 1.08 -0.7 1.05 -0.74 1.01 -0.79 0.97 -0.84 0.93 -0.89 0.88 -0.93 0.84 -0.97 0.79 -1.01 0.75 -1.04 0.69 -1.09 0.65 -1.12 0.59 -1.15 0.53 -1.18 0.48 -1.21 0.42 -1.24 0.36 -1.27 0.3 -1.3 0.23 -1.31 0.17 -1.34 0.11 -1.36 0.03 -1.38 0 0zm-26.67 -26.71l0 -7.36 1.75 0.05 1.73 0.13 1.71 0.22 1.68 0.3 1.66 0.38 1.62 0.46 1.58 0.54 1.55 0.61 1.52 0.68 1.47 0.75 1.43 0.83 1.38 0.88 1.34 0.95 1.29 1.01 1.23 1.08 1.18 1.12 1.13 1.19 1.07 1.23 1.01 1.29 0.95 1.33 0.89 1.39 0.82 1.42 0.75 1.47 0.68 1.51 0.61 1.55 0.54 1.58 0.46 1.62 0.38 1.65 0.3 1.67 0.21 1.71 0.14 1.72 0.04 1.75 -7.43 0 -0.03 -1.38 -0.11 -1.36 -0.17 -1.34 -0.23 -1.32 -0.3 -1.29 -0.36 -1.27 -0.42 -1.24 -0.48 -1.21 -0.53 -1.18 -0.59 -1.15 -0.65 -1.12 -0.69 -1.09 -0.75 -1.05 -0.79 -1.01 -0.84 -0.96 -0.88 -0.93 -0.93 -0.89 -0.97 -0.84 -1.01 -0.79 -1.05 -0.74 -1.08 -0.7 -1.11 -0.64 -1.15 -0.59 -1.18 -0.53 -1.21 -0.48 -1.24 -0.42 -1.26 -0.36 -1.29 -0.29 -1.31 -0.24 -1.33 -0.17 -1.36 -0.1 -1.37 -0.03zm0 0c-2.05,0 -3.72,-1.65 -3.72,-3.68 0,-2.03 1.67,-3.68 3.72,-3.68l0 7.36z"
   id="path15" />
  </g>
  <g
   id="g21">
   <path
   class="fil0"
   d="M48.13 36.25c-2.05,0 -3.72,-1.64 -3.72,-3.67 0,-2.03 1.67,-3.68 3.72,-3.68l0 7.35zm19.26 11.88l-7.42 0 0 0 -0.02 -0.62 -0.05 -0.6 -0.07 -0.6 -0.11 -0.58 -0.13 -0.58 -0.16 -0.56 -0.19 -0.55 -0.21 -0.54 -0.24 -0.53 -0.26 -0.51 -0.28 -0.5 -0.31 -0.48 -0.34 -0.47 -0.35 -0.45 -0.37 -0.43 -0.39 -0.41 -0.42 -0.39 -0.43 -0.38 -0.45 -0.35 -0.46 -0.33 -0.48 -0.31 -0.5 -0.28 -0.51 -0.26 -0.52 -0.24 -0.53 -0.21 -0.55 -0.19 -0.56 -0.15 -0.57 -0.14 -0.58 -0.1 -0.59 -0.07 -0.6 -0.05 -0.61 -0.02 0 -7.35 0.99 0.03 0.98 0.07 0.96 0.12 0.95 0.17 0.94 0.22 0.91 0.26 0.9 0.3 0.88 0.35 0.85 0.39 0.84 0.42 0.8 0.47 0.79 0.5 0.75 0.53 0.73 0.58 0.7 0.6 0.66 0.64 0.64 0.66 0.6 0.7 0.57 0.73 0.54 0.75 0.5 0.78 0.46 0.81 0.43 0.82 0.38 0.86 0.35 0.87 0.3 0.89 0.26 0.92 0.21 0.93 0.17 0.94 0.12 0.96 0.08 0.98 0.02 0.98 0 0zm-19.26 19.23l0 -7.36 0.61 -0.01 0.6 -0.05 0.59 -0.07 0.58 -0.11 0.57 -0.13 0.56 -0.16 0.55 -0.18 0.53 -0.21 0.52 -0.24 0.51 -0.26 0.5 -0.28 0.48 -0.31 0.46 -0.33 0.45 -0.35 0.43 -0.38 0.42 -0.39 0.39 -0.41 0.37 -0.43 0.35 -0.45 0.34 -0.47 0.31 -0.48 0.28 -0.5 0.26 -0.51 0.24 -0.53 0.21 -0.54 0.19 -0.55 0.16 -0.56 0.13 -0.58 0.11 -0.58 0.07 -0.6 0.05 -0.6 0.02 -0.62 7.42 0 -0.02 0.98 -0.08 0.98 -0.12 0.96 -0.17 0.94 -0.21 0.93 -0.26 0.92 -0.3 0.89 -0.35 0.87 -0.38 0.85 -0.43 0.83 -0.46 0.81 -0.5 0.78 -0.54 0.75 -0.57 0.73 -0.6 0.69 -0.64 0.67 -0.66 0.64 -0.7 0.6 -0.73 0.57 -0.75 0.54 -0.79 0.5 -0.8 0.47 -0.84 0.42 -0.85 0.39 -0.88 0.35 -0.9 0.3 -0.91 0.26 -0.94 0.22 -0.95 0.17 -0.96 0.12 -0.98 0.07 -0.99 0.03zm0 0c-2.05,0 -3.72,-1.65 -3.72,-3.68 0,-2.03 1.67,-3.68 3.72,-3.68l0 7.36z"
   id="path19" />
  </g>
 </g>
</svg>
