<?xml version="1.0" encoding="UTF-8" standalone="no"?>
<svg
   xmlns:dc="http://purl.org/dc/elements/1.1/"
   xmlns:cc="http://creativecommons.org/ns#"
   xmlns:rdf="http://www.w3.org/1999/02/22-rdf-syntax-ns#"
   xmlns:svg="http://www.w3.org/2000/svg"
   xmlns="http://www.w3.org/2000/svg"
   xmlns:sodipodi="http://sodipodi.sourceforge.net/DTD/sodipodi-0.dtd"
   xmlns:inkscape="http://www.inkscape.org/namespaces/inkscape"
   xml:space="preserve"
   width="24px"
   height="24px"
   version="1.0"
   style="shape-rendering:geometricPrecision; text-rendering:geometricPrecision; image-rendering:optimizeQuality; fill-rule:evenodd; clip-rule:evenodd"
   viewBox="0 0 4.41 4.41"
   id="svg12"
   sodipodi:docname="ic-check-cold-staking-off.svg"><metadata
   id="metadata16"><rdf:RDF><cc:Work
       rdf:about=""><dc:format>image/svg+xml</dc:format><dc:type
         rdf:resource="http://purl.org/dc/dcmitype/StillImage" /></cc:Work></rdf:RDF></metadata><sodipodi:namedview
   pagecolor="#ffffff"
   bordercolor="#666666"
   borderopacity="1"
   objecttolerance="10"
   gridtolerance="10"
   guidetolerance="10"
   inkscape:pageopacity="0"
   inkscape:pageshadow="2"
   inkscape:window-width="640"
   inkscape:window-height="480"
   id="namedview14"
   inkscape:document-rotation="0" />
 <defs
   id="defs4">
  <style
   type="text/css"
   id="style2">
   <![CDATA[
    .fil1 {fill:none}
    .fil0 {fill:#5C6BDD;fill-rule:nonzero}
   ]]>
  </style>
 </defs>
 <g
   id="Слой_x0020_1">
  <metadata
   id="CorelCorpID_0Corel-Layer" />
  <path
   class="fil0"
   d="M3.34 4.36l-2.29 0c-0.27,0 -0.52,-0.11 -0.71,-0.29 -0.18,-0.18 -0.29,-0.43 -0.29,-0.71l0 -2.29c0,-0.27 0.11,-0.52 0.29,-0.7 0.19,-0.19 0.44,-0.3 0.71,-0.3l2.29 0c0.27,0 0.53,0.11 0.71,0.3 0.18,0.18 0.29,0.43 0.29,0.7l0 2.29c0,0.28 -0.11,0.53 -0.29,0.71l0 0c-0.19,0.18 -0.44,0.29 -0.71,0.29zm-0.05 -0.64l-2.19 0c-0.11,0 -0.22,-0.04 -0.29,-0.12l0 0c-0.08,-0.07 -0.12,-0.17 -0.12,-0.29l0 -2.19c0,-0.11 0.04,-0.21 0.12,-0.29l0 0c0.07,-0.07 0.18,-0.12 0.29,-0.12l2.19 0c0.11,0 0.22,0.05 0.29,0.12l0 0c0.08,0.08 0.12,0.18 0.12,0.29l0 2.19c0,0.12 -0.04,0.22 -0.12,0.29 -0.07,0.08 -0.18,0.12 -0.29,0.12zm-2.19 -0.32l2.19 0c0.02,0 0.05,-0.01 0.06,-0.03 0.02,-0.01 0.03,-0.03 0.03,-0.06l0 -2.19c0,-0.02 -0.01,-0.04 -0.03,-0.06 -0.01,-0.01 -0.04,-0.02 -0.06,-0.02l-2.19 0c-0.02,0 -0.04,0.01 -0.06,0.02l0 0c-0.02,0.02 -0.03,0.04 -0.03,0.06l0 2.19c0,0.03 0.01,0.05 0.03,0.06 0.02,0.02 0.04,0.03 0.06,0.03zm1.27 -1.73c0.04,0.01 0.07,0.02 0.1,0.04l0.22 -0.22 0.23 0.23 -0.21 0.21c0.02,0.04 0.04,0.07 0.05,0.11l0.3 0 0 0.33 -0.3 0c-0.01,0.04 -0.02,0.08 -0.04,0.11l0.22 0.23 -0.23 0.23 -0.23 -0.22c-0.03,0.02 -0.07,0.03 -0.11,0.04l0 0.3 -0.33 0 0 -0.3c-0.04,-0.01 -0.07,-0.03 -0.11,-0.05l-0.22 0.23 -0.23 -0.23 0.23 -0.24c-0.02,-0.03 -0.03,-0.06 -0.04,-0.1l-0.32 0 0 -0.33 0.32 0c0.01,-0.03 0.03,-0.06 0.04,-0.1l-0.22 -0.22 0.23 -0.23 0.23 0.22c0.03,-0.01 0.06,-0.03 0.09,-0.04l0 -0.32 0.33 0 0 0.32zm0.02 0.37c-0.05,-0.04 -0.11,-0.07 -0.18,-0.07 -0.06,0 -0.12,0.03 -0.17,0.07 -0.04,0.05 -0.07,0.11 -0.07,0.17 0,0.07 0.03,0.13 0.07,0.18 0.05,0.04 0.11,0.07 0.17,0.07 0.07,0 0.13,-0.03 0.18,-0.07 0.04,-0.05 0.07,-0.11 0.07,-0.18 0,-0.06 -0.03,-0.12 -0.07,-0.17zm-1.34 2l2.29 0c0.18,0 0.35,-0.08 0.48,-0.2l0 0c0.12,-0.12 0.19,-0.29 0.19,-0.48l0 -2.29c0,-0.18 -0.07,-0.35 -0.19,-0.47l0 0c-0.13,-0.13 -0.3,-0.2 -0.48,-0.2l-2.29 0c-0.18,0 -0.35,0.07 -0.47,0.2 -0.13,0.12 -0.2,0.29 -0.2,0.47l0 2.29c0,0.19 0.07,0.36 0.2,0.48l0 0c0.12,0.12 0.29,0.2 0.47,0.2z"
   id="path7" />
  <rect
   class="fil1"
   width="4.41"
   height="4.41"
   id="rect9" />
 </g>
</svg>
