<?xml version="1.0" encoding="UTF-8" standalone="no"?>
<svg
   xmlns:dc="http://purl.org/dc/elements/1.1/"
   xmlns:cc="http://creativecommons.org/ns#"
   xmlns:rdf="http://www.w3.org/1999/02/22-rdf-syntax-ns#"
   xmlns:svg="http://www.w3.org/2000/svg"
   xmlns="http://www.w3.org/2000/svg"
   xmlns:sodipodi="http://sodipodi.sourceforge.net/DTD/sodipodi-0.dtd"
   xmlns:inkscape="http://www.inkscape.org/namespaces/inkscape"
   xml:space="preserve"
   width="24px"
   height="24px"
   version="1.0"
   style="shape-rendering:geometricPrecision; text-rendering:geometricPrecision; image-rendering:optimizeQuality; fill-rule:evenodd; clip-rule:evenodd"
   viewBox="0 0 2.9 2.9"
   id="svg14"
   sodipodi:docname="ic-check-connect.svg"><metadata
   id="metadata18"><rdf:RDF><cc:Work
       rdf:about=""><dc:format>image/svg+xml</dc:format><dc:type
         rdf:resource="http://purl.org/dc/dcmitype/StillImage" /></cc:Work></rdf:RDF></metadata><sodipodi:namedview
   pagecolor="#ffffff"
   bordercolor="#666666"
   borderopacity="1"
   objecttolerance="10"
   gridtolerance="10"
   guidetolerance="10"
   inkscape:pageopacity="0"
   inkscape:pageshadow="2"
   inkscape:window-width="640"
   inkscape:window-height="480"
   id="namedview16"
   inkscape:document-rotation="0" />
 <defs
   id="defs4">
  <style
   type="text/css"
   id="style2">
   <![CDATA[
    .fil0 {fill:none}
    .fil1 {fill:#F05A40}
   ]]>
  </style>
 </defs>
 <g
   id="Слой_x0020_1">
  <metadata
   id="CorelCorpID_0Corel-Layer" />
  <rect
   class="fil0"
   width="2.9"
   height="2.9"
   id="rect7" />
  <path
   class="fil1"
   d="M2.9 1.1l-0.2 0.16c-0.04,-0.05 -0.08,-0.1 -0.12,-0.14 -0.29,-0.29 -0.69,-0.47 -1.13,-0.47 -0.44,0 -0.84,0.18 -1.13,0.47 -0.04,0.04 -0.08,0.09 -0.12,0.14l-0.2 -0.16c0.04,-0.06 0.09,-0.11 0.14,-0.16 0.34,-0.34 0.8,-0.54 1.31,-0.54 0.51,0 0.97,0.2 1.31,0.54 0.05,0.05 0.1,0.1 0.14,0.16zm-0.43 0.34l-0.2 0.15c-0.02,-0.03 -0.05,-0.06 -0.08,-0.09 -0.19,-0.19 -0.45,-0.3 -0.74,-0.3 -0.29,0 -0.55,0.11 -0.74,0.3l0 0c-0.03,0.03 -0.06,0.06 -0.08,0.09l-0.2 -0.15c0.03,-0.04 0.06,-0.08 0.1,-0.11l0 -0.01c0.24,-0.23 0.56,-0.38 0.92,-0.38 0.36,0 0.68,0.15 0.92,0.39 0.04,0.03 0.07,0.07 0.1,0.11zm-0.42 0.33l-0.2 0.16c-0.01,-0.01 -0.03,-0.03 -0.04,-0.04 -0.09,-0.09 -0.22,-0.15 -0.36,-0.15 -0.14,0 -0.26,0.05 -0.36,0.14l0 0.01c-0.01,0.01 -0.03,0.03 -0.04,0.04l-0.2 -0.16c0.02,-0.02 0.04,-0.04 0.06,-0.06l0.01 0c0.13,-0.14 0.32,-0.22 0.53,-0.22 0.21,0 0.4,0.08 0.54,0.22 0.02,0.02 0.04,0.04 0.06,0.06z"
   id="path9" />
  <circle
   class="fil1"
   cx="1.45"
   cy="2.25"
   r="0.2"
   id="circle11" />
 </g>
</svg>
