<?xml version="1.0" encoding="UTF-8" standalone="no"?>
<svg
   xmlns:dc="http://purl.org/dc/elements/1.1/"
   xmlns:cc="http://creativecommons.org/ns#"
   xmlns:rdf="http://www.w3.org/1999/02/22-rdf-syntax-ns#"
   xmlns:svg="http://www.w3.org/2000/svg"
   xmlns="http://www.w3.org/2000/svg"
   xmlns:sodipodi="http://sodipodi.sourceforge.net/DTD/sodipodi-0.dtd"
   xmlns:inkscape="http://www.inkscape.org/namespaces/inkscape"
   xml:space="preserve"
   width="24px"
   height="24px"
   version="1.0"
   style="shape-rendering:geometricPrecision; text-rendering:geometricPrecision; image-rendering:optimizeQuality; fill-rule:evenodd; clip-rule:evenodd"
   viewBox="0 0 21.48 21.48"
   id="svg12"
   sodipodi:docname="ic-check-theme-dark.svg"><metadata
   id="metadata16"><rdf:RDF><cc:Work
       rdf:about=""><dc:format>image/svg+xml</dc:format><dc:type
         rdf:resource="http://purl.org/dc/dcmitype/StillImage" /></cc:Work></rdf:RDF></metadata><sodipodi:namedview
   pagecolor="#ffffff"
   bordercolor="#666666"
   borderopacity="1"
   objecttolerance="10"
   gridtolerance="10"
   guidetolerance="10"
   inkscape:pageopacity="0"
   inkscape:pageshadow="2"
   inkscape:window-width="640"
   inkscape:window-height="480"
   id="namedview14"
   inkscape:document-rotation="0" />
 <defs
   id="defs4">
  <style
   type="text/css"
   id="style2">
   <![CDATA[
    .fil0 {fill:none}
    .fil1 {fill:#F05A40;fill-rule:nonzero}
   ]]>
  </style>
 </defs>
 <g
   id="Слой_x0020_1">
  <metadata
   id="CorelCorpID_0Corel-Layer" />
  <rect
   class="fil0"
   width="21.48"
   height="21.48"
   id="rect7" />
  <path
   class="fil1"
   d="M13.83 2.47c-2.28,0 -4.35,0.92 -5.85,2.42 -1.49,1.5 -2.42,3.57 -2.42,5.85 0,2.29 0.93,4.36 2.42,5.85l0.04 0.04c1.49,1.48 3.55,2.39 5.81,2.39l0.59 -0.02c-1.04,-0.68 -1.95,-1.55 -2.66,-2.56 -1.15,-1.61 -1.82,-3.58 -1.82,-5.7 0,-2.12 0.67,-4.09 1.82,-5.7 0.71,-1.01 1.62,-1.88 2.66,-2.56l-0.59 -0.01zm-6.96 1.3c1.78,-1.78 4.25,-2.88 6.96,-2.88 0.56,0 1.11,0.04 1.65,0.14 0.54,0.09 1.08,0.23 1.59,0.4 0.22,0.08 0.4,0.25 0.48,0.49 0.14,0.41 -0.07,0.86 -0.48,1 -1.64,0.57 -3.05,1.64 -4.03,3.03 -0.96,1.35 -1.53,3 -1.53,4.79 0,1.79 0.57,3.44 1.53,4.79 0.98,1.39 2.38,2.45 4,3.03 0.23,0.07 0.43,0.24 0.51,0.49 0.15,0.41 -0.07,0.86 -0.48,1 -0.5,0.17 -1.02,0.31 -1.55,0.4l-0.04 0.01c-0.54,0.09 -1.09,0.13 -1.65,0.13 -2.69,0 -5.14,-1.08 -6.91,-2.84l-0.05 -0.04c-1.79,-1.78 -2.89,-4.25 -2.89,-6.97 0,-2.72 1.1,-5.18 2.89,-6.97z"
   id="path9" />
 </g>
</svg>
