<?xml version="1.0" encoding="UTF-8" standalone="no"?>
<svg
   xmlns:dc="http://purl.org/dc/elements/1.1/"
   xmlns:cc="http://creativecommons.org/ns#"
   xmlns:rdf="http://www.w3.org/1999/02/22-rdf-syntax-ns#"
   xmlns:svg="http://www.w3.org/2000/svg"
   xmlns="http://www.w3.org/2000/svg"
   xmlns:sodipodi="http://sodipodi.sourceforge.net/DTD/sodipodi-0.dtd"
   xmlns:inkscape="http://www.inkscape.org/namespaces/inkscape"
   xml:space="preserve"
   width="24px"
   height="24px"
   version="1.0"
   style="shape-rendering:geometricPrecision; text-rendering:geometricPrecision; image-rendering:optimizeQuality; fill-rule:evenodd; clip-rule:evenodd"
   viewBox="0 0 9.77 9.77"
   id="svg12"
   sodipodi:docname="ic-check-faq.svg"><metadata
   id="metadata16"><rdf:RDF><cc:Work
       rdf:about=""><dc:format>image/svg+xml</dc:format><dc:type
         rdf:resource="http://purl.org/dc/dcmitype/StillImage" /></cc:Work></rdf:RDF></metadata><sodipodi:namedview
   pagecolor="#ffffff"
   bordercolor="#666666"
   borderopacity="1"
   objecttolerance="10"
   gridtolerance="10"
   guidetolerance="10"
   inkscape:pageopacity="0"
   inkscape:pageshadow="2"
   inkscape:window-width="640"
   inkscape:window-height="480"
   id="namedview14"
   inkscape:document-rotation="0" />
 <defs
   id="defs4">
  <style
   type="text/css"
   id="style2">
   <![CDATA[
    .fil1 {fill:none}
    .fil0 {fill:#5C6BDD;fill-rule:nonzero}
   ]]>
  </style>
 </defs>
 <g
   id="Слой_x0020_1">
  <metadata
   id="CorelCorpID_0Corel-Layer" />
  <path
   class="fil0"
   d="M4.88 0c1.07,0 2.04,0.43 2.74,1.13 0.7,0.7 1.13,1.67 1.13,2.73 0,1.07 -0.43,2.03 -1.13,2.73 -0.3,0.3 -0.66,0.56 -1.05,0.75 0.03,0.06 0.04,0.13 0.04,0.2l0 1.27c0,0.16 -0.06,0.3 -0.16,0.4 -0.11,0.1 -0.25,0.16 -0.4,0.16l-0.79 0 0 0.03c0,0.2 -0.17,0.37 -0.38,0.37 -0.2,0 -0.37,-0.17 -0.37,-0.37l0 -0.03 -0.79 0c-0.16,0 -0.3,-0.06 -0.4,-0.16 -0.1,-0.1 -0.16,-0.24 -0.16,-0.4l0 -1.27c0,-0.07 0.01,-0.14 0.04,-0.2 -0.39,-0.19 -0.75,-0.45 -1.05,-0.75 -0.7,-0.7 -1.13,-1.66 -1.13,-2.73 0,-1.06 0.43,-2.03 1.13,-2.73 0.7,-0.7 1.67,-1.13 2.73,-1.13zm0 4.27l0.58 -0.58c0.15,-0.14 0.39,-0.14 0.54,0 0.14,0.15 0.14,0.38 0,0.53l-0.74 0.73 0 2.01c0.71,-0.09 1.35,-0.41 1.82,-0.89 0.57,-0.57 0.92,-1.35 0.92,-2.21 0,-0.86 -0.35,-1.64 -0.92,-2.2 -0.56,-0.57 -1.34,-0.91 -2.2,-0.91 -0.86,0 -1.63,0.34 -2.2,0.91 -0.56,0.56 -0.91,1.34 -0.91,2.2 0,0.86 0.35,1.64 0.91,2.21 0.48,0.48 1.12,0.8 1.83,0.89l0 -2.01 -0.74 -0.73c-0.14,-0.15 -0.14,-0.38 0,-0.53 0.15,-0.14 0.39,-0.14 0.53,0l0.58 0.58zm0.98 3.46l-1.95 0 0 0.89 1.95 0 0 -0.89z"
   id="path7" />
  <rect
   class="fil1"
   width="9.77"
   height="9.77"
   id="rect9" />
 </g>
</svg>
