<?xml version="1.0" encoding="UTF-8" standalone="no"?>
<svg
   xmlns:dc="http://purl.org/dc/elements/1.1/"
   xmlns:cc="http://creativecommons.org/ns#"
   xmlns:rdf="http://www.w3.org/1999/02/22-rdf-syntax-ns#"
   xmlns:svg="http://www.w3.org/2000/svg"
   xmlns="http://www.w3.org/2000/svg"
   xmlns:sodipodi="http://sodipodi.sourceforge.net/DTD/sodipodi-0.dtd"
   xmlns:inkscape="http://www.inkscape.org/namespaces/inkscape"
   xml:space="preserve"
   width="24px"
   height="24px"
   version="1.0"
   style="shape-rendering:geometricPrecision; text-rendering:geometricPrecision; image-rendering:optimizeQuality; fill-rule:evenodd; clip-rule:evenodd"
   viewBox="0 0 8.31 8.31"
   id="svg14"
   sodipodi:docname="ic-check-locked.svg"><metadata
   id="metadata18"><rdf:RDF><cc:Work
       rdf:about=""><dc:format>image/svg+xml</dc:format><dc:type
         rdf:resource="http://purl.org/dc/dcmitype/StillImage" /></cc:Work></rdf:RDF></metadata><sodipodi:namedview
   pagecolor="#ffffff"
   bordercolor="#666666"
   borderopacity="1"
   objecttolerance="10"
   gridtolerance="10"
   guidetolerance="10"
   inkscape:pageopacity="0"
   inkscape:pageshadow="2"
   inkscape:window-width="640"
   inkscape:window-height="480"
   id="namedview16"
   inkscape:document-rotation="0" />
 <defs
   id="defs4">
  <style
   type="text/css"
   id="style2">
   <![CDATA[
    .fil1 {fill:none}
    .fil0 {fill:#F05A40;fill-rule:nonzero}
   ]]>
  </style>
 </defs>
 <g
   id="Слой_x0020_1">
  <metadata
   id="CorelCorpID_0Corel-Layer" />
  <path
   class="fil0"
   d="M2.21 2.87l0 -0.72c0,-0.54 0.22,-1.02 0.57,-1.38l0 0c0.35,-0.35 0.84,-0.57 1.38,-0.57 0.56,0 1.04,0.22 1.39,0.58 0.35,0.37 0.56,0.87 0.56,1.43l-0.62 0c0,-0.39 -0.14,-0.75 -0.39,-1 -0.23,-0.25 -0.56,-0.4 -0.94,-0.4 -0.37,0 -0.7,0.15 -0.95,0.4l0 0c-0.24,0.24 -0.39,0.57 -0.39,0.94l0 0.69 2.98 0c0.38,0 0.73,0.15 0.98,0.4l0 0c0.25,0.26 0.41,0.6 0.41,0.98l0 2.51c0,0.38 -0.16,0.73 -0.41,0.98l0 0c-0.25,0.25 -0.6,0.41 -0.98,0.41l-3.29 0c-0.38,0 -0.73,-0.16 -0.98,-0.41l-0.01 -0.02c-0.25,-0.25 -0.39,-0.59 -0.39,-0.96l0 -2.51c0,-0.38 0.15,-0.72 0.4,-0.98 0.19,-0.18 0.42,-0.31 0.68,-0.37zm1.62 1.36l0.66 0c0.16,0 0.31,0.07 0.41,0.18l0.03 0.02c0.09,0.11 0.15,0.24 0.15,0.4l0 1.41c0,0.16 -0.07,0.31 -0.18,0.41 -0.1,0.11 -0.25,0.18 -0.41,0.18l-0.66 0c-0.16,0 -0.31,-0.07 -0.42,-0.18l0 0c-0.11,-0.1 -0.17,-0.25 -0.17,-0.41l0 -1.41c0,-0.17 0.06,-0.31 0.17,-0.42l0 0c0.11,-0.11 0.26,-0.18 0.42,-0.18zm0.63 0.62l-0.61 0 0 1.36 0.61 0 0 -1.36zm1.34 -1.4l-3.29 0c-0.21,0 -0.4,0.09 -0.54,0.23l0 0c-0.14,0.14 -0.23,0.33 -0.23,0.54l0 2.51c0,0.2 0.08,0.39 0.21,0.53l0.02 0.01c0.14,0.14 0.33,0.23 0.54,0.23l3.29 0c0.21,0 0.41,-0.09 0.55,-0.23 0.14,-0.14 0.22,-0.33 0.22,-0.54l0 -2.51c0,-0.21 -0.08,-0.4 -0.22,-0.54 -0.14,-0.14 -0.34,-0.23 -0.55,-0.23z"
   id="path7" />
  <rect
   class="fil1"
   width="8.31"
   height="8.31"
   id="rect9" />
  <path
   class="fil0"
   d="M6.11 2.87l0 -0.72c0,-0.54 -0.22,-1.02 -0.57,-1.38l-0.01 0c-0.35,-0.35 -0.84,-0.57 -1.37,-0.57 -0.56,0 -1.04,0.22 -1.39,0.58 -0.35,0.37 -0.56,0.87 -0.56,1.43l0.61 0c0,-0.39 0.15,-0.75 0.39,-1 0.23,-0.25 0.56,-0.4 0.95,-0.4 0.36,0 0.7,0.15 0.94,0.4l0 0c0.24,0.24 0.39,0.57 0.39,0.94l0 0.69 -2.98 0c-0.38,0 -0.72,0.15 -0.98,0.4l0 0c-0.25,0.26 -0.4,0.6 -0.4,0.98l0 2.51c0,0.38 0.15,0.73 0.4,0.98l0 0c0.26,0.25 0.6,0.41 0.98,0.41l3.29 0c0.38,0 0.73,-0.16 0.98,-0.41l0.02 -0.02c0.24,-0.25 0.39,-0.59 0.39,-0.96l0 -2.51c0,-0.38 -0.16,-0.72 -0.41,-0.98 -0.18,-0.18 -0.41,-0.31 -0.67,-0.37zm-1.62 1.36l-0.66 0c-0.16,0 -0.31,0.07 -0.42,0.18l-0.02 0.02c-0.1,0.11 -0.15,0.24 -0.15,0.4l0 1.41c0,0.16 0.06,0.31 0.17,0.41 0.11,0.11 0.26,0.18 0.42,0.18l0.66 0c0.16,0 0.31,-0.07 0.41,-0.18l0 0c0.11,-0.1 0.18,-0.25 0.18,-0.41l0 -1.41c0,-0.17 -0.07,-0.31 -0.18,-0.42l0 0c-0.1,-0.11 -0.25,-0.18 -0.41,-0.18zm-0.64 0.62l0.61 0 0 1.36 -0.61 0 0 -1.36zm-1.34 -1.4l3.29 0c0.21,0 0.41,0.09 0.55,0.23l0 0c0.14,0.14 0.22,0.33 0.22,0.54l0 2.51c0,0.2 -0.08,0.39 -0.21,0.53l-0.01 0.01c-0.14,0.14 -0.34,0.23 -0.55,0.23l-3.29 0c-0.21,0 -0.4,-0.09 -0.54,-0.23 -0.14,-0.14 -0.23,-0.33 -0.23,-0.54l0 -2.51c0,-0.21 0.09,-0.4 0.23,-0.54 0.14,-0.14 0.33,-0.23 0.54,-0.23z"
   id="path11" />
 </g>
</svg>
