<?xml version="1.0" encoding="UTF-8" standalone="no"?>
<svg
   xmlns:dc="http://purl.org/dc/elements/1.1/"
   xmlns:cc="http://creativecommons.org/ns#"
   xmlns:rdf="http://www.w3.org/1999/02/22-rdf-syntax-ns#"
   xmlns:svg="http://www.w3.org/2000/svg"
   xmlns="http://www.w3.org/2000/svg"
   xmlns:sodipodi="http://sodipodi.sourceforge.net/DTD/sodipodi-0.dtd"
   xmlns:inkscape="http://www.inkscape.org/namespaces/inkscape"
   xml:space="preserve"
   width="24px"
   height="24px"
   version="1.0"
   style="shape-rendering:geometricPrecision; text-rendering:geometricPrecision; image-rendering:optimizeQuality; fill-rule:evenodd; clip-rule:evenodd"
   viewBox="0 0 2.93 2.93"
   id="svg14"
   sodipodi:docname="ic-check-sync.svg"><metadata
   id="metadata18"><rdf:RDF><cc:Work
       rdf:about=""><dc:format>image/svg+xml</dc:format><dc:type
         rdf:resource="http://purl.org/dc/dcmitype/StillImage" /></cc:Work></rdf:RDF></metadata><sodipodi:namedview
   pagecolor="#ffffff"
   bordercolor="#666666"
   borderopacity="1"
   objecttolerance="10"
   gridtolerance="10"
   guidetolerance="10"
   inkscape:pageopacity="0"
   inkscape:pageshadow="2"
   inkscape:window-width="640"
   inkscape:window-height="480"
   id="namedview16"
   inkscape:document-rotation="0" />
 <defs
   id="defs4">
  <style
   type="text/css"
   id="style2">
   <![CDATA[
    .fil1 {fill:none}
    .fil0 {fill:#F05A40;fill-rule:nonzero}
   ]]>
  </style>
 </defs>
 <g
   id="Слой_x0020_1">
  <metadata
   id="CorelCorpID_0Corel-Layer" />
  <path
   class="fil0"
   d="M2.8 1.5c0,0.37 -0.15,0.7 -0.39,0.94 -0.24,0.24 -0.58,0.39 -0.94,0.39 -0.37,0 -0.7,-0.15 -0.94,-0.39 -0.24,-0.24 -0.39,-0.57 -0.39,-0.94 0,-0.37 0.15,-0.7 0.39,-0.94 0.24,-0.24 0.57,-0.39 0.94,-0.39 0.17,0 0.33,0.03 0.48,0.09 0.16,0.06 0.3,0.15 0.42,0.26l-0.16 0.17c-0.1,-0.09 -0.22,-0.16 -0.34,-0.21 -0.13,-0.05 -0.26,-0.08 -0.4,-0.08 -0.3,0 -0.58,0.13 -0.78,0.32 -0.19,0.2 -0.32,0.48 -0.32,0.78 0,0.3 0.13,0.57 0.32,0.77 0.2,0.2 0.48,0.32 0.78,0.32 0.3,0 0.57,-0.12 0.77,-0.32 0.2,-0.2 0.32,-0.47 0.32,-0.77l0.24 0z"
   id="path7" />
  <polygon
   class="fil0"
   points="2.34,0.08 2.51,0.72 1.87,0.89 1.81,0.66 2.22,0.55 2.11,0.14 "
   id="polygon9" />
  <rect
   class="fil1"
   width="2.93"
   height="2.93"
   id="rect11" />
 </g>
</svg>
