<?xml version="1.0" encoding="UTF-8" standalone="no"?>
<svg
   xmlns:dc="http://purl.org/dc/elements/1.1/"
   xmlns:cc="http://creativecommons.org/ns#"
   xmlns:rdf="http://www.w3.org/1999/02/22-rdf-syntax-ns#"
   xmlns:svg="http://www.w3.org/2000/svg"
   xmlns="http://www.w3.org/2000/svg"
   xmlns:sodipodi="http://sodipodi.sourceforge.net/DTD/sodipodi-0.dtd"
   xmlns:inkscape="http://www.inkscape.org/namespaces/inkscape"
   xml:space="preserve"
   width="24px"
   height="24px"
   version="1.0"
   style="shape-rendering:geometricPrecision; text-rendering:geometricPrecision; image-rendering:optimizeQuality; fill-rule:evenodd; clip-rule:evenodd"
   viewBox="0 0 7.34 7.34"
   id="svg12"
   sodipodi:docname="ic-check-theme-light.svg"><metadata
   id="metadata16"><rdf:RDF><cc:Work
       rdf:about=""><dc:format>image/svg+xml</dc:format><dc:type
         rdf:resource="http://purl.org/dc/dcmitype/StillImage" /></cc:Work></rdf:RDF></metadata><sodipodi:namedview
   pagecolor="#ffffff"
   bordercolor="#666666"
   borderopacity="1"
   objecttolerance="10"
   gridtolerance="10"
   guidetolerance="10"
   inkscape:pageopacity="0"
   inkscape:pageshadow="2"
   inkscape:window-width="640"
   inkscape:window-height="480"
   id="namedview14"
   inkscape:document-rotation="0" />
 <defs
   id="defs4">
  <style
   type="text/css"
   id="style2">
   <![CDATA[
    .fil0 {fill:none}
    .fil1 {fill:#5C6BDD;fill-rule:nonzero}
   ]]>
  </style>
 </defs>
 <g
   id="Слой_x0020_1">
  <metadata
   id="CorelCorpID_0Corel-Layer" />
  <rect
   class="fil0"
   width="7.34"
   height="7.34"
   id="rect7" />
  <path
   class="fil1"
   d="M1.28 1.59c-0.11,-0.1 -0.11,-0.27 0,-0.38 0.1,-0.1 0.27,-0.1 0.38,0l1.02 1.02c0.21,-0.16 0.47,-0.27 0.75,-0.32l0 -1.48c0,-0.14 0.12,-0.27 0.27,-0.27 0.15,0 0.27,0.13 0.27,0.27l0 1.47c0.29,0.04 0.56,0.15 0.78,0.31l1 -1c0.1,-0.1 0.27,-0.1 0.38,0 0.1,0.11 0.1,0.28 0,0.38l-0.99 0.99c0.18,0.22 0.3,0.49 0.35,0.79l1.42 0c0.15,0 0.27,0.12 0.27,0.27 0,0.15 -0.12,0.27 -0.27,0.27l-1.41 0c-0.04,0.3 -0.16,0.58 -0.33,0.82l1.02 1.02c0.1,0.1 0.1,0.27 0,0.38 -0.1,0.1 -0.27,0.1 -0.38,0l-1.02 -1.02c-0.24,0.17 -0.52,0.29 -0.82,0.33l0 1.4c0,0.15 -0.12,0.27 -0.27,0.27 -0.15,0 -0.27,-0.12 -0.27,-0.27l0 -1.41c-0.29,-0.05 -0.56,-0.17 -0.79,-0.35l-1.05 1.05c-0.1,0.1 -0.27,0.1 -0.38,0 -0.1,-0.11 -0.1,-0.28 0,-0.38l1.06 -1.06c-0.16,-0.23 -0.27,-0.49 -0.31,-0.78l-1.46 0c-0.15,0 -0.27,-0.12 -0.27,-0.27 0,-0.15 0.12,-0.27 0.27,-0.27l1.47 0c0.05,-0.28 0.16,-0.54 0.33,-0.76l-1.02 -1.02zm3.33 1.2c-0.22,-0.23 -0.53,-0.36 -0.88,-0.36 -0.34,0 -0.65,0.13 -0.88,0.36 -0.22,0.22 -0.36,0.54 -0.36,0.88 0,0.34 0.14,0.66 0.36,0.88 0.22,0.22 0.52,0.35 0.84,0.36l0.01 0 0 0 0.01 0 0.01 0.01 0 0 0.01 0c0.35,0 0.66,-0.14 0.88,-0.37 0.23,-0.22 0.37,-0.54 0.37,-0.88 0,-0.34 -0.14,-0.66 -0.37,-0.88z"
   id="path9" />
 </g>
</svg>
