<?xml version="1.0" encoding="UTF-8" standalone="no"?>
<svg
   xmlns:dc="http://purl.org/dc/elements/1.1/"
   xmlns:cc="http://creativecommons.org/ns#"
   xmlns:rdf="http://www.w3.org/1999/02/22-rdf-syntax-ns#"
   xmlns:svg="http://www.w3.org/2000/svg"
   xmlns="http://www.w3.org/2000/svg"
   xmlns:sodipodi="http://sodipodi.sourceforge.net/DTD/sodipodi-0.dtd"
   xmlns:inkscape="http://www.inkscape.org/namespaces/inkscape"
   xml:space="preserve"
   width="24px"
   height="24px"
   version="1.0"
   style="shape-rendering:geometricPrecision; text-rendering:geometricPrecision; image-rendering:optimizeQuality; fill-rule:evenodd; clip-rule:evenodd"
   viewBox="0 0 11.74 11.74"
   id="svg14"
   sodipodi:docname="ic-check-connect-off.svg"><metadata
   id="metadata18"><rdf:RDF><cc:Work
       rdf:about=""><dc:format>image/svg+xml</dc:format><dc:type
         rdf:resource="http://purl.org/dc/dcmitype/StillImage" /></cc:Work></rdf:RDF></metadata><sodipodi:namedview
   pagecolor="#ffffff"
   bordercolor="#666666"
   borderopacity="1"
   objecttolerance="10"
   gridtolerance="10"
   guidetolerance="10"
   inkscape:pageopacity="0"
   inkscape:pageshadow="2"
   inkscape:window-width="640"
   inkscape:window-height="480"
   id="namedview16"
   inkscape:document-rotation="0" />
 <defs
   id="defs4">
  <style
   type="text/css"
   id="style2">
   <![CDATA[
    .fil0 {fill:none}
    .fil1 {fill:#5C6BDD}
   ]]>
  </style>
 </defs>
 <g
   id="Слой_x0020_1">
  <metadata
   id="CorelCorpID_0Corel-Layer" />
  <rect
   class="fil0"
   width="11.74"
   height="11.74"
   id="rect7" />
  <path
   class="fil1"
   d="M11.74 4.45l-0.8 0.63c-0.16,-0.19 -0.32,-0.38 -0.5,-0.56 -1.17,-1.16 -2.79,-1.89 -4.57,-1.89 -1.78,0 -3.4,0.73 -4.57,1.89 -0.17,0.18 -0.34,0.37 -0.5,0.56l-0.8 -0.63c0.18,-0.23 0.37,-0.45 0.58,-0.65 1.35,-1.35 3.23,-2.19 5.29,-2.19 2.07,0 3.94,0.84 5.29,2.19 0.21,0.2 0.4,0.42 0.58,0.65zm-1.74 1.37l-0.8 0.64c-0.1,-0.13 -0.21,-0.25 -0.33,-0.37 -0.76,-0.77 -1.83,-1.24 -3,-1.24 -1.17,0 -2.22,0.47 -2.99,1.23l-0.01 0.01c-0.12,0.11 -0.23,0.24 -0.33,0.37l-0.8 -0.64c0.13,-0.16 0.26,-0.31 0.41,-0.45l0.01 -0.01c0.95,-0.95 2.26,-1.54 3.71,-1.54 1.45,0 2.77,0.59 3.73,1.55 0.14,0.14 0.28,0.29 0.4,0.45zm-1.72 1.36l-0.8 0.64c-0.05,-0.06 -0.1,-0.12 -0.16,-0.18 -0.37,-0.37 -0.88,-0.6 -1.45,-0.6 -0.56,0 -1.07,0.23 -1.44,0.59l-0.01 0.01c-0.06,0.05 -0.11,0.12 -0.16,0.18l-0.8 -0.63c0.07,-0.1 0.15,-0.19 0.24,-0.27l0.01 -0.01c0.55,-0.55 1.32,-0.89 2.16,-0.89 0.85,0 1.62,0.34 2.17,0.9 0.09,0.08 0.17,0.17 0.24,0.26z"
   id="path9" />
  <circle
   class="fil1"
   cx="5.87"
   cy="9.09"
   r="0.81"
   id="circle11" />
 </g>
</svg>
