<?xml version="1.0" encoding="UTF-8" standalone="no"?>
<svg
   xmlns:dc="http://purl.org/dc/elements/1.1/"
   xmlns:cc="http://creativecommons.org/ns#"
   xmlns:rdf="http://www.w3.org/1999/02/22-rdf-syntax-ns#"
   xmlns:svg="http://www.w3.org/2000/svg"
   xmlns="http://www.w3.org/2000/svg"
   xmlns:sodipodi="http://sodipodi.sourceforge.net/DTD/sodipodi-0.dtd"
   xmlns:inkscape="http://www.inkscape.org/namespaces/inkscape"
   id="ic_information"
   viewBox="0 0 30 30"
   version="1.1"
   sodipodi:docname="ic-information.svg">
  <metadata
     id="metadata15">
    <rdf:RDF>
      <cc:Work
         rdf:about="">
        <dc:format>image/svg+xml</dc:format>
        <dc:type
           rdf:resource="http://purl.org/dc/dcmitype/StillImage" />
      </cc:Work>
    </rdf:RDF>
  </metadata>
  <sodipodi:namedview
     pagecolor="#ffffff"
     bordercolor="#666666"
     borderopacity="1"
     objecttolerance="10"
     gridtolerance="10"
     guidetolerance="10"
     inkscape:pageopacity="0"
     inkscape:pageshadow="2"
     inkscape:window-width="640"
     inkscape:window-height="480"
     id="namedview13"
     inkscape:document-rotation="0" />
  <defs
     id="defs4">
    <style
       type="text/css"
       id="style2">
            .cls-1{fill:#707070}.cls-2{fill:none}
        </style>
  </defs>
  <g
     id="Group_8281"
     data-name="Group 8281">
    <path
       id="Path_18409"
       d="M15 28a13 13 0 1 1 13-13 12.974 12.974 0 0 1-13 13zm0-24a11 11 0 1 0 11 11A10.968 10.968 0 0 0 15 4z"
       class="cls-1"
       data-name="Path 18409" />
  </g>
  <path
     id="Rectangle_3651"
     d="M0 0h30v30H0z"
     class="cls-2"
     data-name="Rectangle 3651" />
  <g
     id="Group_8282"
     data-name="Group 8282">
    <path
       id="Path_18410"
       d="M15 7a4.951 4.951 0 0 0-5 5 .945.945 0 0 0 1 1 .945.945 0 0 0 1-1 3 3 0 0 1 6 0 1.578 1.578 0 0 1-.5 1.3c-.4.3-1.1.9-1.7 1.3l-.8.7a2.865 2.865 0 0 0-1 2.2V19a.945.945 0 0 0 1 1h1v-2.5a.845.845 0 0 1 .2-.6l.8-.7c.6-.5 1.3-1 1.7-1.3A3.626 3.626 0 0 0 20 12a4.951 4.951 0 0 0-5-5z"
       class="cls-1"
       data-name="Path 18410" />
    <path
       id="Path_18411"
       d="M15 21a1 1 0 0 0 0 2h1v-1a.945.945 0 0 0-1-1z"
       class="cls-1"
       data-name="Path 18411" />
  </g>
</svg>
