<?xml version="1.0" encoding="UTF-8" standalone="no"?>
<svg
   xmlns:dc="http://purl.org/dc/elements/1.1/"
   xmlns:cc="http://creativecommons.org/ns#"
   xmlns:rdf="http://www.w3.org/1999/02/22-rdf-syntax-ns#"
   xmlns:svg="http://www.w3.org/2000/svg"
   xmlns="http://www.w3.org/2000/svg"
   xmlns:sodipodi="http://sodipodi.sourceforge.net/DTD/sodipodi-0.dtd"
   xmlns:inkscape="http://www.inkscape.org/namespaces/inkscape"
   xml:space="preserve"
   width="21px"
   height="22px"
   version="1.0"
   style="shape-rendering:geometricPrecision; text-rendering:geometricPrecision; image-rendering:optimizeQuality; fill-rule:evenodd; clip-rule:evenodd"
   viewBox="0 0 7.34 7.72"
   id="svg26"
   sodipodi:docname="ic-nav-send.svg"><metadata
   id="metadata30"><rdf:RDF><cc:Work
       rdf:about=""><dc:format>image/svg+xml</dc:format><dc:type
         rdf:resource="http://purl.org/dc/dcmitype/StillImage" /></cc:Work></rdf:RDF></metadata><sodipodi:namedview
   pagecolor="#ffffff"
   bordercolor="#666666"
   borderopacity="1"
   objecttolerance="10"
   gridtolerance="10"
   guidetolerance="10"
   inkscape:pageopacity="0"
   inkscape:pageshadow="2"
   inkscape:window-width="640"
   inkscape:window-height="480"
   id="namedview28"
   inkscape:document-rotation="0" />
 <defs
   id="defs4">
  <style
   type="text/css"
   id="style2">
   <![CDATA[
    .fil0 {fill:#6172F2;fill-rule:nonzero}
   ]]>
  </style>
 </defs>
 <g
   id="Слой_x0020_1">
  <metadata
   id="CorelCorpID_0Corel-Layer" />
  <path
   class="fil0"
   d="M1 5.34c0.07,0.11 0.04,0.25 -0.07,0.31 -0.11,0.07 -0.25,0.04 -0.31,-0.07 -0.36,-0.56 -0.55,-1.21 -0.56,-1.87 -0.01,-0.64 0.14,-1.29 0.49,-1.89 0.5,-0.87 1.31,-1.45 2.21,-1.69 0.9,-0.25 1.89,-0.14 2.76,0.36 0.87,0.5 1.46,1.31 1.7,2.21l0 0.01c0.24,0.89 0.14,1.89 -0.36,2.75 -0.35,0.61 -0.85,1.07 -1.41,1.38 -0.59,0.32 -1.26,0.48 -1.93,0.44 -0.13,0 -0.22,-0.11 -0.22,-0.24 0.01,-0.12 0.11,-0.22 0.24,-0.21 0.59,0.03 1.17,-0.11 1.69,-0.39 0.5,-0.27 0.93,-0.67 1.23,-1.2 0.44,-0.77 0.53,-1.63 0.32,-2.42 -0.21,-0.79 -0.72,-1.5 -1.48,-1.94 -0.77,-0.44 -1.64,-0.53 -2.42,-0.32 -0.79,0.21 -1.5,0.73 -1.94,1.49 -0.3,0.52 -0.44,1.09 -0.43,1.65 0.01,0.58 0.18,1.15 0.49,1.64z"
   id="path7" />
  <path
   class="fil0"
   d="M5.51 4.86c0.07,-0.1 0.21,-0.13 0.32,-0.05 0.1,0.07 0.12,0.21 0.05,0.31l-0.04 0.07c-0.08,0.1 -0.22,0.12 -0.32,0.05 -0.1,-0.07 -0.13,-0.21 -0.06,-0.31l0.05 -0.07zm-0.56 0.57c0.11,-0.07 0.25,-0.05 0.32,0.05 0.07,0.11 0.05,0.25 -0.06,0.32 -0.29,0.2 -0.62,0.35 -0.97,0.42 -0.33,0.07 -0.69,0.08 -1.05,0.01 -0.71,-0.14 -1.3,-0.56 -1.68,-1.12l-0.01 -0.02c-0.37,-0.55 -0.52,-1.25 -0.38,-1.96 0.14,-0.71 0.55,-1.3 1.11,-1.67 0.56,-0.38 1.27,-0.54 1.98,-0.4 0.71,0.14 1.3,0.56 1.68,1.12 0.37,0.56 0.54,1.26 0.39,1.97 -0.02,0.13 -0.14,0.21 -0.26,0.18 -0.13,-0.02 -0.21,-0.14 -0.18,-0.26 0.12,-0.59 -0.02,-1.18 -0.33,-1.64 -0.31,-0.46 -0.8,-0.81 -1.39,-0.92 -0.59,-0.12 -1.17,0.01 -1.63,0.32 -0.47,0.31 -0.81,0.8 -0.93,1.39 -0.11,0.59 0.02,1.16 0.32,1.62l0.01 0.02c0.31,0.46 0.8,0.81 1.39,0.92 0.3,0.06 0.59,0.06 0.87,0 0.29,-0.06 0.57,-0.18 0.8,-0.35z"
   id="path9" />
  <path
   class="fil0"
   d="M2.65 3.3c-0.11,-0.06 -0.15,-0.2 -0.08,-0.31 0.06,-0.11 0.2,-0.15 0.31,-0.08l1.87 1.08c0.11,0.06 0.15,0.2 0.09,0.31 -0.07,0.11 -0.21,0.14 -0.31,0.08l-1.88 -1.08z"
   id="path11" />
  <path
   class="fil0"
   d="M3.36 4.69c-0.07,0.11 -0.21,0.15 -0.31,0.09 -0.11,-0.06 -0.15,-0.2 -0.09,-0.31l1.09 -1.88c0.06,-0.11 0.2,-0.14 0.31,-0.08 0.1,0.06 0.14,0.2 0.08,0.31l-1.08 1.87z"
   id="path13" />
  <path
   class="fil0"
   d="M2.71 4.14c-0.12,0.04 -0.24,-0.04 -0.27,-0.16 -0.04,-0.12 0.04,-0.24 0.16,-0.28l2.09 -0.56c0.12,-0.03 0.24,0.04 0.28,0.16 0.03,0.13 -0.04,0.25 -0.16,0.28l-2.1 0.56z"
   id="path15" />
  <path
   class="fil0"
   d="M4.2 4.63c0.03,0.12 -0.04,0.25 -0.16,0.28 -0.12,0.03 -0.25,-0.04 -0.28,-0.16l-0.56 -2.09c-0.03,-0.12 0.04,-0.25 0.16,-0.28 0.12,-0.03 0.25,0.04 0.28,0.16l0.56 2.09z"
   id="path17" />
  <path
   class="fil0"
   d="M2.22 7.5c-0.09,0.09 -0.24,0.08 -0.32,0 -0.09,-0.09 -0.09,-0.24 -0.01,-0.32l0.48 -0.48c0.09,-0.08 0.23,-0.08 0.32,0.01 0.09,0.08 0.09,0.23 0,0.31l-0.47 0.48z"
   id="path19" />
  <path
   class="fil0"
   d="M0.47 6.19c-0.09,0.09 -0.23,0.09 -0.32,0 -0.09,-0.09 -0.09,-0.23 0,-0.32l0.69 -0.69c0.09,-0.09 0.23,-0.09 0.32,0 0.09,0.09 0.09,0.23 0,0.32l-0.69 0.69z"
   id="path21" />
  <path
   class="fil0"
   d="M0.39 7.65c-0.09,0.09 -0.23,0.09 -0.32,0 -0.09,-0.09 -0.09,-0.23 0,-0.32l1.46 -1.46c0.09,-0.09 0.23,-0.09 0.32,0 0.09,0.09 0.09,0.23 0,0.32l-1.46 1.46z"
   id="path23" />
 </g>
</svg>
