<?xml version="1.0" encoding="UTF-8" standalone="no"?>
<svg
   xmlns:dc="http://purl.org/dc/elements/1.1/"
   xmlns:cc="http://creativecommons.org/ns#"
   xmlns:rdf="http://www.w3.org/1999/02/22-rdf-syntax-ns#"
   xmlns:svg="http://www.w3.org/2000/svg"
   xmlns="http://www.w3.org/2000/svg"
   xmlns:sodipodi="http://sodipodi.sourceforge.net/DTD/sodipodi-0.dtd"
   xmlns:inkscape="http://www.inkscape.org/namespaces/inkscape"
   xml:space="preserve"
   width="23px"
   height="21px"
   version="1.0"
   style="shape-rendering:geometricPrecision; text-rendering:geometricPrecision; image-rendering:optimizeQuality; fill-rule:evenodd; clip-rule:evenodd"
   viewBox="0 0 16.24 15.1"
   id="svg10"
   sodipodi:docname="ic-nav-receive-active.svg"><metadata
   id="metadata14"><rdf:RDF><cc:Work
       rdf:about=""><dc:format>image/svg+xml</dc:format><dc:type
         rdf:resource="http://purl.org/dc/dcmitype/StillImage" /></cc:Work></rdf:RDF></metadata><sodipodi:namedview
   pagecolor="#ffffff"
   bordercolor="#666666"
   borderopacity="1"
   objecttolerance="10"
   gridtolerance="10"
   guidetolerance="10"
   inkscape:pageopacity="0"
   inkscape:pageshadow="2"
   inkscape:window-width="640"
   inkscape:window-height="480"
   id="namedview12"
   inkscape:document-rotation="0" />
 <defs
   id="defs4">
  <style
   type="text/css"
   id="style2">
   <![CDATA[
    .fil0 {fill:white;fill-rule:nonzero}
   ]]>
  </style>
 </defs>
 <g
   id="Слой_x0020_1">
  <metadata
   id="CorelCorpID_0Corel-Layer" />
  <path
   class="fil0"
   d="M5.77 8.43c-0.27,0 -0.5,-0.22 -0.5,-0.49 0,-0.28 0.23,-0.5 0.5,-0.5l1.16 0 -0.82 -0.82c-0.19,-0.19 -0.19,-0.51 0,-0.7 0.19,-0.19 0.51,-0.19 0.7,0l0.82 0.82 0 -1.16c0,-0.28 0.22,-0.5 0.5,-0.5 0.27,0 0.49,0.22 0.49,0.5l0 1.16 0.83 -0.82c0.19,-0.19 0.5,-0.19 0.7,0 0.19,0.19 0.19,0.51 0,0.7l-0.83 0.82 1.17 0c0.27,0 0.49,0.22 0.49,0.5 0,0.27 -0.22,0.49 -0.49,0.49l-1.17 0 0.83 0.82c0.19,0.2 0.19,0.51 0,0.71 -0.2,0.19 -0.51,0.19 -0.7,0l-0.83 -0.83 0 1.17c0,0.27 -0.22,0.49 -0.49,0.49 -0.28,0 -0.5,-0.22 -0.5,-0.49l0 -1.17 -0.82 0.83c-0.19,0.19 -0.51,0.19 -0.7,0 -0.19,-0.2 -0.19,-0.51 0,-0.71l0.82 -0.82 -1.16 0zm-2.02 -2.33c-0.11,0.25 -0.4,0.36 -0.65,0.25 -0.25,-0.11 -0.37,-0.4 -0.26,-0.65l0.07 -0.16c0.11,-0.25 0.41,-0.36 0.66,-0.25 0.24,0.11 0.36,0.4 0.25,0.65l-0.07 0.16zm0.95 -1.45c-0.19,0.2 -0.51,0.21 -0.7,0.02 -0.2,-0.19 -0.2,-0.51 -0.02,-0.7 0.54,-0.56 1.18,-1.01 1.9,-1.31 0.69,-0.3 1.45,-0.46 2.25,-0.46 1.58,0 3.02,0.64 4.06,1.68l0.03 0.03c1.02,1.04 1.65,2.46 1.65,4.03 0,1.58 -0.65,3.02 -1.68,4.05 -1.04,1.04 -2.48,1.68 -4.06,1.68 -1.58,0 -3.02,-0.64 -4.06,-1.68 -1.04,-1.03 -1.68,-2.47 -1.68,-4.05 0,-0.28 0.22,-0.5 0.49,-0.5 0.28,0 0.5,0.22 0.5,0.5 0,1.31 0.53,2.5 1.39,3.35 0.86,0.86 2.05,1.39 3.36,1.39 1.31,0 2.5,-0.53 3.36,-1.39 0.85,-0.85 1.39,-2.04 1.39,-3.35 0,-1.3 -0.52,-2.48 -1.36,-3.33l-0.03 -0.03c-0.86,-0.86 -2.05,-1.39 -3.36,-1.39 -0.67,0 -1.3,0.13 -1.87,0.38 -0.59,0.25 -1.12,0.62 -1.56,1.08zm-1.63 9.4c-0.27,-0.22 -0.53,-0.47 -0.78,-0.73l-0.95 0c-0.07,0 -0.13,0.03 -0.18,0.07l-0.01 0.02c-0.07,0.07 -0.11,0.16 -0.11,0.28 0,0.1 0.04,0.19 0.1,0.26l0.01 0.01c0.05,0.06 0.12,0.09 0.19,0.09l1.73 0zm-1.59 -1.78c-0.05,-0.08 -0.1,-0.16 -0.15,-0.24 -0.72,-1.2 -1.14,-2.6 -1.14,-4.09 0,-2.19 0.89,-4.18 2.33,-5.61 1.43,-1.44 3.42,-2.33 5.61,-2.33 2.19,0 4.17,0.89 5.61,2.32l0.01 0.01c1.43,1.44 2.31,3.42 2.31,5.61 0,1.51 -0.42,2.93 -1.16,4.13 -0.04,0.07 -0.08,0.14 -0.13,0.2l0.13 0c0.38,0 0.72,0.17 0.96,0.43 0.24,0.26 0.38,0.61 0.38,0.99 0,0.37 -0.14,0.72 -0.38,0.97 -0.24,0.27 -0.58,0.44 -0.96,0.44l-13.56 0c-0.37,0 -0.72,-0.17 -0.96,-0.43l-0.03 -0.03c-0.21,-0.26 -0.35,-0.59 -0.35,-0.95 0,-0.38 0.14,-0.73 0.38,-0.99l0.03 -0.02c0.24,-0.25 0.57,-0.41 0.93,-0.41l0.14 0zm12.48 1.05c-0.24,0.26 -0.5,0.51 -0.78,0.73l1.72 0c0.08,0 0.15,-0.03 0.2,-0.09 0.06,-0.07 0.1,-0.16 0.1,-0.27 0,-0.12 -0.04,-0.21 -0.1,-0.28 -0.05,-0.06 -0.12,-0.09 -0.2,-0.09l-0.94 0zm-2.53 0.73c1.08,-0.58 1.99,-1.45 2.63,-2.49 0.64,-1.06 1.01,-2.3 1.01,-3.62 0,-1.92 -0.77,-3.66 -2.03,-4.92 -1.26,-1.25 -2.99,-2.03 -4.91,-2.03 -1.92,0 -3.66,0.78 -4.91,2.03 -1.26,1.26 -2.04,3 -2.04,4.92 0,1.31 0.36,2.53 0.99,3.58 0.64,1.06 1.56,1.94 2.66,2.53l6.6 0z"
   id="path7" />
 </g>
</svg>
