<?xml version="1.0" encoding="UTF-8" standalone="no"?>
<svg
   xmlns:dc="http://purl.org/dc/elements/1.1/"
   xmlns:cc="http://creativecommons.org/ns#"
   xmlns:rdf="http://www.w3.org/1999/02/22-rdf-syntax-ns#"
   xmlns:svg="http://www.w3.org/2000/svg"
   xmlns="http://www.w3.org/2000/svg"
   xmlns:sodipodi="http://sodipodi.sourceforge.net/DTD/sodipodi-0.dtd"
   xmlns:inkscape="http://www.inkscape.org/namespaces/inkscape"
   xml:space="preserve"
   width="21px"
   height="21px"
   version="1.0"
   style="shape-rendering:geometricPrecision; text-rendering:geometricPrecision; image-rendering:optimizeQuality; fill-rule:evenodd; clip-rule:evenodd"
   viewBox="0 0 16.92 16.62"
   id="svg10"
   sodipodi:docname="ic-nav-address-hover.svg"><metadata
   id="metadata14"><rdf:RDF><cc:Work
       rdf:about=""><dc:format>image/svg+xml</dc:format><dc:type
         rdf:resource="http://purl.org/dc/dcmitype/StillImage" /></cc:Work></rdf:RDF></metadata><sodipodi:namedview
   pagecolor="#ffffff"
   bordercolor="#666666"
   borderopacity="1"
   objecttolerance="10"
   gridtolerance="10"
   guidetolerance="10"
   inkscape:pageopacity="0"
   inkscape:pageshadow="2"
   inkscape:window-width="640"
   inkscape:window-height="480"
   id="namedview12"
   inkscape:document-rotation="0" />
 <defs
   id="defs4">
  <style
   type="text/css"
   id="style2">
   <![CDATA[
    .fil0 {fill:#8390F2;fill-rule:nonzero}
   ]]>
  </style>
 </defs>
 <g
   id="Слой_x0020_1">
  <metadata
   id="CorelCorpID_0Corel-Layer" />
  <path
   class="fil0"
   d="M1.09 16.07c0,0.3 -0.24,0.55 -0.54,0.55 -0.31,0 -0.55,-0.25 -0.55,-0.55 0,-0.99 0.4,-1.89 1.05,-2.53l0.04 -0.04c0.64,-0.63 1.53,-1.01 2.5,-1.01 0.29,0 0.59,0.03 0.87,0.1 0.23,0.06 0.45,0.14 0.65,0.24 0.27,-0.46 0.6,-0.87 0.97,-1.24 1.15,-1.16 2.74,-1.87 4.49,-1.87 1.75,0 3.34,0.71 4.49,1.86 1.15,1.15 1.86,2.74 1.86,4.49 0,0.3 -0.24,0.55 -0.55,0.55 -0.3,0 -0.54,-0.25 -0.54,-0.55 0,-1.45 -0.59,-2.76 -1.53,-3.71l-0.01 0c-0.95,-0.96 -2.27,-1.54 -3.72,-1.54 -1.45,0 -2.76,0.58 -3.71,1.53l-0.01 0c-0.95,0.95 -1.54,2.27 -1.54,3.72 0,0.3 -0.24,0.55 -0.54,0.55 -0.3,0 -0.55,-0.25 -0.55,-0.55 0,-0.79 0.15,-1.56 0.42,-2.26 -0.14,-0.07 -0.29,-0.12 -0.44,-0.16 -0.19,-0.05 -0.4,-0.07 -0.61,-0.07 -0.68,0 -1.29,0.26 -1.74,0.7l-0.03 0.03c-0.45,0.45 -0.73,1.07 -0.73,1.76zm2.5 -9.03c0.69,0 1.31,0.28 1.76,0.73 0.45,0.45 0.74,1.07 0.74,1.76 0,0.69 -0.29,1.32 -0.74,1.77 -0.45,0.45 -1.07,0.73 -1.76,0.73 -0.69,0 -1.32,-0.28 -1.77,-0.73 -0.45,-0.45 -0.73,-1.08 -0.73,-1.77 0,-0.68 0.28,-1.31 0.73,-1.76 0.45,-0.45 1.08,-0.73 1.77,-0.73zm0.99 1.5c-0.25,-0.25 -0.61,-0.41 -0.99,-0.41 -0.39,0 -0.74,0.16 -1,0.41 -0.25,0.25 -0.41,0.61 -0.41,0.99 0,0.39 0.16,0.74 0.41,1 0.26,0.25 0.61,0.41 1,0.41 0.38,0 0.74,-0.16 0.99,-0.41 0.25,-0.26 0.41,-0.61 0.41,-1 0,-0.38 -0.16,-0.74 -0.41,-0.99zm5.99 -8.54c1.18,0 2.25,0.48 3.02,1.25l0.04 0.04c0.75,0.77 1.21,1.82 1.21,2.98 0,1.18 -0.48,2.25 -1.25,3.02 -0.77,0.77 -1.84,1.25 -3.02,1.25 -1.18,0 -2.25,-0.48 -3.02,-1.25 -0.77,-0.77 -1.25,-1.84 -1.25,-3.02 0,-1.18 0.48,-2.25 1.25,-3.02l0.04 -0.04c0.77,-0.75 1.82,-1.21 2.98,-1.21zm2.25 2.02c-0.58,-0.57 -1.37,-0.93 -2.25,-0.93 -0.86,0 -1.64,0.35 -2.22,0.9l-0.03 0.03c-0.57,0.58 -0.93,1.37 -0.93,2.25 0,0.88 0.36,1.68 0.93,2.25 0.58,0.57 1.37,0.93 2.25,0.93 0.88,0 1.67,-0.36 2.25,-0.93 0.57,-0.57 0.93,-1.37 0.93,-2.25 0,-0.86 -0.34,-1.64 -0.9,-2.21l-0.03 -0.04z"
   id="path7" />
 </g>
</svg>
