<?xml version="1.0" encoding="UTF-8" standalone="no"?>
<svg
   xmlns:dc="http://purl.org/dc/elements/1.1/"
   xmlns:cc="http://creativecommons.org/ns#"
   xmlns:rdf="http://www.w3.org/1999/02/22-rdf-syntax-ns#"
   xmlns:svg="http://www.w3.org/2000/svg"
   xmlns="http://www.w3.org/2000/svg"
   xmlns:sodipodi="http://sodipodi.sourceforge.net/DTD/sodipodi-0.dtd"
   xmlns:inkscape="http://www.inkscape.org/namespaces/inkscape"
   xml:space="preserve"
   width="19px"
   height="21px"
   version="1.0"
   style="shape-rendering:geometricPrecision; text-rendering:geometricPrecision; image-rendering:optimizeQuality; fill-rule:evenodd; clip-rule:evenodd"
   viewBox="0 0 1.68 1.89"
   id="svg10"
   sodipodi:docname="ic-nav-multimining-hover.svg"><metadata
   id="metadata14"><rdf:RDF><cc:Work
       rdf:about=""><dc:format>image/svg+xml</dc:format><dc:type
         rdf:resource="http://purl.org/dc/dcmitype/StillImage" /></cc:Work></rdf:RDF></metadata><sodipodi:namedview
   pagecolor="#ffffff"
   bordercolor="#666666"
   borderopacity="1"
   objecttolerance="10"
   gridtolerance="10"
   guidetolerance="10"
   inkscape:pageopacity="0"
   inkscape:pageshadow="2"
   inkscape:window-width="640"
   inkscape:window-height="480"
   id="namedview12"
   inkscape:document-rotation="0" />
 <defs
   id="defs4">
  <style
   type="text/css"
   id="style2">
   <![CDATA[
    .fil0 {fill:#8390F2;fill-rule:nonzero}
   ]]>
  </style>
 </defs>
 <g
   id="Слой_x0020_1">
  <metadata
   id="CorelCorpID_0Corel-Layer" />
  <path
   class="fil0"
   d="M1 0.19l0.09 0.05 0 0 0.12 0.07 0 0 0.21 0.12c0.03,-0.03 0.06,-0.04 0.1,-0.04 0.04,0 0.09,0.02 0.12,0.05l0 0c0.02,0.03 0.04,0.07 0.04,0.11 0,0.05 -0.02,0.09 -0.04,0.12 -0.02,0.02 -0.04,0.03 -0.06,0.04l0 0.48c0.02,0 0.04,0.02 0.06,0.03 0.02,0.03 0.04,0.07 0.04,0.12 0,0.04 -0.02,0.08 -0.04,0.11l0 0c-0.03,0.03 -0.08,0.05 -0.12,0.05 -0.04,0 -0.07,-0.01 -0.1,-0.03l-0.33 0.18 0 0 -0.09 0.06c0,0 0.01,0.01 0.01,0.02 0,0.04 -0.02,0.09 -0.05,0.12 -0.03,0.02 -0.07,0.04 -0.12,0.04 -0.04,0 -0.08,-0.02 -0.11,-0.04 -0.03,-0.03 -0.05,-0.08 -0.05,-0.12 0,-0.01 0,-0.02 0,-0.02l-0.21 -0.12 0 0 -0.21 -0.12c-0.02,0.02 -0.06,0.03 -0.1,0.03 -0.04,0 -0.08,-0.02 -0.11,-0.05l0 0c-0.03,-0.03 -0.05,-0.07 -0.05,-0.11 0,-0.05 0.02,-0.09 0.05,-0.12 0.01,-0.01 0.03,-0.03 0.05,-0.03l0 -0.48c-0.02,-0.01 -0.04,-0.02 -0.05,-0.04l0 0c-0.03,-0.03 -0.05,-0.07 -0.05,-0.12 0,-0.04 0.02,-0.08 0.05,-0.11l0 0c0.03,-0.03 0.07,-0.05 0.11,-0.05 0.04,0 0.08,0.01 0.1,0.04l0.09 -0.05 0.12 -0.07 0 0 0.12 -0.07 0 0 0.09 -0.05c0,-0.01 0,-0.02 0,-0.03 0,-0.04 0.02,-0.08 0.05,-0.11 0.03,-0.03 0.07,-0.05 0.11,-0.05 0.05,0 0.09,0.02 0.12,0.05 0.03,0.03 0.05,0.07 0.05,0.11 0,0.01 -0.01,0.02 -0.01,0.03zm-0.22 1.02c-0.05,-0.01 -0.1,-0.03 -0.13,-0.07 0,0 -0.01,0 -0.01,-0.01l-0.31 0.19c0,0 0,0.01 0,0.02 0,0.01 0,0.01 0,0.02l0.2 0.12 0 0 0.21 0.12c0.01,-0.01 0.03,-0.02 0.04,-0.02l0 -0.37zm-0.2 -0.18c-0.01,-0.03 -0.01,-0.06 -0.01,-0.08 0,-0.03 0,-0.06 0.01,-0.08l-0.32 -0.19c-0.01,0.01 -0.02,0.02 -0.03,0.03l0 0.48c0.01,0 0.02,0.01 0.03,0.02l0.32 -0.18zm0.06 -0.27c0,0 0.01,0 0.01,-0.01 0.03,-0.03 0.08,-0.06 0.13,-0.07l0 -0.37c-0.01,0 -0.03,-0.01 -0.04,-0.02l-0.09 0.06 0 0 -0.12 0.06 0 0 -0.2 0.12c0,0.01 0,0.02 0,0.02 0,0.01 0,0.02 0,0.03l0.31 0.18zm0.26 -0.08c0.05,0.01 0.1,0.04 0.14,0.07 0,0.01 0,0.01 0,0.01l0.32 -0.18c0,-0.01 0,-0.02 0,-0.03 0,0 0,-0.01 0,-0.02 -0.11,-0.06 -0.16,-0.09 -0.2,-0.11l-0.01 -0.01 0 0 -0.12 -0.06 0 0 -0.09 -0.06c-0.01,0.01 -0.02,0.02 -0.04,0.02l0 0.37zm0.2 0.19c0.01,0.02 0.02,0.05 0.02,0.08 0,0.02 -0.01,0.05 -0.02,0.08l0.32 0.18c0.01,-0.01 0.02,-0.02 0.04,-0.02l0 -0.48c-0.02,-0.01 -0.03,-0.02 -0.04,-0.03l-0.32 0.19zm-0.06 0.26c0,0.01 0,0.01 0,0.01 -0.04,0.04 -0.09,0.06 -0.14,0.07l0 0.37c0.02,0 0.03,0.01 0.04,0.02l0.09 -0.05 0 0 0.33 -0.19c0,-0.01 0,-0.01 0,-0.02 0,-0.01 0,-0.02 0,-0.02l-0.32 -0.19zm-0.3 -0.08c0.02,0.03 0.06,0.05 0.1,0.05 0.04,0 0.08,-0.02 0.11,-0.05 0.02,-0.02 0.04,-0.06 0.04,-0.1 0,-0.04 -0.02,-0.08 -0.04,-0.11 -0.03,-0.03 -0.07,-0.04 -0.11,-0.04 -0.04,0 -0.08,0.01 -0.1,0.04 -0.03,0.03 -0.05,0.07 -0.05,0.11 0,0.04 0.02,0.08 0.05,0.1zm0.07 -0.86l0 0c0.01,0.01 0.02,0.01 0.03,0.01 0.01,0 0.02,0 0.03,-0.01l0 0c0.01,-0.01 0.01,-0.02 0.01,-0.03 0,-0.01 0,-0.02 -0.01,-0.02 -0.01,-0.01 -0.02,-0.02 -0.03,-0.02 -0.01,0 -0.02,0.01 -0.03,0.02 0,0 -0.01,0.01 -0.01,0.02 0,0.01 0.01,0.02 0.01,0.03zm0 1.57c0.01,0 0.02,0.01 0.03,0.01 0.01,0 0.02,-0.01 0.03,-0.01 0.01,-0.01 0.01,-0.02 0.01,-0.03 0,-0.01 0,-0.02 -0.01,-0.03l0 0c-0.01,-0.01 -0.02,-0.01 -0.03,-0.01 -0.01,0 -0.02,0 -0.03,0.01 0,0.01 -0.01,0.02 -0.01,0.03 0,0.01 0.01,0.02 0.01,0.03zm0.68 -0.45c-0.01,0.01 -0.01,0.02 -0.01,0.03 0,0.01 0,0.02 0.01,0.03l0 0c0.01,0 0.02,0.01 0.03,0.01 0.01,0 0.02,-0.01 0.03,-0.01l0 0c0,-0.01 0.01,-0.02 0.01,-0.03 0,-0.01 -0.01,-0.02 -0.01,-0.03 -0.01,-0.01 -0.02,-0.01 -0.03,-0.01 -0.01,0 -0.02,0 -0.03,0.01zm-1.35 0c-0.01,0.01 -0.02,0.02 -0.02,0.03 0,0.01 0.01,0.02 0.02,0.03l0 0c0,0 0.01,0.01 0.02,0.01 0.01,0 0.02,-0.01 0.03,-0.01l0 0c0.01,-0.01 0.01,-0.02 0.01,-0.03 0,-0.01 0,-0.02 -0.01,-0.03l0 0c-0.01,-0.01 -0.02,-0.01 -0.03,-0.01 -0.01,0 -0.02,0 -0.02,0.01zm1.35 -0.78c-0.01,0 -0.01,0.01 -0.01,0.02 0,0.02 0,0.03 0.01,0.03l0 0c0.01,0.01 0.02,0.01 0.03,0.01 0.01,0 0.02,0 0.03,-0.01 0,0 0.01,-0.01 0.01,-0.03 0,-0.01 -0.01,-0.02 -0.01,-0.02l0 0c-0.01,-0.01 -0.02,-0.01 -0.03,-0.01 -0.01,0 -0.02,0 -0.03,0.01l0 0zm-1.35 0c-0.01,0 -0.02,0.01 -0.02,0.02 0,0.02 0.01,0.03 0.02,0.03l0 0c0,0.01 0.01,0.01 0.02,0.01 0.01,0 0.02,0 0.03,-0.01l0 0c0.01,0 0.01,-0.01 0.01,-0.03 0,-0.01 0,-0.02 -0.01,-0.02l0 0c-0.01,-0.01 -0.02,-0.01 -0.03,-0.01 -0.01,0 -0.02,0 -0.02,0.01l0 0z"
   id="path7" />
 </g>
</svg>
