<?xml version="1.0" encoding="UTF-8" standalone="no"?>
<svg
   xmlns:dc="http://purl.org/dc/elements/1.1/"
   xmlns:cc="http://creativecommons.org/ns#"
   xmlns:rdf="http://www.w3.org/1999/02/22-rdf-syntax-ns#"
   xmlns:svg="http://www.w3.org/2000/svg"
   xmlns="http://www.w3.org/2000/svg"
   xmlns:sodipodi="http://sodipodi.sourceforge.net/DTD/sodipodi-0.dtd"
   xmlns:inkscape="http://www.inkscape.org/namespaces/inkscape"
   xml:space="preserve"
   width="23px"
   height="21px"
   version="1.0"
   style="shape-rendering:geometricPrecision; text-rendering:geometricPrecision; image-rendering:optimizeQuality; fill-rule:evenodd; clip-rule:evenodd"
   viewBox="0 0 23.64 21.97"
   id="svg10"
   sodipodi:docname="ic-nav-receive.svg"><metadata
   id="metadata14"><rdf:RDF><cc:Work
       rdf:about=""><dc:format>image/svg+xml</dc:format><dc:type
         rdf:resource="http://purl.org/dc/dcmitype/StillImage" /></cc:Work></rdf:RDF></metadata><sodipodi:namedview
   pagecolor="#ffffff"
   bordercolor="#666666"
   borderopacity="1"
   objecttolerance="10"
   gridtolerance="10"
   guidetolerance="10"
   inkscape:pageopacity="0"
   inkscape:pageshadow="2"
   inkscape:window-width="640"
   inkscape:window-height="480"
   id="namedview12"
   inkscape:document-rotation="0" />
 <defs
   id="defs4">
  <style
   type="text/css"
   id="style2">
   <![CDATA[
    .fil0 {fill:#6172F2;fill-rule:nonzero}
   ]]>
  </style>
 </defs>
 <g
   id="Слой_x0020_1">
  <metadata
   id="CorelCorpID_0Corel-Layer" />
  <path
   class="fil0"
   d="M8.4 12.27c-0.4,0 -0.72,-0.32 -0.72,-0.72 0,-0.4 0.32,-0.72 0.72,-0.72l1.69 0 -1.2 -1.2c-0.28,-0.28 -0.28,-0.73 0,-1.02 0.28,-0.28 0.74,-0.28 1.02,0l1.2 1.2 0 -1.69c0,-0.4 0.32,-0.72 0.72,-0.72 0.4,0 0.72,0.32 0.72,0.72l0 1.69 1.2 -1.2c0.28,-0.28 0.74,-0.28 1.02,0 0.28,0.29 0.28,0.74 0,1.02l-1.2 1.2 1.69 0c0.4,0 0.72,0.32 0.72,0.72 0,0.4 -0.32,0.72 -0.72,0.72l-1.69 0 1.2 1.2c0.28,0.28 0.28,0.74 0,1.02 -0.28,0.28 -0.74,0.28 -1.02,0l-1.2 -1.2 0 1.69c0,0.4 -0.32,0.72 -0.72,0.72 -0.4,0 -0.72,-0.32 -0.72,-0.72l0 -1.69 -1.2 1.2c-0.28,0.28 -0.74,0.28 -1.02,0 -0.28,-0.28 -0.28,-0.74 0,-1.02l1.2 -1.2 -1.69 0zm-2.95 -3.39c-0.16,0.36 -0.58,0.52 -0.94,0.36 -0.37,-0.15 -0.53,-0.58 -0.37,-0.94l0.1 -0.24c0.16,-0.36 0.59,-0.52 0.95,-0.37 0.36,0.16 0.53,0.59 0.37,0.95l-0.11 0.24zm1.38 -2.11c-0.27,0.29 -0.73,0.3 -1.01,0.02 -0.29,-0.27 -0.3,-0.73 -0.02,-1.01 0.77,-0.81 1.71,-1.47 2.75,-1.91 1.01,-0.43 2.12,-0.67 3.28,-0.67 2.3,0 4.39,0.94 5.9,2.45l0.05 0.05c1.48,1.5 2.4,3.57 2.4,5.85 0,2.3 -0.94,4.4 -2.45,5.91 -1.51,1.51 -3.6,2.44 -5.9,2.44 -2.3,0 -4.39,-0.93 -5.9,-2.44 -1.52,-1.51 -2.45,-3.61 -2.45,-5.91 0,-0.4 0.32,-0.72 0.72,-0.72 0.4,0 0.72,0.32 0.72,0.72 0,1.91 0.77,3.64 2.02,4.89 1.25,1.25 2.98,2.02 4.89,2.02 1.91,0 3.64,-0.77 4.89,-2.02 1.24,-1.25 2.02,-2.98 2.02,-4.89 0,-1.89 -0.75,-3.6 -1.98,-4.84l-0.04 -0.05c-1.25,-1.25 -2.98,-2.02 -4.89,-2.02 -0.97,0 -1.88,0.2 -2.71,0.55 -0.87,0.37 -1.65,0.91 -2.29,1.58zm-2.36 13.68c-0.4,-0.33 -0.78,-0.69 -1.13,-1.07l-1.39 0c-0.1,0 -0.19,0.04 -0.26,0.11l-0.02 0.02c-0.09,0.1 -0.15,0.25 -0.15,0.41 0,0.15 0.05,0.29 0.14,0.39l0.01 0.01c0.07,0.08 0.18,0.13 0.28,0.13l2.52 0zm-2.32 -2.59c-0.07,-0.12 -0.15,-0.24 -0.22,-0.36 -1.05,-1.74 -1.65,-3.77 -1.65,-5.95 0,-3.19 1.29,-6.07 3.38,-8.16 2.09,-2.1 4.98,-3.39 8.17,-3.39 3.19,0 6.07,1.29 8.16,3.38l0.02 0.02c2.08,2.09 3.37,4.97 3.37,8.15 0,2.2 -0.62,4.27 -1.69,6.02 -0.06,0.1 -0.12,0.2 -0.19,0.29l0.19 0c0.54,0 1.04,0.25 1.4,0.63 0.34,0.37 0.55,0.88 0.55,1.43 0,0.55 -0.21,1.05 -0.55,1.42 -0.36,0.39 -0.85,0.63 -1.4,0.63l-19.74 0c-0.55,0 -1.04,-0.24 -1.4,-0.63l-0.03 -0.04c-0.32,-0.37 -0.52,-0.85 -0.52,-1.38 0,-0.55 0.21,-1.06 0.55,-1.43l0.04 -0.04c0.35,-0.36 0.84,-0.59 1.36,-0.59l0.2 0zm18.17 1.52c-0.36,0.38 -0.73,0.74 -1.13,1.07l2.5 0c0.1,0 0.21,-0.05 0.28,-0.13 0.09,-0.1 0.15,-0.24 0.15,-0.4 0,-0.16 -0.06,-0.31 -0.15,-0.41 -0.07,-0.08 -0.17,-0.13 -0.28,-0.13l-1.37 0zm-3.69 1.07c1.57,-0.85 2.9,-2.11 3.83,-3.63 0.94,-1.53 1.48,-3.34 1.48,-5.27 0,-2.79 -1.13,-5.32 -2.96,-7.15 -1.83,-1.83 -4.36,-2.96 -7.15,-2.96 -2.79,0 -5.32,1.13 -7.15,2.96 -1.83,1.83 -2.96,4.36 -2.96,7.15 0,1.91 0.53,3.69 1.44,5.21 0.93,1.55 2.28,2.83 3.87,3.69l9.6 0z"
   id="path7" />
 </g>
</svg>
