<?xml version="1.0" encoding="UTF-8" standalone="no"?>
<svg
   xmlns:dc="http://purl.org/dc/elements/1.1/"
   xmlns:cc="http://creativecommons.org/ns#"
   xmlns:rdf="http://www.w3.org/1999/02/22-rdf-syntax-ns#"
   xmlns:svg="http://www.w3.org/2000/svg"
   xmlns="http://www.w3.org/2000/svg"
   xmlns:sodipodi="http://sodipodi.sourceforge.net/DTD/sodipodi-0.dtd"
   xmlns:inkscape="http://www.inkscape.org/namespaces/inkscape"
   xml:space="preserve"
   width="24px"
   height="24px"
   version="1.0"
   style="shape-rendering:geometricPrecision; text-rendering:geometricPrecision; image-rendering:optimizeQuality; fill-rule:evenodd; clip-rule:evenodd"
   viewBox="0 0 1.51 1.51"
   id="svg18"
   sodipodi:docname="ic-nav-settings.svg"><metadata
   id="metadata22"><rdf:RDF><cc:Work
       rdf:about=""><dc:format>image/svg+xml</dc:format><dc:type
         rdf:resource="http://purl.org/dc/dcmitype/StillImage" /></cc:Work></rdf:RDF></metadata><sodipodi:namedview
   pagecolor="#ffffff"
   bordercolor="#666666"
   borderopacity="1"
   objecttolerance="10"
   gridtolerance="10"
   guidetolerance="10"
   inkscape:pageopacity="0"
   inkscape:pageshadow="2"
   inkscape:window-width="640"
   inkscape:window-height="480"
   id="namedview20"
   inkscape:document-rotation="0" />
 <defs
   id="defs4">
  <style
   type="text/css"
   id="style2">
   <![CDATA[
    .fil2 {fill:none}
    .fil0 {fill:#5C6BDD;fill-rule:nonzero}
    .fil1 {fill:#5C6BDD;fill-rule:nonzero}
   ]]>
  </style>
 </defs>
 <g
   id="Слой_x0020_1">
  <metadata
   id="CorelCorpID_0Corel-Layer" />
  <path
   class="fil0"
   d="M0.5 0.83c0.01,0.03 0,0.06 -0.03,0.07 -0.03,0.01 -0.06,0 -0.07,-0.03 -0.02,-0.03 -0.02,-0.07 -0.03,-0.11 0,-0.04 0.01,-0.08 0.02,-0.11 0.02,-0.1 0.09,-0.18 0.17,-0.23 0.09,-0.05 0.19,-0.06 0.29,-0.03l0 0c0.1,0.02 0.18,0.09 0.23,0.17 0.05,0.08 0.07,0.18 0.04,0.28l0 0 0 0 0 0c0,0 0,0 0,0.01 -0.03,0.09 -0.09,0.17 -0.18,0.22 -0.08,0.04 -0.18,0.06 -0.28,0.03 -0.03,0 -0.05,-0.03 -0.04,-0.06 0.01,-0.03 0.04,-0.05 0.07,-0.04 0.07,0.02 0.14,0.01 0.2,-0.03 0.06,-0.03 0.1,-0.09 0.12,-0.15 0,0 0,-0.01 0,-0.01l0 0 0 0c0.02,-0.07 0.01,-0.14 -0.03,-0.2 -0.03,-0.05 -0.09,-0.1 -0.16,-0.12l0 0c-0.07,-0.02 -0.14,-0.01 -0.2,0.03 -0.06,0.03 -0.11,0.08 -0.13,0.15 0,0.03 -0.01,0.06 0,0.08 0,0.03 0,0.06 0.01,0.08z"
   id="path7" />
  <g
   id="g11">
   <path
   class="fil1"
   d="M0.2 0.86l-0.01 -0.09 0.11 -0.01 0.01 0.08 -0.01 0.04 -0.1 -0.02zm0.11 -0.02c0.01,0.03 -0.01,0.06 -0.04,0.06 -0.03,0.01 -0.06,-0.01 -0.07,-0.04l0.11 -0.02zm-0.12 0.14l-0.1 0.06 0 0 0 -0.04 0 -0.01 0 -0.01 0.01 -0.01 0 0 0 -0.01 0.01 0 0 -0.01 0.01 -0.01 0 0 0.01 -0.01 0 -0.01 0.01 0 0 -0.01 0.01 -0.01 0 -0.01 0.01 0 0.01 -0.01 0 -0.01 0.01 -0.01 0 0 0.01 -0.01 0 0 0.01 -0.01 0 -0.01 0 0 0.01 0 0 -0.01 0 0 0 0 0 0 0.01 0 0.08 0.06 0 0 0 0.01 0 0 0 0 -0.01 0 0 0.01 0 0 -0.01 0.01 0 0 -0.01 0.01 0 0 -0.01 0.01 0 0.01 -0.01 0.01 0 0 -0.01 0.01 0 0.01 -0.01 0 0 0.01 -0.01 0.01 0 0 -0.01 0.01 0 0.01 -0.01 0 0 0.01 0 0 -0.01 0 0 0.01 0 0 0 0 0.01 -0.01 -0.01 -0.04 0 0zm0 0c0.01,0.03 0,0.06 -0.02,0.08 -0.03,0.01 -0.06,0 -0.08,-0.02l0.1 -0.06zm-0.02 0.18l-0.08 -0.12 0.1 -0.06 0.07 0.13 -0.09 0.05 0 0zm0.09 -0.05c0.02,0.02 0.01,0.06 -0.02,0.07 -0.02,0.02 -0.06,0.01 -0.07,-0.02l0.09 -0.05zm0.19 -0.04l-0.07 0.08 0.04 0.01 0 0 0 0 0 0.01 -0.01 0 0 0 -0.01 0 0 0 -0.01 0 -0.01 0 0 0 -0.01 0 -0.01 0 -0.01 0.01 -0.01 0 -0.01 0 -0.01 0 -0.01 0 0 0 -0.01 0 -0.01 0 -0.01 0.01 -0.01 0 -0.01 0 -0.01 0 0 0 -0.01 0 -0.01 0 0 0 -0.01 0 -0.01 0 -0.01 0 -0.03 -0.03 0.09 -0.05 -0.02 -0.03 -0.01 0 -0.01 0 0 0 0.01 0 0 0 0.01 0 0 0 0.01 0 0.01 0 0.01 0 0 0 0.01 0 0.01 -0.01 0.01 0 0.01 0 0.01 0 0.01 0 0 0 0.01 0 0.01 0 0.01 -0.01 0.01 0 0 0 0.01 0 0.01 0 0 0 0.01 0 0 0 0 0 0 0 0 0 0.05 0.01zm-0.05 -0.01c0.03,-0.01 0.06,0.01 0.07,0.04 0,0.03 -0.02,0.06 -0.05,0.06l-0.02 -0.1zm0.05 0.15l-0.07 -0.06 0.07 -0.08 0.07 0.05 0.02 0.04 -0.09 0.05zm0.07 -0.09c0.02,0.02 0.03,0.05 0.01,0.08 -0.02,0.02 -0.06,0.03 -0.08,0.01l0.07 -0.09zm0.01 0.19l-0.03 0.1 0 0 -0.03 -0.02 -0.01 -0.01 0 -0.01 0 -0.01 0 0 0 -0.01 -0.01 -0.01 0 0 0 -0.01 0 -0.01 0 -0.01 0 -0.01 0 0 -0.01 -0.01 0 -0.01 0 -0.01 0 -0.01 0 -0.01 0 -0.01 0 -0.01 0 -0.01 -0.01 0 0 -0.01 0 -0.01 0 -0.01 0 0 0 -0.01 0 0 0 -0.01 0 0 0 0 0 0 0.11 -0.01 0 0 0 0 0 0 0 0.01 0 0 0 0 0 0.01 0 0.01 0 0 0 0.01 0 0.01 0.01 0.01 0 0.01 0 0 0 0.01 0 0.01 0 0.01 0 0.01 0 0.01 0.01 0.01 0 0.01 0 0 0 0.01 0 0.01 0 0 0 0.01 0 0 0 0 0.01 0.01 -0.01 -0.01 0 0 -0.03 -0.02 0 0zm0 0c0.03,0 0.05,0.03 0.04,0.06 -0.01,0.03 -0.04,0.05 -0.07,0.04l0.03 -0.1zm0.11 0.14l-0.14 -0.04 0.03 -0.1 0.14 0.03 0 0 -0.03 0.11zm0.03 -0.11c0.03,0.01 0.05,0.04 0.04,0.07 -0.01,0.03 -0.04,0.05 -0.07,0.04l0.03 -0.11zm0.1 -0.15l0.02 0.11 0.03 -0.03 0 0 0 0.01 0 0 0 0 0 0 -0.01 0.01 0 0 0 0.01 -0.01 0 0 0.01 -0.01 0.01 0 0 -0.01 0.01 0 0.01 -0.01 0.01 0 0 -0.01 0.01 0 0.01 -0.01 0 -0.01 0.01 0 0.01 -0.01 0.01 0 0 -0.01 0.01 0 0 -0.01 0.01 0 0 0 0.01 -0.01 0 -0.01 0.01 -0.01 0.01 -0.04 0 0.03 -0.11 -0.03 0.01 -0.01 0 0 0 0 0 0 0 0 0 0 -0.01 0.01 0 0 -0.01 0.01 0 0 -0.01 0.01 0 0 -0.01 0.01 -0.01 0 0 0.01 -0.01 0 -0.01 0.01 -0.01 0 0 0.01 -0.01 0 -0.01 0.01 0 0 -0.01 0.01 0 0 -0.01 0 0 0.01 -0.01 0 0 0 -0.01 0 0 0 0 0 0 0.04 -0.02zm-0.04 0.02c0.02,-0.02 0.06,-0.03 0.08,-0.01 0.03,0.02 0.03,0.05 0.01,0.07l-0.09 -0.06zm0.14 0.08l-0.08 0.01 -0.02 -0.11 0.09 -0.01 0.04 0.01 -0.03 0.1zm-0.01 -0.11c0.03,-0.01 0.06,0.01 0.06,0.04 0,0.03 -0.02,0.06 -0.05,0.07l-0.01 -0.11zm0.14 0.12l0.06 0.1 0 0 -0.04 0 -0.01 0 -0.01 -0.01 -0.01 0 0 0 -0.01 -0.01 0 0 -0.01 0 -0.01 -0.01 0 0 -0.01 -0.01 -0.01 0 -0.01 -0.01 0 0 -0.01 -0.01 -0.01 -0.01 -0.01 0 0 -0.01 -0.01 0 -0.01 -0.01 0 0 -0.01 -0.01 -0.01 0 0 -0.01 -0.01 0 0 0 -0.01 -0.01 0 0 0 0 -0.01 0 0 -0.01 0 0 0.07 -0.08 0 0 0 0 0 0 0.01 0 0 0.01 0 0 0.01 0 0 0.01 0.01 0 0.01 0.01 0 0 0.01 0.01 0.01 0 0 0.01 0.01 0 0.01 0.01 0.01 0 0 0.01 0.01 0 0.01 0.01 0 0 0.01 0.01 0.01 0 0 0.01 0.01 0 0 0 0 0.01 0.01 0 0 0 0 0 -0.01 -0.01 -0.04 0.01 0 0zm0 0c0.03,-0.01 0.06,-0.01 0.08,0.02 0.01,0.03 0,0.06 -0.02,0.08l-0.06 -0.1zm0.18 0.02l-0.12 0.08 -0.06 -0.1 0.13 -0.07 0 0 0.05 0.09zm-0.05 -0.09c0.03,-0.02 0.06,-0.01 0.07,0.02 0.02,0.03 0.01,0.06 -0.02,0.07l-0.05 -0.09zm-0.04 -0.18l0.08 0.07 0.01 -0.05 0 0 0 0.01 0.01 0 0 0 0 0.01 0 0 0 0.01 0 0 0 0.01 0 0.01 0 0.01 0 0 0.01 0.01 0 0.01 0 0.01 0 0.01 0 0.01 0 0.01 0 0.01 0.01 0.01 0 0 0 0.01 0 0.01 0 0.01 0 0.01 0 0 0 0.01 0 0.01 0 0 0 0.01 0 0.02 -0.03 0.02 -0.05 -0.09 -0.02 0.03 -0.01 0.01 0 0 0 0 0 0 0 -0.01 0 0 0 -0.01 0 -0.01 0 0 0 -0.01 0 -0.01 0 -0.01 -0.01 -0.01 0 0 0 -0.01 0 -0.01 0 -0.01 0 -0.01 0 -0.01 0 -0.01 -0.01 0 0 -0.01 0 -0.01 0 0 0 -0.01 0 -0.01 0 0 0 0 0 -0.01 0 0 0 0 0.01 -0.04zm-0.01 0.04c-0.01,-0.03 0.01,-0.06 0.04,-0.06 0.03,-0.01 0.06,0.01 0.06,0.04l-0.1 0.02zm0.15 -0.04l-0.06 0.07 -0.08 -0.07 0.05 -0.07 0.04 -0.02 0.05 0.09zm-0.09 -0.07c0.02,-0.02 0.05,-0.03 0.08,-0.01 0.02,0.02 0.03,0.05 0.01,0.08l-0.09 -0.07zm0.19 -0.01l0.1 0.03 0 0 -0.02 0.03 -0.01 0.01 -0.01 0 0 0 -0.01 0 -0.01 0 0 0 -0.01 0.01 -0.01 0 -0.01 0 -0.01 0 0 0 -0.01 0 -0.01 0 -0.01 0.01 -0.01 0 -0.01 0 -0.01 0 -0.01 0 -0.01 0 -0.01 0 0 0 -0.01 0 -0.01 0 -0.01 0.01 0 0 -0.01 0 0 0 -0.01 0 0 0 0 0 0 0 -0.01 -0.11 0 0 0 0 0 0 0.01 0 0 0 0.01 0 0 0 0.01 0 0 0 0.01 -0.01 0.01 0 0.01 0 0.01 0 0.01 0 0.01 0 0 0 0.01 0 0.01 0 0.01 -0.01 0.01 0 0.01 0 0.01 0 0 0 0.01 0 0.01 0 0 0 0.01 0 0 0 0 -0.01 0 0.01 -0.01 0 -0.02 0.03 0 0zm0 0c0.01,-0.03 0.04,-0.05 0.07,-0.04 0.02,0.01 0.04,0.04 0.03,0.07l-0.1 -0.03zm0.14 -0.11l-0.04 0.14 -0.1 -0.03 0.04 -0.14 0.1 0.03 0 0zm-0.1 -0.03c0,-0.03 0.03,-0.05 0.06,-0.04 0.03,0.01 0.05,0.04 0.04,0.07l-0.1 -0.03zm-0.16 -0.1l0.11 -0.01 -0.03 -0.04 0 0 0 0 0.01 0 0 0 0 0.01 0.01 0 0 0 0.01 0.01 0 0 0.01 0.01 0.01 0 0 0.01 0.01 0 0.01 0.01 0.01 0 0 0.01 0.01 0 0.01 0.01 0.01 0 0 0.01 0.01 0 0.01 0.01 0 0 0.01 0.01 0.01 0 0 0.01 0.01 0 0 0.01 0.01 0 0 0.01 0.01 0.01 0 0.04 -0.1 -0.03 0 0.04 0 0 0.01 0.01 -0.01 0 0 -0.01 0 0 0 0 -0.01 -0.01 0 0 -0.01 0 -0.01 -0.01 0 0 -0.01 -0.01 -0.01 0 0 -0.01 -0.01 -0.01 -0.01 0 -0.01 -0.01 0 0 -0.01 -0.01 -0.01 0 0 -0.01 -0.01 0 -0.01 0 0 -0.01 -0.01 0 0 0 0 -0.01 -0.01 0 0 0 0 0 0 0 -0.02 -0.04zm0.02 0.04c-0.03,-0.02 -0.03,-0.05 -0.01,-0.08 0.01,-0.02 0.05,-0.03 0.07,-0.01l-0.06 0.09zm0.07 -0.14l0.02 0.09 -0.11 0.01 -0.02 -0.08 0.02 -0.05 0.09 0.03zm-0.11 0.02c0,-0.03 0.02,-0.06 0.05,-0.07 0.03,0 0.06,0.02 0.06,0.05l-0.11 0.02zm0.13 -0.14l0.09 -0.06 0 0 0.01 0.04 0 0.01 -0.01 0.01 0 0.01 0 0 -0.01 0.01 0 0 -0.01 0.01 0 0.01 0 0 -0.01 0.01 -0.01 0.01 0 0 -0.01 0.01 0 0.01 -0.01 0 0 0.01 -0.01 0.01 0 0.01 -0.01 0 0 0.01 -0.01 0.01 0 0 -0.01 0.01 0 0 -0.01 0.01 0 0 0 0.01 -0.01 0 0 0 0 0 0 0 -0.08 -0.07 0 0 0 0 0 0 0 0 0 -0.01 0.01 0 0 0 0 -0.01 0.01 0 0 -0.01 0.01 -0.01 0 0 0.01 -0.01 0 -0.01 0.01 0 0.01 -0.01 0 -0.01 0.01 -0.01 0 0 0.01 -0.01 0 -0.01 0.01 0 0 -0.01 0 0 0.01 -0.01 0 0 0 -0.01 0 0 0 0 0 0 0 0.01 0.01 0.04 0 0zm0 0c-0.02,-0.03 -0.01,-0.06 0.02,-0.08 0.02,-0.01 0.06,0 0.07,0.02l-0.09 0.06zm0.02 -0.18l0.07 0.12 -0.09 0.06 -0.08 -0.13 0.1 -0.05 0 0zm-0.1 0.05c-0.01,-0.02 0,-0.06 0.02,-0.07 0.03,-0.02 0.06,-0.01 0.08,0.02l-0.1 0.05zm-0.18 0.04l0.07 -0.09 -0.04 -0.01 0 0 0 0 0 0 0 0 0.01 0 0 0 0.01 0 0.01 0 0 0 0.01 0 0.01 0 0.01 -0.01 0.01 0 0 0 0.01 0 0.01 0 0.01 0 0.01 0 0.01 0 0.01 -0.01 0.01 0 0.01 0 0.01 0 0 0 0.01 0 0.01 0 0 0 0.01 0 0.01 0 0.01 0 0.01 0 0.03 0.03 -0.09 0.05 0.02 0.02 0.01 0.01 0 0 0 0 0 0 0 0 -0.01 0 -0.01 0 0 0 -0.01 0 -0.01 0 -0.01 0 0 0 -0.01 0 -0.01 0.01 -0.01 0 -0.01 0 -0.01 0 -0.01 0 -0.01 0 0 0 -0.01 0 -0.01 0.01 -0.01 0 0 0 -0.01 0 0 0 -0.01 0 0 0 0 0 -0.01 0 0 0 -0.04 -0.01zm0.04 0.01c-0.03,0.01 -0.05,-0.01 -0.06,-0.04 -0.01,-0.03 0.02,-0.06 0.05,-0.07l0.01 0.11zm-0.04 -0.15l0.07 0.05 -0.07 0.09 -0.07 -0.05 -0.02 -0.04 0.09 -0.05zm-0.07 0.09c-0.02,-0.02 -0.03,-0.05 -0.01,-0.08 0.02,-0.02 0.05,-0.03 0.08,-0.01l-0.07 0.09zm-0.01 -0.19l0.03 -0.1 0 0 0.03 0.02 0 0.01 0.01 0.01 0 0 0 0.01 0 0.01 0 0 0 0.01 0.01 0.01 0 0.01 0 0.01 0 0 0 0.01 0 0.01 0 0.01 0.01 0.01 0 0.01 0 0.01 0 0.01 0 0.01 0 0.01 0 0 0 0.01 0 0.01 0.01 0 0 0.01 0 0.01 0 0 0 0 0 0.01 0 0 0 0 -0.11 0.01 0 0 0 0 0 0 0 -0.01 0 0 0 -0.01 0 0 0 -0.01 -0.01 -0.01 0 0 0 -0.01 0 -0.01 0 -0.01 0 -0.01 0 -0.01 0 0 0 -0.01 -0.01 -0.01 0 -0.01 0 -0.01 0 -0.01 0 0 0 -0.01 0 -0.01 -0.01 0 0 -0.01 0 0 0 -0.01 0 0 0 0 0.01 0.01 0.03 0.02 0 0zm0 0c-0.03,-0.01 -0.05,-0.04 -0.04,-0.06 0.01,-0.03 0.04,-0.05 0.07,-0.04l-0.03 0.1zm-0.12 -0.14l0.15 0.04 -0.03 0.1 -0.15 -0.04 0.03 -0.1 0 0zm-0.03 0.1c-0.02,0 -0.04,-0.03 -0.03,-0.06 0,-0.03 0.03,-0.05 0.06,-0.04l-0.03 0.1zm-0.1 0.16l-0.01 -0.11 -0.04 0.02 0 0 0 0 0.01 0 0 0 0 -0.01 0 0 0.01 0 0 -0.01 0.01 -0.01 0 0 0 -0.01 0.01 -0.01 0 0 0.01 -0.01 0.01 -0.01 0 0 0.01 -0.01 0 -0.01 0.01 -0.01 0 0 0.01 -0.01 0 -0.01 0.01 0 0 -0.01 0.01 -0.01 0 0 0.01 -0.01 0 0 0.01 0 0 -0.01 0.02 -0.01 0.03 0 -0.03 0.1 0.04 0 0.01 0 0 0 0 0 0 0 0 0 -0.01 0 0 0.01 -0.01 0 0 0.01 0 0.01 -0.01 0 -0.01 0.01 0 0.01 -0.01 0 0 0.01 -0.01 0.01 0 0 -0.01 0.01 0 0.01 -0.01 0.01 0 0 -0.01 0.01 0 0 0 0.01 -0.01 0 0 0.01 0 0 0 0 -0.01 0.01 0 0 0 0 -0.04 0.02zm0.04 -0.02c-0.01,0.02 -0.05,0.03 -0.07,0.01 -0.03,-0.02 -0.03,-0.05 -0.02,-0.08l0.09 0.07zm-0.14 -0.08l0.09 -0.01 0.01 0.11 -0.08 0.01 -0.04 -0.01 0.02 -0.1zm0.02 0.11c-0.03,0 -0.06,-0.02 -0.06,-0.05 -0.01,-0.03 0.01,-0.05 0.04,-0.06l0.02 0.11zm-0.15 -0.12l-0.05 -0.1 0 0 0.04 0 0.01 0 0.01 0 0 0.01 0.01 0 0.01 0 0 0.01 0.01 0 0 0.01 0.01 0 0.01 0.01 0.01 0 0 0.01 0.01 0 0.01 0.01 0.01 0 0 0.01 0.01 0 0.01 0.01 0 0.01 0.01 0 0.01 0.01 0 0 0.01 0.01 0.01 0 0 0 0 0.01 0.01 0 0 0 0 0 0 0 0 0 -0.06 0.09 0 0 -0.01 0 0 0 0 -0.01 0 0 -0.01 0 0 -0.01 -0.01 0 0 0 -0.01 -0.01 -0.01 0 0 -0.01 -0.01 0 -0.01 -0.01 0 0 -0.01 -0.01 -0.01 -0.01 -0.01 0 0 -0.01 -0.01 0 -0.01 -0.01 0 0 -0.01 0 0 -0.01 -0.01 0 0 0 -0.01 -0.01 0 0 0 0 0 0 0.01 0 0.03 0 0 0zm0 0c-0.02,0.01 -0.06,0 -0.07,-0.02 -0.02,-0.03 -0.01,-0.06 0.02,-0.08l0.05 0.1zm-0.18 -0.03l0.13 -0.07 0.05 0.1 -0.12 0.07 0 0 -0.06 -0.1zm0.06 0.1c-0.03,0.01 -0.06,0 -0.08,-0.02 -0.01,-0.03 0,-0.06 0.02,-0.08l0.06 0.1zm0.04 0.18l-0.09 -0.07 -0.01 0.05 0 0 0 -0.01 0 0 0 0 0 -0.01 0 0 0 -0.01 0 0 0 -0.01 -0.01 -0.01 0 -0.01 0 -0.01 0 0 0 -0.01 0 -0.01 0 -0.01 -0.01 -0.01 0 -0.01 0 -0.01 0 -0.01 0 -0.01 0 0 0 -0.01 0 -0.01 0 -0.01 -0.01 0 0 -0.01 0 -0.01 0 0 0 -0.01 0.01 -0.02 0.02 -0.03 0.06 0.1 0.02 -0.03 0 -0.01 0 0 0 0 0 0 0 0.01 0 0 0.01 0.01 0 0 0 0.01 0 0.01 0 0.01 0 0.01 0 0 0 0.01 0 0.01 0.01 0.01 0 0.01 0 0.01 0 0.01 0 0 0 0.01 0 0.01 0.01 0.01 0 0 0 0.01 0 0 0 0.01 0 0 0 0 0 0.01 0 0 -0.01 0.04zm0.01 -0.04c0.01,0.03 -0.01,0.05 -0.04,0.06 -0.03,0 -0.06,-0.01 -0.07,-0.04l0.11 -0.02zm-0.15 0.04l0.05 -0.07 0.09 0.07 -0.05 0.07 -0.04 0.02 -0.05 -0.09zm0.09 0.07c-0.02,0.02 -0.06,0.03 -0.08,0.01 -0.02,-0.02 -0.03,-0.05 -0.01,-0.08l0.09 0.07zm-0.19 0.01l-0.11 -0.03 0 0 0.02 -0.03 0.02 -0.01 0 0 0.01 0 0.01 0 0 0 0.01 -0.01 0.01 0 0.01 0 0 0 0.01 0 0.01 0 0.01 0 0.01 -0.01 0.01 0 0.01 0 0.01 0 0.01 0 0.01 0 0 0 0.01 0 0.01 0 0.01 -0.01 0.01 0 0 0 0.01 0 0 0 0.01 0 0 0 0.01 0 0 0 0 0 0.01 0.11 0 0 0 0 -0.01 0 0 0 0 0 -0.01 0 0 0 -0.01 0 -0.01 0 -0.01 0 0 0 -0.01 0.01 -0.01 0 -0.01 0 -0.01 0 -0.01 0 -0.01 0 -0.01 0 0 0 -0.01 0 -0.01 0.01 -0.01 0 -0.01 0 0 0 -0.01 0 0 0 -0.01 0 0 0 0 0 0 0 0.01 0 0.02 -0.03 0 0zm0 0c-0.01,0.03 -0.04,0.04 -0.07,0.04 -0.03,-0.01 -0.05,-0.04 -0.04,-0.07l0.11 0.03zm-0.14 0.11l0.03 -0.14 0.11 0.03 -0.04 0.14 0 0 -0.1 -0.03zm0.1 0.03c-0.01,0.03 -0.04,0.04 -0.07,0.04 -0.03,-0.01 -0.04,-0.04 -0.03,-0.07l0.1 0.03zm0.16 0.1l-0.11 0.01 0.02 0.04 0 0 0 0 0 0 0 -0.01 -0.01 0 0 0 -0.01 -0.01 0 0 -0.01 0 0 -0.01 -0.01 0 -0.01 -0.01 0 0 -0.01 -0.01 -0.01 0 -0.01 -0.01 0 0 -0.01 -0.01 -0.01 -0.01 -0.01 0 0 -0.01 -0.01 0 -0.01 -0.01 0 0 -0.01 -0.01 0 0 -0.01 -0.01 0 0 -0.01 0 0 -0.01 -0.01 -0.01 0 -0.04 0.1 0.03 0 -0.04 -0.01 -0.01 0 0 0 0 0 0 0.01 0.01 0 0 0.01 0 0 0.01 0.01 0 0 0.01 0.01 0 0.01 0.01 0 0 0.01 0.01 0.01 0 0.01 0.01 0 0 0.01 0.01 0.01 0 0 0.01 0.01 0 0.01 0.01 0 0 0.01 0.01 0 0 0.01 0 0 0 0 0.01 0.01 0 0 0 0 0 0.02 0.04zm-0.02 -0.04c0.02,0.02 0.03,0.05 0.01,0.07 -0.02,0.03 -0.05,0.04 -0.08,0.02l0.07 -0.09z"
   id="path9" />
  </g>
  <path
   class="fil0"
   d="M0.5 1.02c-0.02,-0.02 -0.03,-0.05 -0.01,-0.07 0.02,-0.03 0.06,-0.03 0.08,-0.01 0.01,0 0.01,0.01 0.02,0.01 0,0 0,0.01 0.01,0.01 0,0 0,0 0,0 0.03,0.02 0.07,0.04 0.11,0.04 0.03,0.01 0.07,0.01 0.11,0l0 0c0.07,-0.02 0.13,-0.07 0.17,-0.13 0.03,-0.05 0.04,-0.13 0.02,-0.2l0 0 0 0 0 0c0,0 0,0 0,0 -0.02,-0.07 -0.06,-0.12 -0.12,-0.15 -0.06,-0.04 -0.13,-0.05 -0.2,-0.03 -0.03,0.01 -0.06,-0.01 -0.07,-0.04 -0.01,-0.03 0.01,-0.06 0.04,-0.06 0.1,-0.03 0.2,-0.02 0.28,0.03 0.09,0.05 0.15,0.13 0.18,0.22 0,0.01 0,0.01 0,0.01l0 0 0 0c0.03,0.1 0.01,0.2 -0.04,0.28 -0.05,0.08 -0.13,0.15 -0.23,0.17l0 0c-0.05,0.02 -0.11,0.02 -0.16,0.01 -0.05,-0.01 -0.1,-0.03 -0.15,-0.06 0,0 0,0 0,0 -0.01,0 -0.01,-0.01 -0.02,-0.01 -0.01,-0.01 -0.01,-0.01 -0.02,-0.02z"
   id="path13" />
  <rect
   class="fil2"
   width="1.51"
   height="1.51"
   id="rect15" />
 </g>
</svg>
