<?xml version="1.0" encoding="UTF-8" standalone="no"?>
<svg
   xmlns:dc="http://purl.org/dc/elements/1.1/"
   xmlns:cc="http://creativecommons.org/ns#"
   xmlns:rdf="http://www.w3.org/1999/02/22-rdf-syntax-ns#"
   xmlns:svg="http://www.w3.org/2000/svg"
   xmlns="http://www.w3.org/2000/svg"
   xmlns:sodipodi="http://sodipodi.sourceforge.net/DTD/sodipodi-0.dtd"
   xmlns:inkscape="http://www.inkscape.org/namespaces/inkscape"
   xml:space="preserve"
   width="20px"
   height="21px"
   version="1.0"
   style="shape-rendering:geometricPrecision; text-rendering:geometricPrecision; image-rendering:optimizeQuality; fill-rule:evenodd; clip-rule:evenodd"
   viewBox="0 0 2.53 2.66"
   id="svg10"
   sodipodi:docname="ic-nav-cold-staking-active.svg"><metadata
   id="metadata14"><rdf:RDF><cc:Work
       rdf:about=""><dc:format>image/svg+xml</dc:format><dc:type
         rdf:resource="http://purl.org/dc/dcmitype/StillImage" /></cc:Work></rdf:RDF></metadata><sodipodi:namedview
   pagecolor="#ffffff"
   bordercolor="#666666"
   borderopacity="1"
   objecttolerance="10"
   gridtolerance="10"
   guidetolerance="10"
   inkscape:pageopacity="0"
   inkscape:pageshadow="2"
   inkscape:window-width="640"
   inkscape:window-height="480"
   id="namedview12"
   inkscape:document-rotation="0" />
 <defs
   id="defs4">
  <style
   type="text/css"
   id="style2">
   <![CDATA[
    .fil0 {fill:white;fill-rule:nonzero}
   ]]>
  </style>
 </defs>
 <g
   id="Слой_x0020_1">
  <metadata
   id="CorelCorpID_0Corel-Layer" />
  <path
   class="fil0"
   d="M0.12 0.4c0.01,-0.11 0.05,-0.21 0.12,-0.28 0.08,-0.07 0.18,-0.12 0.3,-0.12l1.58 0c0.11,0 0.21,0.05 0.29,0.12 0.07,0.08 0.12,0.18 0.12,0.29l0 1.58c0,0.12 -0.05,0.22 -0.12,0.3 -0.05,0.04 -0.1,0.08 -0.17,0.1l0 0.15c0,0.03 -0.01,0.06 -0.03,0.09l0 0c-0.03,0.02 -0.06,0.03 -0.09,0.03l-0.44 0c-0.04,0 -0.07,-0.01 -0.09,-0.03l0 0c-0.02,-0.03 -0.04,-0.06 -0.04,-0.09l0 -0.13 -0.44 0 0 0.13c0,0.03 -0.02,0.06 -0.04,0.09l0 0c-0.02,0.02 -0.05,0.03 -0.09,0.03l-0.44 0c-0.03,0 -0.06,-0.01 -0.09,-0.03 -0.02,-0.03 -0.03,-0.06 -0.03,-0.09l0 -0.15c-0.07,-0.02 -0.13,-0.05 -0.18,-0.1 -0.07,-0.07 -0.11,-0.17 -0.12,-0.28l0 0c-0.03,0 -0.06,-0.01 -0.08,-0.04l-0.01 0c-0.02,-0.02 -0.03,-0.05 -0.03,-0.08l0 -0.45c0,-0.03 0.01,-0.06 0.04,-0.08 0.02,-0.03 0.05,-0.04 0.08,-0.04l0 0 0 -0.24 0 0c-0.03,0 -0.06,-0.01 -0.08,-0.03l-0.01 0c-0.02,-0.02 -0.03,-0.05 -0.03,-0.08l0 -0.45c0,-0.04 0.01,-0.07 0.04,-0.09 0.02,-0.02 0.05,-0.03 0.08,-0.03l0 0zm1.84 1.65l-1.27 0c-0.06,0 -0.11,-0.02 -0.15,-0.06l0 0c-0.03,-0.04 -0.06,-0.09 -0.06,-0.15l0 -1.27c0,-0.06 0.03,-0.11 0.06,-0.15 0.04,-0.04 0.09,-0.06 0.15,-0.06l1.27 0c0.06,0 0.11,0.02 0.15,0.06 0.04,0.04 0.06,0.09 0.06,0.15l0 1.27c0,0.06 -0.02,0.11 -0.06,0.15 -0.04,0.04 -0.09,0.06 -0.15,0.06zm-1.27 -0.17l1.27 0c0.01,0 0.02,-0.01 0.03,-0.02 0,0 0.01,-0.01 0.01,-0.02l0 -1.27c0,-0.01 -0.01,-0.02 -0.01,-0.03 -0.01,0 -0.02,-0.01 -0.03,-0.01l-1.27 0c-0.01,0 -0.02,0.01 -0.02,0.01 -0.01,0.01 -0.01,0.02 -0.01,0.03l0 1.27c0,0.01 0,0.02 0.01,0.02l0 0.01c0,0 0.01,0.01 0.02,0.01zm1.38 0.53l-0.34 0 0 0.08 0.34 0 0 -0.08zm-1.14 0l-0.34 0 0 0.08 0.34 0 0 -0.08zm0.49 -1.51c0.02,0.01 0.04,0.01 0.06,0.02l0.11 -0.1 0.12 0.13 -0.1 0.1c0.01,0.02 0.02,0.04 0.03,0.06l0.14 0 0 0.18 -0.14 0c-0.01,0.02 -0.02,0.04 -0.03,0.06l0.11 0.11 -0.13 0.12 -0.1 -0.1c-0.02,0.01 -0.05,0.02 -0.07,0.02l0 0.15 -0.17 0 0 -0.15c-0.03,0 -0.05,-0.01 -0.07,-0.03l-0.11 0.11 -0.12 -0.12 0.11 -0.11c-0.01,-0.02 -0.02,-0.04 -0.02,-0.06l-0.16 0 0 -0.18 0.16 0c0,-0.02 0.01,-0.04 0.02,-0.06l-0.1 -0.1 0.12 -0.13 0.11 0.11c0.02,-0.01 0.04,-0.02 0.06,-0.03l0 -0.15 0.17 0 0 0.15zm0.02 0.2c-0.03,-0.02 -0.06,-0.04 -0.1,-0.04 -0.04,0 -0.08,0.02 -0.1,0.04 -0.03,0.03 -0.04,0.06 -0.04,0.1 0,0.04 0.01,0.08 0.04,0.1 0.02,0.03 0.06,0.04 0.1,0.04 0.04,0 0.07,-0.01 0.1,-0.04 0.02,-0.02 0.04,-0.06 0.04,-0.1 0,-0.04 -0.02,-0.07 -0.04,-0.1zm-1.14 0.91c0,0.06 0.03,0.11 0.07,0.15 0.04,0.05 0.1,0.07 0.17,0.07l1.58 0c0.06,0 0.12,-0.02 0.17,-0.07 0.04,-0.04 0.07,-0.1 0.07,-0.17l0 -1.58c0,-0.06 -0.03,-0.12 -0.07,-0.16 -0.05,-0.05 -0.11,-0.08 -0.17,-0.08l-1.58 0c-0.07,0 -0.13,0.03 -0.17,0.08 -0.04,0.04 -0.07,0.09 -0.07,0.15 0.02,0 0.05,0.01 0.06,0.03l0 0c0.02,0.02 0.04,0.05 0.04,0.09l0 0.45c0,0.03 -0.02,0.06 -0.04,0.08 -0.01,0.02 -0.04,0.03 -0.06,0.03l0 0.24c0.02,0.01 0.05,0.02 0.06,0.04l0 0c0.02,0.02 0.04,0.05 0.04,0.08l0 0.45c0,0.03 -0.02,0.06 -0.04,0.08 -0.01,0.02 -0.04,0.03 -0.06,0.04zm-0.13 -0.17l0.05 0 0 -0.35 -0.05 0 0 0.35zm0 -0.93l0.05 0 0 -0.34 -0.05 0 0 0.34z"
   id="path7" />
 </g>
</svg>
