<?xml version="1.0" encoding="UTF-8" standalone="no"?>
<svg
   xmlns:dc="http://purl.org/dc/elements/1.1/"
   xmlns:cc="http://creativecommons.org/ns#"
   xmlns:rdf="http://www.w3.org/1999/02/22-rdf-syntax-ns#"
   xmlns:svg="http://www.w3.org/2000/svg"
   xmlns="http://www.w3.org/2000/svg"
   xmlns:sodipodi="http://sodipodi.sourceforge.net/DTD/sodipodi-0.dtd"
   xmlns:inkscape="http://www.inkscape.org/namespaces/inkscape"
   xml:space="preserve"
   width="21px"
   height="21px"
   version="1.0"
   style="shape-rendering:geometricPrecision; text-rendering:geometricPrecision; image-rendering:optimizeQuality; fill-rule:evenodd; clip-rule:evenodd"
   viewBox="0 0 4.03 4.01"
   id="svg18"
   sodipodi:docname="ic-nav-dashboard-active.svg"><metadata
   id="metadata22"><rdf:RDF><cc:Work
       rdf:about=""><dc:format>image/svg+xml</dc:format><dc:type
         rdf:resource="http://purl.org/dc/dcmitype/StillImage" /></cc:Work></rdf:RDF></metadata><sodipodi:namedview
   pagecolor="#ffffff"
   bordercolor="#666666"
   borderopacity="1"
   objecttolerance="10"
   gridtolerance="10"
   guidetolerance="10"
   inkscape:pageopacity="0"
   inkscape:pageshadow="2"
   inkscape:window-width="640"
   inkscape:window-height="480"
   id="namedview20"
   inkscape:document-rotation="0" />
 <defs
   id="defs4">
  <style
   type="text/css"
   id="style2">
   <![CDATA[
    .str0 {stroke:white;stroke-width:0.28;stroke-linecap:round;stroke-linejoin:round;stroke-miterlimit:22.9256}
    .fil1 {fill:none;fill-rule:nonzero}
    .fil0 {fill:white;fill-rule:nonzero}
   ]]>
  </style>
 </defs>
 <g
   id="Слой_x0020_1">
  <metadata
   id="CorelCorpID_0Corel-Layer" />
  <g
   id="g9">
   <path
   class="fil0"
   d="M3.76 1.48c0,-0.08 0.06,-0.14 0.13,-0.14 0.08,0 0.14,0.06 0.14,0.14l-0.27 0zm0 2.39l0 -2.39 0.27 0 0 2.39 -0.14 0.14 -0.13 -0.14zm0.27 0c0,0.08 -0.06,0.14 -0.14,0.14 -0.07,0 -0.13,-0.06 -0.13,-0.14l0.27 0zm-1.45 -0.13l1.31 0 0 0.27 -1.31 0 0 -0.27zm0 0.27c-0.08,0 -0.14,-0.06 -0.14,-0.14 0,-0.07 0.06,-0.13 0.14,-0.13l0 0.27zm-1.13 -0.27c0.08,0 0.14,0.06 0.14,0.13 0,0.08 -0.06,0.14 -0.14,0.14l0 -0.27zm-1.31 0l1.31 0 0 0.27 -1.31 0 -0.14 -0.14 0.14 -0.13zm0 0.27c-0.08,0 -0.14,-0.06 -0.14,-0.14 0,-0.07 0.06,-0.13 0.14,-0.13l0 0.27zm0.14 -2.53l0 2.39 -0.28 0 0 -2.39 0.28 0zm-0.28 0c0,-0.08 0.06,-0.14 0.14,-0.14 0.07,0 0.14,0.06 0.14,0.14l-0.28 0z"
   id="path7" />
  </g>
  <polyline
   class="fil1 str0"
   points="0.14,1.48 2.02,0.14 3.89,1.48 "
   id="polyline11" />
  <g
   id="g15">
   <path
   class="fil0"
   d="M2.44 3.87l0.28 0c0,0.08 -0.06,0.14 -0.14,0.14 -0.08,0 -0.14,-0.06 -0.14,-0.14zm0 -1.61l0.14 -0.14 0.14 0.14 0 1.61 -0.28 0 0 -1.61zm0.28 0l-0.28 0c0,-0.08 0.06,-0.14 0.14,-0.14 0.08,0 0.14,0.06 0.14,0.14zm-1.27 0.14l-0.14 -0.14 0.14 -0.14 1.13 0 0 0.28 -1.13 0zm0 -0.28l0 0.28c-0.07,0 -0.14,-0.06 -0.14,-0.14 0,-0.08 0.07,-0.14 0.14,-0.14zm0.14 1.75l-0.28 0 0 -1.61 0.28 0 0 1.61zm-0.28 0l0.28 0c0,0.08 -0.06,0.14 -0.14,0.14 -0.07,0 -0.14,-0.06 -0.14,-0.14z"
   id="path13" />
  </g>
 </g>
</svg>
