<?xml version="1.0" encoding="UTF-8" standalone="no"?>
<svg
   xmlns:dc="http://purl.org/dc/elements/1.1/"
   xmlns:cc="http://creativecommons.org/ns#"
   xmlns:rdf="http://www.w3.org/1999/02/22-rdf-syntax-ns#"
   xmlns:svg="http://www.w3.org/2000/svg"
   xmlns="http://www.w3.org/2000/svg"
   xmlns:sodipodi="http://sodipodi.sourceforge.net/DTD/sodipodi-0.dtd"
   xmlns:inkscape="http://www.inkscape.org/namespaces/inkscape"
   xml:space="preserve"
   width="23px"
   height="21px"
   version="1.0"
   style="shape-rendering:geometricPrecision; text-rendering:geometricPrecision; image-rendering:optimizeQuality; fill-rule:evenodd; clip-rule:evenodd"
   viewBox="0 0 15.54 14.45"
   id="svg10"
   sodipodi:docname="ic-nav-receive-hover.svg"><metadata
   id="metadata14"><rdf:RDF><cc:Work
       rdf:about=""><dc:format>image/svg+xml</dc:format><dc:type
         rdf:resource="http://purl.org/dc/dcmitype/StillImage" /></cc:Work></rdf:RDF></metadata><sodipodi:namedview
   pagecolor="#ffffff"
   bordercolor="#666666"
   borderopacity="1"
   objecttolerance="10"
   gridtolerance="10"
   guidetolerance="10"
   inkscape:pageopacity="0"
   inkscape:pageshadow="2"
   inkscape:window-width="640"
   inkscape:window-height="480"
   id="namedview12"
   inkscape:document-rotation="0" />
 <defs
   id="defs4">
  <style
   type="text/css"
   id="style2">
   <![CDATA[
    .fil0 {fill:#8390F2;fill-rule:nonzero}
   ]]>
  </style>
 </defs>
 <g
   id="Слой_x0020_1">
  <metadata
   id="CorelCorpID_0Corel-Layer" />
  <path
   class="fil0"
   d="M14.14 11.74l0.12 0c0.36,0 0.68,0.16 0.92,0.42 0.22,0.24 0.36,0.57 0.36,0.93 0,0.37 -0.14,0.7 -0.36,0.94 -0.23,0.26 -0.56,0.42 -0.92,0.42l-12.98 0c-0.36,0 -0.68,-0.16 -0.92,-0.42l-0.02 -0.03c-0.21,-0.24 -0.34,-0.56 -0.34,-0.91 0,-0.36 0.14,-0.69 0.36,-0.93l0.03 -0.03c0.23,-0.24 0.55,-0.39 0.89,-0.39l0.14 0 -0.15 -0.23c-0.69,-1.15 -1.09,-2.49 -1.09,-3.92 0,-2.09 0.85,-3.99 2.23,-5.36 1.37,-1.38 3.27,-2.23 5.37,-2.23 2.09,0 3.99,0.85 5.36,2.22l0.01 0.01c1.37,1.38 2.22,3.27 2.22,5.36 0,1.45 -0.41,2.81 -1.11,3.96l-0.12 0.19zm-4.43 -2.88c0.18,0.18 0.18,0.48 0,0.67 -0.19,0.18 -0.49,0.18 -0.67,0l-0.79 -0.79 0 1.11c0,0.26 -0.21,0.48 -0.47,0.48 -0.26,0 -0.48,-0.22 -0.48,-0.48l0 -1.11 -0.78 0.79c-0.19,0.18 -0.49,0.18 -0.67,0 -0.19,-0.19 -0.19,-0.49 0,-0.67l0.78 -0.79 -1.11 0c-0.26,0 -0.47,-0.21 -0.47,-0.48 0,-0.26 0.21,-0.47 0.47,-0.47l1.11 0 -0.78 -0.79c-0.19,-0.18 -0.19,-0.48 0,-0.67 0.18,-0.18 0.48,-0.18 0.67,0l0.78 0.79 0 -1.11c0,-0.26 0.22,-0.48 0.48,-0.48 0.26,0 0.47,0.22 0.47,0.48l0 1.11 0.79 -0.79c0.18,-0.18 0.48,-0.18 0.67,0 0.18,0.19 0.18,0.49 0,0.67l-0.79 0.79 1.11 0c0.27,0 0.48,0.21 0.48,0.47 0,0.27 -0.21,0.48 -0.48,0.48l-1.11 0 0.79 0.79zm-6.12 -3.02c-0.11,0.23 -0.39,0.34 -0.63,0.24 -0.24,-0.11 -0.34,-0.39 -0.24,-0.62l0.07 -0.16c0.1,-0.24 0.38,-0.35 0.62,-0.24 0.24,0.1 0.35,0.38 0.24,0.62l-0.06 0.16zm0.9 -1.39c-0.18,0.19 -0.48,0.2 -0.66,0.02 -0.19,-0.18 -0.2,-0.48 -0.02,-0.67 0.51,-0.53 1.13,-0.96 1.81,-1.26 0.66,-0.28 1.4,-0.44 2.16,-0.44 1.51,0 2.89,0.62 3.88,1.61l0.03 0.04c0.97,0.99 1.58,2.35 1.58,3.84 0,1.52 -0.62,2.89 -1.61,3.89 -0.99,0.99 -2.37,1.6 -3.88,1.6 -1.52,0 -2.89,-0.61 -3.88,-1.6 -1,-1 -1.61,-2.37 -1.61,-3.89 0,-0.26 0.21,-0.47 0.47,-0.47 0.26,0 0.47,0.21 0.47,0.47 0,1.26 0.51,2.4 1.33,3.22 0.83,0.82 1.96,1.33 3.22,1.33 1.25,0 2.39,-0.51 3.21,-1.33 0.82,-0.82 1.33,-1.96 1.33,-3.22 0,-1.24 -0.5,-2.36 -1.3,-3.18l-0.03 -0.03c-0.82,-0.82 -1.96,-1.33 -3.21,-1.33 -0.64,0 -1.24,0.13 -1.79,0.36 -0.57,0.25 -1.08,0.6 -1.5,1.04zm-2.29 8.29l-0.92 0c-0.06,0 -0.12,0.03 -0.17,0.08l-0.01 0.01c-0.06,0.07 -0.1,0.16 -0.1,0.26 0,0.11 0.03,0.19 0.09,0.26l0.01 0.01c0.05,0.05 0.11,0.09 0.18,0.09l1.66 0c-0.26,-0.22 -0.51,-0.46 -0.74,-0.71zm2.42 0.71l6.32 0c1.03,-0.56 1.9,-1.39 2.51,-2.39 0.62,-1.01 0.97,-2.2 0.97,-3.47 0,-1.83 -0.74,-3.49 -1.94,-4.7 -1.2,-1.2 -2.87,-1.94 -4.7,-1.94 -1.84,0 -3.5,0.74 -4.7,1.94 -1.21,1.21 -1.95,2.87 -1.95,4.7 0,1.26 0.35,2.43 0.95,3.43 0.61,1.02 1.49,1.86 2.54,2.43zm7.99 0l1.65 0c0.07,0 0.14,-0.04 0.19,-0.09 0.06,-0.07 0.09,-0.16 0.09,-0.27 0,-0.1 -0.03,-0.2 -0.09,-0.26 -0.05,-0.05 -0.12,-0.09 -0.19,-0.09l-0.9 0c-0.23,0.25 -0.48,0.49 -0.75,0.71z"
   id="path7" />
 </g>
</svg>
