<?xml version="1.0" encoding="UTF-8" standalone="no"?>
<svg
   xmlns:dc="http://purl.org/dc/elements/1.1/"
   xmlns:cc="http://creativecommons.org/ns#"
   xmlns:rdf="http://www.w3.org/1999/02/22-rdf-syntax-ns#"
   xmlns:svg="http://www.w3.org/2000/svg"
   xmlns="http://www.w3.org/2000/svg"
   xmlns:sodipodi="http://sodipodi.sourceforge.net/DTD/sodipodi-0.dtd"
   xmlns:inkscape="http://www.inkscape.org/namespaces/inkscape"
   xml:space="preserve"
   width="21px"
   height="21px"
   version="1.0"
   style="shape-rendering:geometricPrecision; text-rendering:geometricPrecision; image-rendering:optimizeQuality; fill-rule:evenodd; clip-rule:evenodd"
   viewBox="0 0 4.39 4.37"
   id="svg18"
   sodipodi:docname="ic-nav-dashboard.svg"><metadata
   id="metadata22"><rdf:RDF><cc:Work
       rdf:about=""><dc:format>image/svg+xml</dc:format><dc:type
         rdf:resource="http://purl.org/dc/dcmitype/StillImage" /></cc:Work></rdf:RDF></metadata><sodipodi:namedview
   pagecolor="#ffffff"
   bordercolor="#666666"
   borderopacity="1"
   objecttolerance="10"
   gridtolerance="10"
   guidetolerance="10"
   inkscape:pageopacity="0"
   inkscape:pageshadow="2"
   inkscape:window-width="640"
   inkscape:window-height="480"
   id="namedview20"
   inkscape:document-rotation="0" />
 <defs
   id="defs4">
  <style
   type="text/css"
   id="style2">
   <![CDATA[
    .str0 {stroke:#6172F2;stroke-width:0.3;stroke-linecap:round;stroke-linejoin:round;stroke-miterlimit:22.9256}
    .fil1 {fill:none;fill-rule:nonzero}
    .fil0 {fill:#6172F2;fill-rule:nonzero}
   ]]>
  </style>
 </defs>
 <g
   id="Слой_x0020_1">
  <metadata
   id="CorelCorpID_0Corel-Layer" />
  <g
   id="g9">
   <path
   class="fil0"
   d="M4.09 1.61c0,-0.08 0.07,-0.15 0.15,-0.15 0.09,0 0.15,0.07 0.15,0.15l-0.3 0zm0 2.61l0 -2.61 0.3 0 0 2.61 -0.15 0.15 -0.15 -0.15zm0.3 0c0,0.08 -0.06,0.15 -0.15,0.15 -0.08,0 -0.15,-0.07 -0.15,-0.15l0.3 0zm-1.58 -0.15l1.43 0 0 0.3 -1.43 0 0 -0.3zm0 0.3c-0.08,0 -0.15,-0.07 -0.15,-0.15 0,-0.08 0.07,-0.15 0.15,-0.15l0 0.3zm-1.23 -0.3c0.09,0 0.15,0.07 0.15,0.15 0,0.08 -0.06,0.15 -0.15,0.15l0 -0.3zm-1.43 0l1.43 0 0 0.3 -1.43 0 -0.15 -0.15 0.15 -0.15zm0 0.3c-0.08,0 -0.15,-0.07 -0.15,-0.15 0,-0.08 0.07,-0.15 0.15,-0.15l0 0.3zm0.15 -2.76l0 2.61 -0.3 0 0 -2.61 0.3 0zm-0.3 0c0,-0.08 0.07,-0.15 0.15,-0.15 0.08,0 0.15,0.07 0.15,0.15l-0.3 0z"
   id="path7" />
  </g>
  <polyline
   class="fil1 str0"
   points="0.15,1.61 2.2,0.15 4.24,1.61 "
   id="polyline11" />
  <g
   id="g15">
   <path
   class="fil0"
   d="M2.66 4.22l0.3 0c0,0.09 -0.06,0.15 -0.15,0.15 -0.08,0 -0.15,-0.06 -0.15,-0.15zm0 -1.76l0.15 -0.15 0.15 0.15 0 1.76 -0.3 0 0 -1.76zm0.3 0l-0.3 0c0,-0.08 0.07,-0.15 0.15,-0.15 0.09,0 0.15,0.07 0.15,0.15zm-1.38 0.15l-0.15 -0.15 0.15 -0.15 1.23 0 0 0.3 -1.23 0zm0 -0.3l0 0.3c-0.08,0 -0.15,-0.06 -0.15,-0.15 0,-0.08 0.07,-0.15 0.15,-0.15zm0.15 1.91l-0.3 0 0 -1.76 0.3 0 0 1.76zm-0.3 0l0.3 0c0,0.09 -0.06,0.15 -0.15,0.15 -0.08,0 -0.15,-0.06 -0.15,-0.15z"
   id="path13" />
  </g>
 </g>
</svg>
