<?xml version="1.0" encoding="UTF-8" standalone="no"?>
<svg
   xmlns:dc="http://purl.org/dc/elements/1.1/"
   xmlns:cc="http://creativecommons.org/ns#"
   xmlns:rdf="http://www.w3.org/1999/02/22-rdf-syntax-ns#"
   xmlns:svg="http://www.w3.org/2000/svg"
   xmlns="http://www.w3.org/2000/svg"
   xmlns:sodipodi="http://sodipodi.sourceforge.net/DTD/sodipodi-0.dtd"
   xmlns:inkscape="http://www.inkscape.org/namespaces/inkscape"
   xml:space="preserve"
   width="21px"
   height="21px"
   version="1.0"
   style="shape-rendering:geometricPrecision; text-rendering:geometricPrecision; image-rendering:optimizeQuality; fill-rule:evenodd; clip-rule:evenodd"
   viewBox="0 0 1.54 1.57"
   id="svg10"
   sodipodi:docname="ic-nav-master-hover.svg"><metadata
   id="metadata14"><rdf:RDF><cc:Work
       rdf:about=""><dc:format>image/svg+xml</dc:format><dc:type
         rdf:resource="http://purl.org/dc/dcmitype/StillImage" /></cc:Work></rdf:RDF></metadata><sodipodi:namedview
   pagecolor="#ffffff"
   bordercolor="#666666"
   borderopacity="1"
   objecttolerance="10"
   gridtolerance="10"
   guidetolerance="10"
   inkscape:pageopacity="0"
   inkscape:pageshadow="2"
   inkscape:window-width="640"
   inkscape:window-height="480"
   id="namedview12"
   inkscape:document-rotation="0" />
 <defs
   id="defs4">
  <style
   type="text/css"
   id="style2">
   <![CDATA[
    .fil0 {fill:#8390F2;fill-rule:nonzero}
   ]]>
  </style>
 </defs>
 <g
   id="Слой_x0020_1">
  <metadata
   id="CorelCorpID_0Corel-Layer" />
  <path
   class="fil0"
   d="M0.11 0l1.31 0c0.03,0 0.06,0.01 0.08,0.03 0.02,0.02 0.04,0.05 0.04,0.08l0 0.25c0,0.04 -0.02,0.06 -0.04,0.08 0,0.01 0,0.01 0,0.01l0 0.12c0,0 0,0.01 0,0.01 0.02,0.02 0.04,0.05 0.04,0.08l0 0.25c0,0.03 -0.02,0.06 -0.04,0.08 0,0 0,0 0,0.01l0 0.12c0,0 0,0 0,0 0.02,0.02 0.04,0.05 0.04,0.08l0 0.25c0,0.03 -0.02,0.06 -0.04,0.08 -0.02,0.03 -0.05,0.04 -0.08,0.04l-1.31 0c-0.03,0 -0.06,-0.01 -0.08,-0.04 -0.02,-0.02 -0.03,-0.05 -0.03,-0.08l0 -0.25c0,-0.03 0.01,-0.06 0.03,-0.08 0.01,0 0.01,0 0.01,0l0 -0.12c0,-0.01 0,-0.01 -0.01,-0.01 -0.02,-0.02 -0.03,-0.05 -0.03,-0.08l0 -0.25c0,-0.03 0.01,-0.06 0.03,-0.08 0.01,0 0.01,-0.01 0.01,-0.01l0 -0.12c0,0 0,0 -0.01,-0.01 -0.02,-0.02 -0.03,-0.04 -0.03,-0.08l0 -0.25c0,-0.03 0.01,-0.06 0.03,-0.08 0.02,-0.02 0.05,-0.03 0.08,-0.03zm0.37 0.14l0 0.2 -0.09 0 0 -0.2 0.09 0zm0 0.55l0 0.19 -0.09 0 0 -0.19 0.09 0zm0 0.54l0 0.2 -0.09 0 0 -0.2 0.09 0zm0.81 0.1c0,-0.03 0.02,-0.05 0.05,-0.05 0.03,0 0.05,0.02 0.05,0.05l0 0c0,0.03 -0.02,0.05 -0.05,0.05 -0.03,0 -0.05,-0.02 -0.05,-0.05l0 0zm-0.14 0c0,-0.03 0.02,-0.05 0.05,-0.05 0.03,0 0.05,0.02 0.05,0.05l0 0c0,0.03 -0.02,0.05 -0.05,0.05 -0.03,0 -0.05,-0.02 -0.05,-0.05l0 0zm-0.14 0c0,-0.03 0.02,-0.05 0.05,-0.05 0.03,0 0.05,0.02 0.05,0.05l0 0c0,0.03 -0.02,0.05 -0.05,0.05 -0.03,0 -0.05,-0.02 -0.05,-0.05l0 0zm-0.14 0c0,-0.03 0.03,-0.05 0.06,-0.05 0.02,0 0.05,0.02 0.05,0.05l0 0c0,0.03 -0.03,0.05 -0.05,0.05 -0.03,0 -0.06,-0.02 -0.06,-0.05l0 0zm0.42 -0.55c0,-0.03 0.02,-0.05 0.05,-0.05 0.03,0 0.05,0.02 0.05,0.05l0 0c0,0.03 -0.02,0.06 -0.05,0.06 -0.03,0 -0.05,-0.03 -0.05,-0.06l0 0zm-0.14 0c0,-0.03 0.02,-0.05 0.05,-0.05 0.03,0 0.05,0.02 0.05,0.05l0 0c0,0.03 -0.02,0.06 -0.05,0.06 -0.03,0 -0.05,-0.03 -0.05,-0.06l0 0zm-0.14 0c0,-0.03 0.02,-0.05 0.05,-0.05 0.03,0 0.05,0.02 0.05,0.05l0 0c0,0.03 -0.02,0.06 -0.05,0.06 -0.03,0 -0.05,-0.03 -0.05,-0.06l0 0zm-0.14 0c0,-0.03 0.03,-0.05 0.06,-0.05 0.02,0 0.05,0.02 0.05,0.05l0 0c0,0.03 -0.03,0.06 -0.05,0.06 -0.03,0 -0.06,-0.03 -0.06,-0.06l0 0zm0.42 -0.54c0,-0.03 0.02,-0.05 0.05,-0.05 0.03,0 0.05,0.02 0.05,0.05l0 0c0,0.03 -0.02,0.05 -0.05,0.05 -0.03,0 -0.05,-0.02 -0.05,-0.05l0 0zm-0.14 0c0,-0.03 0.02,-0.05 0.05,-0.05 0.03,0 0.05,0.02 0.05,0.05l0 0c0,0.03 -0.02,0.05 -0.05,0.05 -0.03,0 -0.05,-0.02 -0.05,-0.05l0 0zm-0.14 0c0,-0.03 0.02,-0.05 0.05,-0.05 0.03,0 0.05,0.02 0.05,0.05l0 0c0,0.03 -0.02,0.05 -0.05,0.05 -0.03,0 -0.05,-0.02 -0.05,-0.05l0 0zm-0.14 0c0,-0.03 0.03,-0.05 0.06,-0.05 0.02,0 0.05,0.02 0.05,0.05l0 0c0,0.03 -0.03,0.05 -0.05,0.05 -0.03,0 -0.06,-0.02 -0.06,-0.05l0 0zm-0.52 -0.1l0 0.2 -0.08 0 0 -0.2 0.08 0zm-0.12 0l0 0.2 -0.09 0 0 -0.2 0.09 0zm0.12 0.55l0 0.19 -0.08 0 0 -0.19 0.08 0zm-0.12 0l0 0.19 -0.09 0 0 -0.19 0.09 0zm0.12 0.54l0 0.2 -0.08 0 0 -0.2 0.08 0zm-0.12 0l0 0.2 -0.09 0 0 -0.2 0.09 0zm-0.12 -0.85l1.31 0c0.01,0 0.01,-0.01 0.01,-0.01 0,0 0,0 0,-0.01l0 -0.25c0,0 0,0 0,0 0,-0.01 -0.01,-0.01 -0.01,-0.01l-1.31 0c0,0 0,0 0,0.01 -0.01,0 -0.01,0 -0.01,0l0 0.25c0,0.01 0,0.01 0.01,0.01 0,0 0,0.01 0,0.01zm1.31 0.27l-1.31 0c0,0 0,0 0,0 -0.01,0 -0.01,0.01 -0.01,0.01l0 0.25c0,0 0,0.01 0.01,0.01 0,0 0,0 0,0l1.31 0c0.01,0 0.01,0 0.01,0 0,0 0,-0.01 0,-0.01l0 -0.25c0,0 0,-0.01 0,-0.01 0,0 0,0 -0.01,0zm-0.03 -0.17l-1.25 0 0 0.06 1.25 0 0 -0.06zm0.03 0.71l-1.31 0c0,0 0,0 0,0 -0.01,0.01 -0.01,0.01 -0.01,0.01l0 0.25c0,0.01 0,0.01 0.01,0.01 0,0 0,0.01 0,0.01l1.31 0c0,0 0.01,-0.01 0.01,-0.01 0,0 0,0 0,-0.01l0 -0.25c0,0 0,0 0,-0.01 0,0 0,0 -0.01,0zm-0.03 -0.17l-1.25 0 0 0.07 1.25 0 0 -0.07z"
   id="path7" />
 </g>
</svg>
