<?xml version="1.0" encoding="UTF-8" standalone="no"?>
<svg
   xmlns:dc="http://purl.org/dc/elements/1.1/"
   xmlns:cc="http://creativecommons.org/ns#"
   xmlns:rdf="http://www.w3.org/1999/02/22-rdf-syntax-ns#"
   xmlns:svg="http://www.w3.org/2000/svg"
   xmlns="http://www.w3.org/2000/svg"
   xmlns:sodipodi="http://sodipodi.sourceforge.net/DTD/sodipodi-0.dtd"
   xmlns:inkscape="http://www.inkscape.org/namespaces/inkscape"
   xml:space="preserve"
   width="24px"
   height="24px"
   version="1.0"
   style="shape-rendering:geometricPrecision; text-rendering:geometricPrecision; image-rendering:optimizeQuality; fill-rule:evenodd; clip-rule:evenodd"
   viewBox="0 0 15.71 15.71"
   id="svg12"
   sodipodi:docname="ic-receive-on.svg"><metadata
   id="metadata16"><rdf:RDF><cc:Work
       rdf:about=""><dc:format>image/svg+xml</dc:format><dc:type
         rdf:resource="http://purl.org/dc/dcmitype/StillImage" /></cc:Work></rdf:RDF></metadata><sodipodi:namedview
   pagecolor="#ffffff"
   bordercolor="#666666"
   borderopacity="1"
   objecttolerance="10"
   gridtolerance="10"
   guidetolerance="10"
   inkscape:pageopacity="0"
   inkscape:pageshadow="2"
   inkscape:window-width="640"
   inkscape:window-height="480"
   id="namedview14"
   inkscape:document-rotation="0" />
 <defs
   id="defs4">
  <style
   type="text/css"
   id="style2">
   <![CDATA[
    .fil0 {fill:none}
    .fil1 {fill:#6172F2;fill-rule:nonzero}
   ]]>
  </style>
 </defs>
 <g
   id="Слой_x0020_1">
  <metadata
   id="CorelCorpID_0Corel-Layer" />
  <rect
   class="fil0"
   width="15.71"
   height="15.71"
   id="rect7" />
  <path
   class="fil1"
   d="M3 12.43l0 0.01 0.96 0c-0.3,-0.37 -0.56,-0.78 -0.76,-1.22 -0.29,-0.64 -0.45,-1.34 -0.45,-2.08 0,-0.19 0.16,-0.35 0.35,-0.35 0.19,0 0.35,0.16 0.35,0.35 0,0.64 0.13,1.25 0.38,1.8 0.26,0.57 0.63,1.08 1.09,1.49l0.01 0.01 5.85 0c0.01,-0.01 0.01,-0.01 0.01,-0.01 0.46,-0.41 0.84,-0.92 1.09,-1.49 0.25,-0.55 0.38,-1.16 0.38,-1.8 0,-1.22 -0.49,-2.32 -1.29,-3.12 -0.8,-0.8 -1.9,-1.29 -3.11,-1.29 -0.68,0 -1.33,0.15 -1.9,0.43 -0.6,0.28 -1.12,0.7 -1.53,1.2 -0.12,0.15 -0.34,0.17 -0.49,0.05 -0.14,-0.12 -0.17,-0.34 -0.05,-0.48 0.48,-0.59 1.09,-1.07 1.77,-1.4 0.67,-0.31 1.41,-0.49 2.2,-0.49 1.4,0 2.68,0.57 3.6,1.49 0.92,0.93 1.5,2.2 1.5,3.61 0,0.74 -0.16,1.44 -0.45,2.08 -0.2,0.44 -0.46,0.85 -0.77,1.22l0.97 0c0.32,-0.48 0.58,-1.01 0.75,-1.57 0.17,-0.55 0.26,-1.13 0.26,-1.73 0,-1.62 -0.66,-3.09 -1.72,-4.15 -1.06,-1.06 -2.52,-1.72 -4.14,-1.72 -1.62,0 -3.09,0.66 -4.15,1.72 -1.06,1.06 -1.72,2.53 -1.72,4.15 0,0.6 0.09,1.18 0.26,1.72 0.17,0.57 0.42,1.1 0.75,1.57zm-0.81 0.01c-0.09,-0.15 -0.17,-0.3 -0.25,-0.46l-0.36 0c-0.13,0 -0.25,0.04 -0.33,0.1 -0.05,0.04 -0.08,0.08 -0.08,0.13 0,0.04 0.03,0.09 0.08,0.13 0.08,0.06 0.2,0.1 0.33,0.1l0.61 0zm-0.53 -1.15c-0.03,-0.08 -0.05,-0.15 -0.07,-0.22 -0.19,-0.62 -0.29,-1.26 -0.29,-1.93 0,-1.81 0.73,-3.45 1.92,-4.64 1.18,-1.19 2.82,-1.92 4.64,-1.92 1.81,0 3.45,0.73 4.63,1.92 1.19,1.19 1.92,2.83 1.92,4.64 0,0.67 -0.1,1.32 -0.29,1.93 -0.02,0.07 -0.04,0.14 -0.07,0.22l0.08 0c0.29,0 0.55,0.09 0.75,0.24 0.22,0.17 0.36,0.41 0.36,0.68 0,0.27 -0.14,0.51 -0.36,0.68 -0.2,0.15 -0.46,0.24 -0.75,0.24l-12.55 0c-0.29,0 -0.55,-0.09 -0.75,-0.24 -0.22,-0.17 -0.36,-0.41 -0.36,-0.68 0,-0.27 0.14,-0.51 0.36,-0.68 0.2,-0.15 0.46,-0.24 0.75,-0.24l0.08 0zm12.11 0.69c-0.08,0.15 -0.16,0.31 -0.25,0.46l0.61 0c0.13,0 0.25,-0.04 0.33,-0.1 0.05,-0.04 0.08,-0.09 0.08,-0.13 0,-0.05 -0.03,-0.09 -0.08,-0.13 -0.08,-0.06 -0.2,-0.1 -0.33,-0.1l-0.33 0c-0.01,0 -0.02,0 -0.03,0zm-4.28 -1.69c0.14,0.13 0.14,0.35 0,0.49 -0.13,0.13 -0.35,0.13 -0.49,0l-0.8 -0.81 0 1.14c0,0.19 -0.15,0.34 -0.34,0.34 -0.2,0 -0.35,-0.15 -0.35,-0.34l0 -1.14 -0.8 0.81c-0.14,0.13 -0.36,0.13 -0.49,0 -0.14,-0.14 -0.14,-0.36 0,-0.49l0.8 -0.81 -1.13 0c-0.2,0 -0.35,-0.15 -0.35,-0.34 0,-0.19 0.15,-0.35 0.35,-0.35l1.13 0 -0.8 -0.8c-0.14,-0.13 -0.14,-0.35 0,-0.49 0.13,-0.13 0.35,-0.13 0.49,0l0.8 0.8 0 -1.13c0,-0.19 0.15,-0.35 0.35,-0.35 0.19,0 0.34,0.16 0.34,0.35l0 1.13 0.8 -0.8c0.14,-0.13 0.36,-0.13 0.49,0 0.14,0.14 0.14,0.36 0,0.49l-0.8 0.8 1.14 0c0.19,0 0.34,0.16 0.34,0.35 0,0.19 -0.15,0.34 -0.34,0.34l-1.14 0 0.8 0.81zm-5.7 -2.87c-0.07,0.18 -0.28,0.26 -0.45,0.19 -0.18,-0.08 -0.26,-0.28 -0.18,-0.45l0.03 -0.08 0.03 -0.08c0.08,-0.17 0.29,-0.25 0.46,-0.17 0.18,0.08 0.25,0.29 0.17,0.46l-0.06 0.13z"
   id="path9" />
 </g>
</svg>
