<?xml version="1.0" encoding="UTF-8" standalone="no"?>
<svg
   xmlns:dc="http://purl.org/dc/elements/1.1/"
   xmlns:cc="http://creativecommons.org/ns#"
   xmlns:rdf="http://www.w3.org/1999/02/22-rdf-syntax-ns#"
   xmlns:svg="http://www.w3.org/2000/svg"
   xmlns="http://www.w3.org/2000/svg"
   xmlns:sodipodi="http://sodipodi.sourceforge.net/DTD/sodipodi-0.dtd"
   xmlns:inkscape="http://www.inkscape.org/namespaces/inkscape"
   xml:space="preserve"
   width="24px"
   height="24px"
   version="1.0"
   style="shape-rendering:geometricPrecision; text-rendering:geometricPrecision; image-rendering:optimizeQuality; fill-rule:evenodd; clip-rule:evenodd"
   viewBox="0 0 3.32 3.32"
   id="svg14"
   sodipodi:docname="ic-submenu-lock.svg"><metadata
   id="metadata18"><rdf:RDF><cc:Work
       rdf:about=""><dc:format>image/svg+xml</dc:format><dc:type
         rdf:resource="http://purl.org/dc/dcmitype/StillImage" /></cc:Work></rdf:RDF></metadata><sodipodi:namedview
   pagecolor="#ffffff"
   bordercolor="#666666"
   borderopacity="1"
   objecttolerance="10"
   gridtolerance="10"
   guidetolerance="10"
   inkscape:pageopacity="0"
   inkscape:pageshadow="2"
   inkscape:window-width="640"
   inkscape:window-height="480"
   id="namedview16"
   inkscape:document-rotation="0" />
 <defs
   id="defs4">
  <style
   type="text/css"
   id="style2">
   <![CDATA[
    .fil1 {fill:none}
    .fil0 {fill:#F05A40;fill-rule:nonzero}
   ]]>
  </style>
 </defs>
 <g
   id="Слой_x0020_1">
  <metadata
   id="CorelCorpID_0Corel-Layer" />
  <path
   class="fil0"
   d="M0.88 1.15l0 -0.29c0,-0.21 0.09,-0.41 0.23,-0.55l0 0c0.14,-0.14 0.34,-0.23 0.55,-0.23 0.22,0 0.42,0.09 0.56,0.23 0.14,0.15 0.22,0.35 0.22,0.57l-0.25 0c0,-0.15 -0.05,-0.3 -0.15,-0.4 -0.09,-0.09 -0.23,-0.15 -0.38,-0.15 -0.15,0 -0.28,0.06 -0.38,0.15l0 0c-0.09,0.1 -0.15,0.23 -0.15,0.38l0 0.27 1.19 0c0.15,0 0.29,0.07 0.39,0.17l0 0c0.1,0.1 0.16,0.24 0.16,0.39l0 1c0,0.15 -0.06,0.29 -0.16,0.39l0 0c-0.1,0.1 -0.24,0.16 -0.39,0.16l-1.32 0c-0.15,0 -0.29,-0.06 -0.39,-0.16l0 -0.01c-0.1,-0.1 -0.16,-0.23 -0.16,-0.38l0 -1c0,-0.15 0.06,-0.29 0.16,-0.39 0.08,-0.08 0.17,-0.13 0.27,-0.15zm0.65 0.54l0.26 0c0.07,0 0.13,0.03 0.17,0.07l0.01 0.01c0.04,0.04 0.06,0.1 0.06,0.16l0 0.56c0,0.07 -0.03,0.13 -0.07,0.17 -0.04,0.04 -0.1,0.07 -0.17,0.07l-0.26 0c-0.07,0 -0.12,-0.03 -0.17,-0.07l0 0c-0.04,-0.04 -0.07,-0.1 -0.07,-0.17l0 -0.56c0,-0.07 0.03,-0.13 0.07,-0.17l0 0c0.05,-0.04 0.1,-0.07 0.17,-0.07zm0.25 0.25l-0.24 0 0 0.54 0.24 0 0 -0.54zm0.54 -0.56l-1.32 0c-0.08,0 -0.16,0.03 -0.21,0.09l0 0c-0.06,0.06 -0.09,0.13 -0.09,0.22l0 1c0,0.08 0.03,0.16 0.08,0.21l0.01 0.01c0.05,0.05 0.13,0.09 0.21,0.09l1.32 0c0.08,0 0.16,-0.04 0.22,-0.09 0.05,-0.06 0.09,-0.14 0.09,-0.22l0 -1c0,-0.09 -0.04,-0.16 -0.09,-0.22 -0.06,-0.06 -0.14,-0.09 -0.22,-0.09z"
   id="path7" />
  <rect
   class="fil1"
   width="3.32"
   height="3.32"
   id="rect9" />
  <path
   class="fil0"
   d="M2.44 1.15l0 -0.29c0,-0.21 -0.09,-0.41 -0.23,-0.55l0 0c-0.14,-0.14 -0.34,-0.23 -0.55,-0.23 -0.22,0 -0.42,0.09 -0.55,0.23 -0.15,0.15 -0.23,0.35 -0.23,0.57l0.25 0c0,-0.15 0.06,-0.3 0.15,-0.4 0.1,-0.09 0.23,-0.15 0.38,-0.15 0.15,0 0.28,0.06 0.38,0.15l0 0c0.09,0.1 0.15,0.23 0.15,0.38l0 0.27 -1.19 0c-0.15,0 -0.29,0.07 -0.39,0.17l0 0c-0.1,0.1 -0.16,0.24 -0.16,0.39l0 1c0,0.15 0.06,0.29 0.16,0.39l0 0c0.1,0.1 0.24,0.16 0.39,0.16l1.32 0c0.15,0 0.29,-0.06 0.39,-0.16l0.01 -0.01c0.09,-0.1 0.15,-0.23 0.15,-0.38l0 -1c0,-0.15 -0.06,-0.29 -0.16,-0.39 -0.07,-0.08 -0.17,-0.13 -0.27,-0.15zm-0.65 0.54l-0.26 0c-0.07,0 -0.12,0.03 -0.17,0.07l-0.01 0.01c-0.03,0.04 -0.06,0.1 -0.06,0.16l0 0.56c0,0.07 0.03,0.13 0.07,0.17 0.05,0.04 0.1,0.07 0.17,0.07l0.26 0c0.07,0 0.13,-0.03 0.17,-0.07l0 0c0.04,-0.04 0.07,-0.1 0.07,-0.17l0 -0.56c0,-0.07 -0.03,-0.13 -0.07,-0.17l0 0c-0.04,-0.04 -0.1,-0.07 -0.17,-0.07zm-0.25 0.25l0.24 0 0 0.54 -0.24 0 0 -0.54zm-0.54 -0.56l1.32 0c0.08,0 0.16,0.03 0.22,0.09l0 0c0.05,0.06 0.09,0.13 0.09,0.22l0 1c0,0.08 -0.04,0.16 -0.09,0.21l0 0.01c-0.06,0.05 -0.14,0.09 -0.22,0.09l-1.32 0c-0.08,0 -0.16,-0.04 -0.21,-0.09 -0.06,-0.06 -0.09,-0.14 -0.09,-0.22l0 -1c0,-0.09 0.03,-0.16 0.09,-0.22 0.05,-0.06 0.13,-0.09 0.21,-0.09z"
   id="path11" />
 </g>
</svg>
