<?xml version="1.0" encoding="UTF-8" standalone="no"?>
<svg
   xmlns:dc="http://purl.org/dc/elements/1.1/"
   xmlns:cc="http://creativecommons.org/ns#"
   xmlns:rdf="http://www.w3.org/1999/02/22-rdf-syntax-ns#"
   xmlns:svg="http://www.w3.org/2000/svg"
   xmlns="http://www.w3.org/2000/svg"
   xmlns:sodipodi="http://sodipodi.sourceforge.net/DTD/sodipodi-0.dtd"
   xmlns:inkscape="http://www.inkscape.org/namespaces/inkscape"
   xml:space="preserve"
   width="24px"
   height="24px"
   version="1.0"
   style="shape-rendering:geometricPrecision; text-rendering:geometricPrecision; image-rendering:optimizeQuality; fill-rule:evenodd; clip-rule:evenodd"
   viewBox="0 0 2.22 2.22"
   id="svg14"
   sodipodi:docname="ic-submenu-unlock.svg"><metadata
   id="metadata18"><rdf:RDF><cc:Work
       rdf:about=""><dc:format>image/svg+xml</dc:format><dc:type
         rdf:resource="http://purl.org/dc/dcmitype/StillImage" /></cc:Work></rdf:RDF></metadata><sodipodi:namedview
   pagecolor="#ffffff"
   bordercolor="#666666"
   borderopacity="1"
   objecttolerance="10"
   gridtolerance="10"
   guidetolerance="10"
   inkscape:pageopacity="0"
   inkscape:pageshadow="2"
   inkscape:window-width="640"
   inkscape:window-height="480"
   id="namedview16"
   inkscape:document-rotation="0" />
 <defs
   id="defs4">
  <style
   type="text/css"
   id="style2">
   <![CDATA[
    .fil1 {fill:none}
    .fil0 {fill:#5C6BDD;fill-rule:nonzero}
   ]]>
  </style>
 </defs>
 <g
   id="Слой_x0020_1">
  <metadata
   id="CorelCorpID_0Corel-Layer" />
  <path
   class="fil0"
   d="M0.59 0.76l0 -0.19c0,-0.14 0.06,-0.27 0.15,-0.36l0 0c0.1,-0.1 0.23,-0.16 0.37,-0.16 0.15,0 0.28,0.06 0.37,0.16 0.09,0.1 0.15,0.23 0.15,0.38l-0.17 0c0,-0.11 -0.03,-0.2 -0.1,-0.27 -0.06,-0.06 -0.15,-0.1 -0.25,-0.1 -0.1,0 -0.19,0.04 -0.25,0.1l0 0c-0.07,0.07 -0.11,0.16 -0.11,0.25l0 0.19 0.8 0c0.1,0 0.19,0.04 0.26,0.1l0 0c0.06,0.07 0.11,0.16 0.11,0.27l0 0.66c0,0.1 -0.05,0.2 -0.11,0.26l0 0c-0.07,0.07 -0.16,0.11 -0.26,0.11l-0.88 0c-0.1,0 -0.19,-0.04 -0.26,-0.11l-0.01 0c-0.06,-0.07 -0.1,-0.16 -0.1,-0.26l0 -0.66c0,-0.11 0.04,-0.2 0.11,-0.27 0.05,-0.04 0.11,-0.08 0.18,-0.1zm0.43 0.37l0.18 0c0.04,0 0.08,0.02 0.11,0.04l0 0.01c0.03,0.03 0.04,0.07 0.04,0.11l0 0.37c0,0.05 -0.01,0.09 -0.04,0.11 -0.03,0.03 -0.07,0.05 -0.11,0.05l-0.18 0c-0.04,0 -0.08,-0.02 -0.11,-0.05l0 0c-0.03,-0.02 -0.05,-0.06 -0.05,-0.11l0 -0.37c0,-0.05 0.02,-0.09 0.05,-0.11l0 -0.01c0.03,-0.02 0.07,-0.04 0.11,-0.04zm0.17 0.16l-0.16 0 0 0.37 0.16 0 0 -0.37zm0.36 -0.37l-0.88 0c-0.06,0 -0.11,0.02 -0.15,0.06l0 0c-0.03,0.04 -0.06,0.09 -0.06,0.15l0 0.66c0,0.06 0.03,0.11 0.06,0.15l0 0c0.04,0.04 0.09,0.06 0.15,0.06l0.88 0c0.05,0 0.1,-0.02 0.14,-0.06 0.04,-0.04 0.06,-0.09 0.06,-0.15l0 -0.66c0,-0.06 -0.02,-0.11 -0.06,-0.15 -0.04,-0.04 -0.09,-0.06 -0.14,-0.06z"
   id="path7" />
  <rect
   class="fil1"
   width="2.22"
   height="2.22"
   id="rect9" />
  <path
   class="fil0"
   d="M1.63 0.76l-0.17 0 -0.16 0 -0.63 0c-0.1,0 -0.19,0.04 -0.26,0.1l0 0c-0.07,0.07 -0.11,0.16 -0.11,0.27l0 0.66c0,0.1 0.04,0.2 0.11,0.26l0 0c0.07,0.07 0.16,0.11 0.26,0.11l0.88 0c0.1,0 0.19,-0.04 0.26,-0.11l0 0c0.07,-0.07 0.11,-0.16 0.11,-0.26l0 -0.66c0,-0.11 -0.05,-0.2 -0.11,-0.27 -0.05,-0.04 -0.11,-0.08 -0.18,-0.1zm0 -0.14l0 -0.05c0,-0.14 -0.06,-0.27 -0.15,-0.36l0 0c-0.1,-0.1 -0.23,-0.16 -0.37,-0.16 -0.15,0 -0.28,0.06 -0.37,0.16 -0.1,0.1 -0.15,0.23 -0.15,0.38l0.16 0c0,-0.11 0.04,-0.2 0.11,-0.27 0.06,-0.06 0.15,-0.1 0.25,-0.1 0.1,0 0.19,0.04 0.25,0.1l0 0c0.06,0.07 0.1,0.16 0.1,0.25l0 0.05 0.17 0zm-0.43 0.51l-0.18 0c-0.04,0 -0.08,0.02 -0.11,0.04l-0.01 0.01c-0.02,0.03 -0.04,0.07 -0.04,0.11l0 0.37c0,0.05 0.02,0.09 0.05,0.11 0.03,0.03 0.07,0.05 0.11,0.05l0.18 0c0.04,0 0.08,-0.02 0.11,-0.05l0 0c0.03,-0.02 0.04,-0.06 0.04,-0.11l0 -0.37c0,-0.05 -0.01,-0.09 -0.04,-0.11l0 -0.01c-0.03,-0.02 -0.07,-0.04 -0.11,-0.04zm-0.17 0.16l0.16 0 0 0.37 -0.16 0 0 -0.37zm-0.36 -0.37l0.88 0c0.05,0 0.1,0.02 0.14,0.06l0 0c0.04,0.04 0.06,0.09 0.06,0.15l0 0.66c0,0.06 -0.02,0.11 -0.05,0.15l-0.01 0c-0.04,0.04 -0.09,0.06 -0.14,0.06l-0.88 0c-0.06,0 -0.11,-0.02 -0.15,-0.06 -0.03,-0.04 -0.06,-0.09 -0.06,-0.15l0 -0.66c0,-0.06 0.03,-0.11 0.06,-0.15 0.04,-0.04 0.09,-0.06 0.15,-0.06z"
   id="path11" />
 </g>
</svg>
