<?xml version="1.0" encoding="UTF-8" standalone="no"?>
<svg
   xmlns:dc="http://purl.org/dc/elements/1.1/"
   xmlns:cc="http://creativecommons.org/ns#"
   xmlns:rdf="http://www.w3.org/1999/02/22-rdf-syntax-ns#"
   xmlns:svg="http://www.w3.org/2000/svg"
   xmlns="http://www.w3.org/2000/svg"
   xmlns:sodipodi="http://sodipodi.sourceforge.net/DTD/sodipodi-0.dtd"
   xmlns:inkscape="http://www.inkscape.org/namespaces/inkscape"
   version="1.1"
   id="Слой_1"
   x="0px"
   y="0px"
   viewBox="0 0 28 20"
   style="enable-background:new 0 0 28 20;"
   xml:space="preserve"
   sodipodi:docname="ic-transaction-received-inactive.svg"><metadata
   id="metadata11"><rdf:RDF><cc:Work
       rdf:about=""><dc:format>image/svg+xml</dc:format><dc:type
         rdf:resource="http://purl.org/dc/dcmitype/StillImage" /></cc:Work></rdf:RDF></metadata><defs
   id="defs9" /><sodipodi:namedview
   pagecolor="#ffffff"
   bordercolor="#666666"
   borderopacity="1"
   objecttolerance="10"
   gridtolerance="10"
   guidetolerance="10"
   inkscape:pageopacity="0"
   inkscape:pageshadow="2"
   inkscape:window-width="640"
   inkscape:window-height="480"
   id="namedview7"
   inkscape:document-rotation="0" />
<style
   type="text/css"
   id="style2">
	.st0{fill:#E5E8FF;}
</style>
<path
   class="st0"
   d="M10.3,13.1c-0.4,0-0.7-0.3-0.7-0.7c0-0.4,0.3-0.7,0.7-0.7h2l-1.5-1.5c-0.3-0.3-0.3-0.7,0-1c0.3-0.3,0.7-0.3,1,0  l1.4,1.4v-2C13.3,8.3,13.6,8,14,8c0.4,0,0.7,0.3,0.7,0.7v2l1.4-1.4c0.3-0.3,0.7-0.3,1,0c0.3,0.3,0.3,0.7,0,1l-1.5,1.5h2  c0.4,0,0.7,0.3,0.7,0.7c0,0.4-0.3,0.7-0.7,0.7h-2l1.5,1.4c0.3,0.3,0.3,0.8,0,1c-0.3,0.3-0.7,0.3-1,0l-1.4-1.5v2.1  c0,0.4-0.3,0.7-0.7,0.7c-0.4,0-0.7-0.3-0.7-0.7v-2.1l-1.4,1.5c-0.3,0.3-0.7,0.3-1,0c-0.3-0.3-0.3-0.7,0-1l1.5-1.4H10.3z M25.2,17.8  L25.2,17.8c-0.2,0.3-0.3,0.5-0.5,0.8h1.1c0.2,0,0.4-0.1,0.6-0.2h0.1c0.1-0.1,0.1-0.2,0.1-0.2c0-0.1-0.1-0.2-0.1-0.3  c-0.2-0.1-0.4-0.2-0.6-0.2C25.8,17.8,25.2,17.8,25.2,17.8z M25.7,16.4h0.1c0.6,0,1.1,0.2,1.4,0.5c0.5,0.3,0.7,0.8,0.7,1.3  c0,0.5-0.3,1-0.7,1.3h-0.1c-0.4,0.3-0.9,0.5-1.4,0.5H2.2c-0.6,0-1.1-0.2-1.4-0.5C0.3,19.2,0,18.7,0,18.2c0-0.6,0.3-1,0.7-1.3  c0.4-0.3,0.9-0.5,1.4-0.5h0.1l-0.2-0.4c-0.4-1.2-0.5-2.4-0.5-3.6C1.6,9,3,5.9,5.2,3.6C7.5,1.4,10.6,0,14,0s6.5,1.4,8.8,3.6  c2.3,2.2,3.6,5.4,3.6,8.8c0,1.3-0.2,2.5-0.6,3.7L25.7,16.4z M2.8,17.8H2.2c-0.3,0-0.5,0.1-0.6,0.2c-0.1,0.1-0.1,0.2-0.1,0.3  c0,0.1,0.1,0.1,0.1,0.2c0.2,0.1,0.4,0.2,0.6,0.2h1.1C3.1,18.3,3,18.1,2.8,17.8z M4.9,18.6h1.7c-0.6-0.7-1-1.4-1.4-2.2  c-0.6-1.2-0.9-2.5-0.9-3.9c0-0.4,0.3-0.7,0.7-0.7c0.4,0,0.7,0.3,0.7,0.7c0,1.2,0.3,2.4,0.7,3.4c0.5,1.1,1.2,2,2,2.8h11l0,0  c0.9-0.8,1.6-1.7,2-2.8c0.5-1,0.7-2.2,0.7-3.4c0-2.3-0.9-4.4-2.4-5.8c-1.5-1.5-3.5-2.4-5.8-2.4c-1.3,0-2.5,0.3-3.5,0.8  C9.3,5.5,8.3,6.3,7.6,7.2c-0.3,0.3-0.7,0.4-1,0.1c-0.3-0.2-0.4-0.7-0.1-1c0.9-1.1,2-2,3.3-2.6c1.3-0.6,2.7-1,4.2-1  c2.7,0,5.1,1.1,6.8,2.8c1.7,1.8,2.8,4.2,2.8,6.8c0,1.4-0.3,2.7-0.9,3.9c-0.4,0.8-0.8,1.6-1.4,2.2h1.7c0.6-0.9,1.1-1.9,1.4-2.9  c0.3-1,0.5-2.1,0.5-3.2c0-3-1.3-5.8-3.2-7.8c-2-2-4.8-3.2-7.8-3.2S8.2,2.6,6.2,4.6c-2,2-3.2,4.8-3.2,7.8c0,1.2,0.2,2.2,0.5,3.2  C3.8,16.7,4.3,17.7,4.9,18.6z M6.4,9.2C6.2,9.6,5.8,9.7,5.4,9.6C5.1,9.4,4.9,9,5.1,8.7l0.1-0.3c0.2-0.4,0.6-0.6,1-0.4  c0.3,0.2,0.5,0.6,0.4,0.9C6.5,8.9,6.4,9.2,6.4,9.2z"
   id="path4" />
</svg>
