<?xml version="1.0" encoding="UTF-8" standalone="no"?>
<svg
   xmlns:dc="http://purl.org/dc/elements/1.1/"
   xmlns:cc="http://creativecommons.org/ns#"
   xmlns:rdf="http://www.w3.org/1999/02/22-rdf-syntax-ns#"
   xmlns:svg="http://www.w3.org/2000/svg"
   xmlns="http://www.w3.org/2000/svg"
   xmlns:sodipodi="http://sodipodi.sourceforge.net/DTD/sodipodi-0.dtd"
   xmlns:inkscape="http://www.inkscape.org/namespaces/inkscape"
   xml:space="preserve"
   width="24px"
   height="24px"
   version="1.0"
   style="shape-rendering:geometricPrecision; text-rendering:geometricPrecision; image-rendering:optimizeQuality; fill-rule:evenodd; clip-rule:evenodd"
   viewBox="0 0 3.33 3.33"
   id="svg29"
   sodipodi:docname="ic-transaction-sent.svg"><metadata
   id="metadata33"><rdf:RDF><cc:Work
       rdf:about=""><dc:format>image/svg+xml</dc:format><dc:type
         rdf:resource="http://purl.org/dc/dcmitype/StillImage" /></cc:Work></rdf:RDF></metadata><sodipodi:namedview
   pagecolor="#ffffff"
   bordercolor="#666666"
   borderopacity="1"
   objecttolerance="10"
   gridtolerance="10"
   guidetolerance="10"
   inkscape:pageopacity="0"
   inkscape:pageshadow="2"
   inkscape:window-width="640"
   inkscape:window-height="480"
   id="namedview31"
   inkscape:document-rotation="0" />
 <defs
   id="defs4">
  <style
   type="text/css"
   id="style2">
   <![CDATA[
    .fil1 {fill:none}
    .fil0 {fill:#6172F2;fill-rule:nonzero}
   ]]>
  </style>
 </defs>
 <g
   id="Слой_x0020_1">
  <metadata
   id="CorelCorpID_0Corel-Layer" />
  <g
   id="_2007128530288">
   <path
   class="fil0"
   d="M0.71 2.19c0.02,0.03 0.01,0.09 -0.03,0.11 -0.03,0.02 -0.08,0.01 -0.11,-0.03 -0.13,-0.2 -0.19,-0.43 -0.2,-0.67 0,-0.23 0.05,-0.46 0.18,-0.67 0.18,-0.32 0.47,-0.53 0.79,-0.61 0.32,-0.09 0.68,-0.05 0.99,0.13 0.31,0.18 0.52,0.47 0.61,0.79l0 0c0.09,0.32 0.05,0.68 -0.13,0.99 -0.13,0.22 -0.3,0.38 -0.51,0.5 -0.21,0.11 -0.45,0.17 -0.69,0.15 -0.04,0 -0.08,-0.04 -0.08,-0.08 0.01,-0.05 0.04,-0.08 0.09,-0.08 0.21,0.01 0.42,-0.04 0.61,-0.14 0.17,-0.09 0.33,-0.24 0.44,-0.43 0.16,-0.27 0.19,-0.58 0.11,-0.87 -0.07,-0.28 -0.26,-0.53 -0.53,-0.69 -0.27,-0.16 -0.59,-0.19 -0.87,-0.12 -0.28,0.08 -0.53,0.26 -0.69,0.54 -0.11,0.18 -0.16,0.39 -0.16,0.59 0.01,0.21 0.07,0.41 0.18,0.59z"
   id="path7" />
   <path
   class="fil0"
   d="M2.33 2.02c0.02,-0.04 0.07,-0.05 0.11,-0.02 0.04,0.02 0.04,0.07 0.02,0.11l-0.02 0.02c-0.02,0.04 -0.07,0.05 -0.11,0.02 -0.04,-0.02 -0.05,-0.07 -0.02,-0.11l0.02 -0.02zm-0.2 0.2c0.03,-0.03 0.08,-0.02 0.11,0.02 0.03,0.04 0.02,0.09 -0.02,0.11 -0.1,0.07 -0.22,0.13 -0.35,0.15 -0.12,0.03 -0.25,0.03 -0.38,0.01 -0.25,-0.05 -0.46,-0.2 -0.6,-0.41l0 0c-0.13,-0.2 -0.19,-0.45 -0.14,-0.7 0.05,-0.26 0.2,-0.47 0.4,-0.61 0.2,-0.13 0.45,-0.19 0.71,-0.14 0.26,0.05 0.47,0.2 0.6,0.4 0.14,0.2 0.19,0.46 0.14,0.71 0,0.05 -0.05,0.07 -0.09,0.07 -0.05,-0.01 -0.07,-0.06 -0.07,-0.1 0.05,-0.21 0,-0.42 -0.11,-0.59 -0.11,-0.16 -0.29,-0.29 -0.5,-0.33 -0.21,-0.04 -0.42,0.01 -0.59,0.12 -0.16,0.11 -0.29,0.29 -0.33,0.5 -0.04,0.21 0.01,0.41 0.11,0.58l0.01 0c0.11,0.17 0.28,0.29 0.5,0.34 0.1,0.02 0.21,0.02 0.31,-0.01 0.1,-0.02 0.2,-0.06 0.29,-0.12z"
   id="path9" />
   <path
   class="fil0"
   d="M1.3 1.46c-0.04,-0.03 -0.05,-0.08 -0.03,-0.12 0.02,-0.04 0.07,-0.05 0.11,-0.03l0.67 0.39c0.04,0.02 0.06,0.07 0.03,0.11 -0.02,0.04 -0.07,0.06 -0.11,0.03l-0.67 -0.38z"
   id="path11" />
   <path
   class="fil0"
   d="M1.55 1.96c-0.02,0.03 -0.07,0.05 -0.11,0.03 -0.04,-0.03 -0.05,-0.08 -0.03,-0.12l0.39 -0.67c0.02,-0.04 0.07,-0.05 0.11,-0.03 0.04,0.02 0.05,0.07 0.03,0.11l-0.39 0.68z"
   id="path13" />
   <path
   class="fil0"
   d="M1.32 1.76c-0.04,0.01 -0.08,-0.02 -0.1,-0.06 -0.01,-0.04 0.02,-0.09 0.06,-0.1l0.75 -0.2c0.04,-0.01 0.09,0.01 0.1,0.06 0.01,0.04 -0.01,0.09 -0.06,0.1l-0.75 0.2z"
   id="path15" />
   <path
   class="fil0"
   d="M1.86 1.93c0.01,0.05 -0.02,0.09 -0.06,0.1 -0.04,0.01 -0.09,-0.01 -0.1,-0.06l-0.2 -0.75c-0.01,-0.04 0.01,-0.08 0.06,-0.1 0.04,-0.01 0.08,0.02 0.1,0.06l0.2 0.75z"
   id="path17" />
   <path
   class="fil0"
   d="M1.14 2.96c-0.03,0.03 -0.08,0.03 -0.11,0 -0.03,-0.03 -0.03,-0.08 0,-0.11l0.17 -0.17c0.03,-0.04 0.08,-0.04 0.11,0 0.04,0.03 0.04,0.08 0,0.11l-0.17 0.17z"
   id="path19" />
   <path
   class="fil0"
   d="M0.52 2.49c-0.03,0.03 -0.08,0.03 -0.12,0 -0.03,-0.03 -0.03,-0.08 0,-0.11l0.25 -0.25c0.03,-0.03 0.08,-0.03 0.12,0 0.03,0.03 0.03,0.08 0,0.11l-0.25 0.25z"
   id="path21" />
   <path
   class="fil0"
   d="M0.49 3.02c-0.03,0.03 -0.08,0.03 -0.12,0 -0.03,-0.04 -0.03,-0.09 0,-0.12l0.53 -0.52c0.03,-0.04 0.08,-0.03 0.11,0 0.04,0.03 0.04,0.08 0,0.11l-0.52 0.53z"
   id="path23" />
  </g>
  <rect
   class="fil1"
   width="3.33"
   height="3.33"
   id="rect26" />
 </g>
</svg>
