<?xml version="1.0" encoding="UTF-8" standalone="no"?>
<svg
   xmlns:dc="http://purl.org/dc/elements/1.1/"
   xmlns:cc="http://creativecommons.org/ns#"
   xmlns:rdf="http://www.w3.org/1999/02/22-rdf-syntax-ns#"
   xmlns:svg="http://www.w3.org/2000/svg"
   xmlns="http://www.w3.org/2000/svg"
   xmlns:sodipodi="http://sodipodi.sourceforge.net/DTD/sodipodi-0.dtd"
   xmlns:inkscape="http://www.inkscape.org/namespaces/inkscape"
   version="1.1"
   id="Слой_1"
   x="0px"
   y="0px"
   viewBox="0 0 22 23"
   style="enable-background:new 0 0 22 23;"
   xml:space="preserve"
   sodipodi:docname="ic-transaction-stake-delegated-inactive.svg"><metadata
   id="metadata14"><rdf:RDF><cc:Work
       rdf:about=""><dc:format>image/svg+xml</dc:format><dc:type
         rdf:resource="http://purl.org/dc/dcmitype/StillImage" /></cc:Work></rdf:RDF></metadata><defs
   id="defs12" /><sodipodi:namedview
   pagecolor="#ffffff"
   bordercolor="#666666"
   borderopacity="1"
   objecttolerance="10"
   gridtolerance="10"
   guidetolerance="10"
   inkscape:pageopacity="0"
   inkscape:pageshadow="2"
   inkscape:window-width="640"
   inkscape:window-height="480"
   id="namedview10"
   inkscape:document-rotation="0" />
<style
   type="text/css"
   id="style2">
	.st0{fill:#E5E8FF;}
</style>
<g
   id="Слой_x0020_1">
	<path
   class="st0"
   d="M16.7,2.3L16.7,2.3V1.5H5.3v0.7v0c0,2.2,0,5,0.6,7.5c0.6,2.3,1.7,4.3,3.9,5c0.3,0.1,0.6,0.4,0.6,0.7   c0,0.7-0.1,1.6-0.4,2.4c-0.1,0.2-0.2,0.5-0.2,0.7h2.3c-0.1-0.3-0.2-0.6-0.3-1c-0.2-0.7-0.2-1.4-0.2-2.1c0-0.4,0.3-0.7,0.7-0.7   c4.2-0.7,4.5-7.4,4.5-11.7l0,0l0,0C16.7,2.8,16.7,2.6,16.7,2.3z M5.6,18.7h2.5c0.2-0.3,0.4-0.7,0.5-1.1c0.2-0.5,0.2-1,0.3-1.5   c-1.7-0.7-2.9-2-3.7-3.6c0,0,0,0,0,0l-0.1,0c-0.3,0.2-0.7,0.3-1.2,0.3c-0.4,0-0.8-0.3-0.8-0.8c0-0.4,0.3-0.7,0.8-0.7   c0.2,0,0.3,0,0.4-0.1c0,0,0.1-0.1,0.1-0.1c0-0.1,0-0.1,0-0.2c0-0.1,0.1,0,0-0.1c-0.3-0.5-1-1-1.6-1.5c-1.4-1-2.8-2.1-2.8-4   c0-1,0.3-1.8,1.1-2.4c0.6-0.4,1.4-0.7,2.6-0.7c0-0.1,0-0.1,0-0.1v0V0.7C3.8,0.3,4.1,0,4.6,0h12.8c0.4,0,0.7,0.3,0.7,0.7v1.5l0,0   c0,0,0,0.1,0,0.1c1.1,0.1,2,0.3,2.6,0.7c0.8,0.6,1.1,1.4,1.1,2.4c0,1.9-1.4,2.9-2.8,4c-0.7,0.5-1.3,1-1.6,1.5c0,0,0,0,0,0.1   c0,0.1,0,0.1,0,0.2l0.1,0.1c0.1,0,0.2,0.1,0.4,0.1c0.4,0,0.8,0.3,0.8,0.7c0,0.4-0.3,0.8-0.8,0.8c-0.5,0-0.9-0.1-1.2-0.3   c-0.7,1.7-1.9,3.1-3.8,3.6c0,0.4,0.1,0.8,0.2,1.1c0.1,0.4,0.3,0.9,0.6,1.4h2.5c0.4,0,0.8,0.3,0.8,0.7v2.8c0,0.4-0.3,0.7-0.8,0.7   H5.6c-0.4,0-0.8-0.3-0.8-0.7v-2.8C4.8,19,5.2,18.7,5.6,18.7z M15.7,20.2h-2.1c0,0,0,0-0.1,0h-5c0,0-0.1,0-0.1,0h-2v1.4h9.3V20.2z    M3.8,3.9C3,4,2.4,4.1,2.1,4.4C1.7,4.6,1.6,5,1.6,5.5c0,1.1,1.1,2,2.2,2.8C3.9,8.4,4,8.5,4.2,8.6C3.9,7,3.8,5.4,3.8,3.9z M17.9,8.6   c0.1-0.1,0.2-0.2,0.4-0.3c1.1-0.8,2.2-1.6,2.2-2.8c0-0.5-0.2-0.9-0.5-1.2C19.6,4.1,19,4,18.2,3.9C18.2,5.4,18.1,7,17.9,8.6z"
   id="path4" />
</g>
<path
   class="st0"
   d="M8.4,9.7c-0.3,0.2-0.7,0.1-1-0.2c-0.1-0.3,0-0.7,0.3-1l1.4-0.9L7.6,7.3C7.3,7.2,7,6.8,7.2,6.4  C7.3,6.1,7.6,5.9,7.9,6l1.7,0.4L8.8,4.9C8.5,4.6,8.6,4.2,9,3.9c0.3-0.1,0.7,0,1,0.3l0.9,1.4l0.4-1.6c0.1-0.3,0.4-0.5,0.9-0.4  c0.3,0.1,0.5,0.4,0.4,0.7l-0.4,1.7l1.5-0.9c0.3-0.2,0.7-0.1,1,0.2c0.1,0.3,0,0.7-0.3,1l-1.4,0.9l1.6,0.4c0.3,0.1,0.5,0.4,0.4,0.9  c-0.1,0.3-0.4,0.5-0.7,0.4l-1.7-0.4l0.9,1.5c0.2,0.3,0.1,0.7-0.2,1c-0.3,0.1-0.7,0-1-0.3l-0.9-1.4l-0.4,1.6  c-0.1,0.3-0.4,0.5-0.9,0.4c-0.3,0-0.5-0.4-0.4-0.7l0.4-1.7C9.9,8.9,8.4,9.7,8.4,9.7z"
   id="path7" />
</svg>
