<?xml version="1.0" encoding="UTF-8" standalone="no"?>
<svg
   xmlns:dc="http://purl.org/dc/elements/1.1/"
   xmlns:cc="http://creativecommons.org/ns#"
   xmlns:rdf="http://www.w3.org/1999/02/22-rdf-syntax-ns#"
   xmlns:svg="http://www.w3.org/2000/svg"
   xmlns="http://www.w3.org/2000/svg"
   xmlns:sodipodi="http://sodipodi.sourceforge.net/DTD/sodipodi-0.dtd"
   xmlns:inkscape="http://www.inkscape.org/namespaces/inkscape"
   version="1.1"
   id="ic-transaction-mint"
   x="0px"
   y="0px"
   viewBox="0 0 24 24"
   style="enable-background:new 0 0 24 24;"
   xml:space="preserve"
   sodipodi:docname="ic-transaction-mint-inactive.svg"><metadata
   id="metadata12"><rdf:RDF><cc:Work
       rdf:about=""><dc:format>image/svg+xml</dc:format><dc:type
         rdf:resource="http://purl.org/dc/dcmitype/StillImage" /></cc:Work></rdf:RDF></metadata><defs
   id="defs10" /><sodipodi:namedview
   pagecolor="#ffffff"
   bordercolor="#666666"
   borderopacity="1"
   objecttolerance="10"
   gridtolerance="10"
   guidetolerance="10"
   inkscape:pageopacity="0"
   inkscape:pageshadow="2"
   inkscape:window-width="640"
   inkscape:window-height="480"
   id="namedview8"
   inkscape:document-rotation="0" />
<style
   type="text/css"
   id="style2">
	.st0{fill:#E5E8FF;}
</style>
<g
   id="Слой_x0020_1">
	<path
   class="st0"
   d="M9.4,14.2c-0.3,0.2-0.7,0.1-1-0.2c-0.1-0.3,0-0.7,0.3-1l1.4-0.9l-1.6-0.4c-0.3-0.1-0.5-0.4-0.4-0.9   c0.1-0.3,0.4-0.5,0.7-0.4l1.7,0.4L9.8,9.4c-0.2-0.3-0.1-0.7,0.2-1c0.3-0.1,0.7,0,1,0.3l0.9,1.4l0.4-1.6c0.1-0.3,0.4-0.5,0.9-0.4   c0.3,0.1,0.5,0.4,0.4,0.7l-0.4,1.7l1.5-0.9c0.3-0.2,0.7-0.1,1,0.2c0.1,0.3,0,0.7-0.3,1l-1.4,0.9l1.6,0.4c0.3,0.1,0.5,0.4,0.4,0.9   c-0.1,0.3-0.4,0.5-0.7,0.4l-1.7-0.4l0.9,1.5c0.2,0.3,0.1,0.7-0.2,1c-0.3,0.1-0.7,0-1-0.3l-0.9-1.4l-0.4,1.6   c-0.1,0.3-0.4,0.5-0.9,0.4c-0.3,0-0.5-0.4-0.4-0.7l0.4-1.7C10.9,13.4,9.4,14.2,9.4,14.2z M2.6,20.8c0,0.4-0.4,0.6-0.7,0.6   c-0.4,0-0.6-0.3-0.6-0.7l0.3-3.1c0,0,0-0.1,0.1-0.2l0,0l0,0v-0.1C1.8,17.1,1.9,17.1,2,17l0,0c0.1,0,0.2-0.1,0.3-0.1l3.1,0.3   C5.8,17.3,6,17.7,6,18c0,0.4-0.4,0.7-0.7,0.6l-1.6-0.1c1.4,1.8,3.4,3.1,5.6,3.7c2.7,0.6,5.6,0.4,8.1-1.1c2-1.2,3.5-2.9,4.4-4.9   s1.1-4.4,0.6-6.6c-0.1-0.3,0.1-0.7,0.5-0.7c0.3-0.1,0.7,0.1,0.7,0.4c0.6,2.6,0.3,5.1-0.6,7.5c-1.1,2.2-2.8,4.3-5,5.6   c-2.9,1.6-6.1,2-9.1,1.2c-2.4-0.6-4.6-2-6.2-4C2.7,19.6,2.6,20.8,2.6,20.8z M21.4,3.2c0-0.4,0.4-0.6,0.7-0.6c0.4,0,0.6,0.3,0.6,0.7   l-0.3,3.1c0,0.1-0.1,0.2-0.2,0.3l0,0l0,0v0.1l0,0h-0.1l0,0V7l0,0l0,0h-0.1l0,0l0,0l0,0l0,0H22l0,0l0,0v0.1h-0.1h-0.1l0,0l-3.1-0.3   C18.2,6.7,18,6.3,18,6c0.1-0.4,0.4-0.7,0.7-0.6l1.7,0.1c-1.5-1.8-3.5-3.1-5.7-3.7c-2.7-0.6-5.6-0.4-8.1,1.1C4.7,4,3.2,5.7,2.3,7.7   c-0.9,2-1.1,4.3-0.6,6.5C1.8,14.6,1.4,15,1.1,15c-0.3,0.1-0.7-0.1-0.9-0.5C-0.3,12,0,9.4,1.1,7.1c1-2.1,2.7-4.2,4.9-5.5   c2.9-1.6,6.1-2,9.1-1.2c2.4,0.6,4.6,2,6.2,4C21.3,4.4,21.4,3.2,21.4,3.2z"
   id="path4" />
</g>
</svg>
