<?xml version="1.0" encoding="UTF-8" standalone="no"?>
<svg
   xmlns:dc="http://purl.org/dc/elements/1.1/"
   xmlns:cc="http://creativecommons.org/ns#"
   xmlns:rdf="http://www.w3.org/1999/02/22-rdf-syntax-ns#"
   xmlns:svg="http://www.w3.org/2000/svg"
   xmlns="http://www.w3.org/2000/svg"
   xmlns:sodipodi="http://sodipodi.sourceforge.net/DTD/sodipodi-0.dtd"
   xmlns:inkscape="http://www.inkscape.org/namespaces/inkscape"
   xml:space="preserve"
   width="24px"
   height="24px"
   version="1.0"
   style="shape-rendering:geometricPrecision; text-rendering:geometricPrecision; image-rendering:optimizeQuality; fill-rule:evenodd; clip-rule:evenodd"
   viewBox="0 0 2.24 2.24"
   id="svg10"
   sodipodi:docname="ic-transaction-mint.svg"><metadata
   id="metadata14"><rdf:RDF><cc:Work
       rdf:about=""><dc:format>image/svg+xml</dc:format><dc:type
         rdf:resource="http://purl.org/dc/dcmitype/StillImage" /></cc:Work></rdf:RDF></metadata><sodipodi:namedview
   pagecolor="#ffffff"
   bordercolor="#666666"
   borderopacity="1"
   objecttolerance="10"
   gridtolerance="10"
   guidetolerance="10"
   inkscape:pageopacity="0"
   inkscape:pageshadow="2"
   inkscape:window-width="640"
   inkscape:window-height="480"
   id="namedview12"
   inkscape:document-rotation="0" />
 <defs
   id="defs4">
  <style
   type="text/css"
   id="style2">
   <![CDATA[
    .fil0 {fill:#6172F2;fill-rule:nonzero}
   ]]>
  </style>
 </defs>
 <g
   id="Слой_x0020_1">
  <metadata
   id="CorelCorpID_0Corel-Layer" />
  <path
   class="fil0"
   d="M0.88 1.33c-0.03,0.02 -0.07,0.01 -0.09,-0.02 -0.01,-0.03 0,-0.07 0.03,-0.09l0.13 -0.08 -0.15 -0.04c-0.03,-0.01 -0.05,-0.04 -0.04,-0.08 0.01,-0.03 0.04,-0.05 0.07,-0.04l0.16 0.04 -0.08 -0.14c-0.02,-0.03 -0.01,-0.07 0.02,-0.09 0.03,-0.01 0.07,0 0.09,0.03l0.08 0.13 0.04 -0.15c0.01,-0.03 0.04,-0.05 0.08,-0.04 0.03,0.01 0.05,0.04 0.04,0.07l-0.04 0.16 0.14 -0.08c0.03,-0.02 0.07,-0.01 0.09,0.02 0.01,0.03 0,0.07 -0.03,0.09l-0.13 0.08 0.15 0.04c0.03,0.01 0.05,0.04 0.04,0.08 -0.01,0.03 -0.04,0.05 -0.07,0.04l-0.16 -0.04 0.08 0.14c0.02,0.03 0.01,0.07 -0.02,0.09 -0.03,0.01 -0.07,0 -0.09,-0.03l-0.08 -0.13 -0.04 0.15c-0.01,0.03 -0.04,0.05 -0.08,0.04 -0.03,0 -0.05,-0.04 -0.04,-0.07l0.04 -0.16 -0.14 0.08zm-0.64 0.61c0,0.04 -0.04,0.06 -0.07,0.06 -0.04,0 -0.06,-0.03 -0.06,-0.07l0.03 -0.29c0,0 0,-0.01 0.01,-0.02l0 0 0 0 0 -0.01c0.01,-0.01 0.02,-0.01 0.03,-0.02l0 0c0.01,0 0.02,-0.01 0.03,-0.01l0.29 0.03c0.04,0.01 0.06,0.04 0.06,0.07 0,0.04 -0.04,0.07 -0.07,0.06l-0.15 -0.01c0.13,0.17 0.32,0.29 0.52,0.35 0.25,0.06 0.52,0.04 0.76,-0.1 0.19,-0.11 0.33,-0.27 0.41,-0.46 0.08,-0.19 0.1,-0.41 0.06,-0.62 -0.01,-0.03 0.01,-0.07 0.05,-0.07 0.03,-0.01 0.07,0.01 0.07,0.04 0.06,0.24 0.03,0.48 -0.06,0.7 -0.1,0.21 -0.26,0.4 -0.47,0.52 -0.27,0.15 -0.57,0.19 -0.85,0.11 -0.22,-0.06 -0.43,-0.19 -0.58,-0.37l-0.01 0.11zm1.76 -1.64c0,-0.04 0.04,-0.06 0.07,-0.06 0.04,0 0.06,0.03 0.06,0.07l-0.03 0.29c0,0.01 -0.01,0.02 -0.02,0.03l0 0 0 0 0 0.01 0 0 -0.01 0 0 0 0 0.01 0 0 0 0 -0.01 0 0 0 0 0 0 0 0 0 -0.01 0 0 0 0 0 0 0.01 -0.01 0 -0.01 0 0 0 -0.29 -0.03c-0.04,-0.01 -0.06,-0.04 -0.06,-0.07 0.01,-0.04 0.04,-0.07 0.07,-0.06l0.16 0.01c-0.14,-0.17 -0.33,-0.29 -0.53,-0.35 -0.25,-0.06 -0.52,-0.04 -0.76,0.1 -0.18,0.11 -0.32,0.27 -0.41,0.46 -0.08,0.19 -0.1,0.4 -0.06,0.61 0.01,0.03 -0.02,0.07 -0.05,0.07 -0.03,0.01 -0.07,-0.01 -0.08,-0.05 -0.05,-0.23 -0.02,-0.47 0.08,-0.69 0.09,-0.2 0.25,-0.39 0.46,-0.51 0.27,-0.15 0.57,-0.19 0.85,-0.11 0.22,0.06 0.43,0.19 0.58,0.37l0.01 -0.11z"
   id="path7" />
 </g>
</svg>
