<?xml version="1.0" encoding="UTF-8" standalone="no"?>
<svg
   xmlns:dc="http://purl.org/dc/elements/1.1/"
   xmlns:cc="http://creativecommons.org/ns#"
   xmlns:rdf="http://www.w3.org/1999/02/22-rdf-syntax-ns#"
   xmlns:svg="http://www.w3.org/2000/svg"
   xmlns="http://www.w3.org/2000/svg"
   xmlns:sodipodi="http://sodipodi.sourceforge.net/DTD/sodipodi-0.dtd"
   xmlns:inkscape="http://www.inkscape.org/namespaces/inkscape"
   xml:space="preserve"
   width="24px"
   height="27px"
   version="1.0"
   style="shape-rendering:geometricPrecision; text-rendering:geometricPrecision; image-rendering:optimizeQuality; fill-rule:evenodd; clip-rule:evenodd"
   viewBox="0 0 5.98 6.77"
   id="svg10"
   sodipodi:docname="ic-transaction-multimining.svg"><metadata
   id="metadata14"><rdf:RDF><cc:Work
       rdf:about=""><dc:format>image/svg+xml</dc:format><dc:type
         rdf:resource="http://purl.org/dc/dcmitype/StillImage" /></cc:Work></rdf:RDF></metadata><sodipodi:namedview
   pagecolor="#ffffff"
   bordercolor="#666666"
   borderopacity="1"
   objecttolerance="10"
   gridtolerance="10"
   guidetolerance="10"
   inkscape:pageopacity="0"
   inkscape:pageshadow="2"
   inkscape:window-width="640"
   inkscape:window-height="480"
   id="namedview12"
   inkscape:document-rotation="0" />
 <defs
   id="defs4">
  <style
   type="text/css"
   id="style2">
   <![CDATA[
    .fil0 {fill:#6172F2;fill-rule:nonzero}
   ]]>
  </style>
 </defs>
 <g
   id="Слой_x0020_1">
  <metadata
   id="CorelCorpID_0Corel-Layer" />
  <path
   class="fil0"
   d="M2.12 0l0 0c0.31,0 0.59,0.13 0.8,0.33 0.02,0.03 0.05,0.05 0.07,0.08 0.03,-0.03 0.05,-0.05 0.08,-0.08 0.2,-0.2 0.48,-0.33 0.79,-0.33l0 0c0.31,0 0.59,0.13 0.79,0.33 0.21,0.2 0.33,0.48 0.33,0.79l0 0c0,0.23 -0.06,0.44 -0.18,0.62l0.29 0c0.24,0 0.47,0.1 0.63,0.26 0.16,0.16 0.26,0.39 0.26,0.64l0 3.23c0,0.24 -0.1,0.47 -0.26,0.63 -0.16,0.17 -0.39,0.27 -0.63,0.27l-4.19 0c-0.25,0 -0.47,-0.1 -0.64,-0.27 -0.16,-0.16 -0.26,-0.39 -0.26,-0.63l0 -3.23c0,-0.25 0.1,-0.48 0.26,-0.64 0.17,-0.16 0.39,-0.26 0.64,-0.26l0.28 0c-0.11,-0.18 -0.18,-0.39 -0.18,-0.62l0 0c0,-0.31 0.13,-0.59 0.33,-0.79 0.2,-0.2 0.48,-0.33 0.79,-0.33zm1.97 2.25l0 4 1 0c0.11,0 0.2,-0.04 0.27,-0.11 0.07,-0.07 0.12,-0.17 0.12,-0.27l0 -3.23c0,-0.11 -0.05,-0.21 -0.12,-0.28 -0.07,-0.07 -0.16,-0.11 -0.27,-0.11l-1 0zm-2.2 4l0 -4 -0.99 0c-0.11,0 -0.21,0.04 -0.28,0.11 -0.07,0.07 -0.11,0.17 -0.11,0.28l0 3.23c0,0.1 0.04,0.2 0.11,0.27 0.07,0.07 0.17,0.11 0.28,0.11l0.99 0zm0.23 -4.51l0.62 0 0 -0.62c0,-0.16 -0.07,-0.32 -0.18,-0.43 -0.11,-0.11 -0.27,-0.18 -0.44,-0.18l0 0c-0.16,0 -0.32,0.07 -0.43,0.18 -0.11,0.11 -0.18,0.27 -0.18,0.43l0 0c0,0.17 0.07,0.33 0.18,0.44 0.11,0.11 0.27,0.18 0.43,0.18zm1.13 0l0.61 0c0.17,0 0.32,-0.07 0.43,-0.18 0.11,-0.11 0.18,-0.27 0.18,-0.44l0 0c0,-0.16 -0.07,-0.32 -0.18,-0.43 -0.11,-0.11 -0.26,-0.18 -0.43,-0.18l0 0c-0.17,0 -0.32,0.07 -0.43,0.18 -0.11,0.11 -0.18,0.27 -0.18,0.43l0 0.62zm0.33 0.51l-1.17 0 0 4 1.17 0 0 -4z"
   id="path7" />
 </g>
</svg>
