<?xml version="1.0" encoding="UTF-8" standalone="no"?>
<svg
   xmlns:dc="http://purl.org/dc/elements/1.1/"
   xmlns:cc="http://creativecommons.org/ns#"
   xmlns:rdf="http://www.w3.org/1999/02/22-rdf-syntax-ns#"
   xmlns:svg="http://www.w3.org/2000/svg"
   xmlns="http://www.w3.org/2000/svg"
   xmlns:sodipodi="http://sodipodi.sourceforge.net/DTD/sodipodi-0.dtd"
   xmlns:inkscape="http://www.inkscape.org/namespaces/inkscape"
   xml:space="preserve"
   width="22px"
   height="23px"
   version="1.0"
   style="shape-rendering:geometricPrecision; text-rendering:geometricPrecision; image-rendering:optimizeQuality; fill-rule:evenodd; clip-rule:evenodd"
   viewBox="0 0 7.07 7.43"
   id="svg10"
   sodipodi:docname="ic-transaction-staked.svg"><metadata
   id="metadata14"><rdf:RDF><cc:Work
       rdf:about=""><dc:format>image/svg+xml</dc:format><dc:type
         rdf:resource="http://purl.org/dc/dcmitype/StillImage" /></cc:Work></rdf:RDF></metadata><sodipodi:namedview
   pagecolor="#ffffff"
   bordercolor="#666666"
   borderopacity="1"
   objecttolerance="10"
   gridtolerance="10"
   guidetolerance="10"
   inkscape:pageopacity="0"
   inkscape:pageshadow="2"
   inkscape:window-width="640"
   inkscape:window-height="480"
   id="namedview12"
   inkscape:document-rotation="0" />
 <defs
   id="defs4">
  <style
   type="text/css"
   id="style2">
   <![CDATA[
    .fil0 {fill:#6172F2;fill-rule:nonzero}
   ]]>
  </style>
 </defs>
 <g
   id="Слой_x0020_1">
  <metadata
   id="CorelCorpID_0Corel-Layer" />
  <path
   class="fil0"
   d="M5.37 0.74c0,0 0,-0.01 0,-0.01l0 -0.24 -3.67 0 0 0.24c0,0 0,0.01 0,0.01 0,0.71 0,1.62 0.2,2.42 0.19,0.74 0.55,1.39 1.27,1.63 0.11,0.03 0.19,0.12 0.19,0.24 0,0.24 -0.04,0.51 -0.12,0.77 -0.02,0.08 -0.05,0.15 -0.08,0.22l0.74 0c-0.04,-0.1 -0.08,-0.2 -0.11,-0.31 -0.06,-0.23 -0.08,-0.46 -0.08,-0.68 0,-0.12 0.09,-0.22 0.21,-0.24 1.36,-0.21 1.44,-2.39 1.45,-3.78 0,0 0,0 0,0 0,0 0,0 0,0 0,-0.09 0,-0.18 0,-0.27zm-3.58 5.29l0.82 0c0.07,-0.11 0.13,-0.24 0.17,-0.37 0.05,-0.15 0.07,-0.31 0.09,-0.47 -0.56,-0.23 -0.93,-0.65 -1.18,-1.16 0,0 -0.01,0 -0.01,0.01l-0.02 0.01c-0.09,0.06 -0.23,0.11 -0.39,0.11 -0.14,0 -0.25,-0.11 -0.25,-0.25 0,-0.13 0.11,-0.24 0.25,-0.24 0.06,0 0.1,-0.01 0.12,-0.02 0.01,-0.01 0.02,-0.02 0.02,-0.03 0.01,-0.02 0.01,-0.04 0.01,-0.06 0,-0.02 0.02,-0.01 0.01,-0.02 -0.11,-0.16 -0.31,-0.31 -0.53,-0.47 -0.44,-0.33 -0.9,-0.67 -0.9,-1.28 0,-0.32 0.11,-0.58 0.37,-0.77 0.19,-0.13 0.46,-0.22 0.84,-0.24 0,-0.02 0,-0.03 0,-0.04 0,0 0,-0.01 0,-0.01l0 -0.49c0,-0.13 0.11,-0.24 0.25,-0.24l4.15 0c0.14,0 0.24,0.11 0.24,0.24l0 0.49c0,0 0.01,0.01 0.01,0.01 0,0.01 0,0.02 0,0.04 0.37,0.02 0.65,0.11 0.84,0.24 0.26,0.19 0.37,0.45 0.37,0.77 0,0.61 -0.46,0.95 -0.91,1.28 -0.21,0.16 -0.42,0.31 -0.52,0.47 -0.01,0.01 0,0 0,0.02 0,0.02 0.01,0.04 0.01,0.06l0.03 0.03c0.02,0.01 0.06,0.02 0.12,0.02 0.14,0 0.25,0.11 0.25,0.24 0,0.14 -0.11,0.25 -0.25,0.25 -0.16,0 -0.28,-0.04 -0.38,-0.1 -0.24,0.56 -0.62,0.99 -1.22,1.16 0.01,0.12 0.03,0.25 0.06,0.37 0.04,0.14 0.1,0.29 0.2,0.44l0.82 0c0.14,0 0.25,0.1 0.25,0.24l0 0.92c0,0.13 -0.11,0.24 -0.25,0.24l-3.49 0c-0.14,0 -0.25,-0.11 -0.25,-0.24l0 -0.92c0,-0.14 0.11,-0.24 0.25,-0.24zm3.25 0.48l-0.68 0c0,0 -0.01,0 -0.02,0l-1.61 0c-0.01,0 -0.03,0 -0.04,0l-0.66 0 0 0.44 3.01 0 0 -0.44zm-3.83 -5.25c-0.26,0.02 -0.44,0.07 -0.56,0.15 -0.12,0.09 -0.16,0.22 -0.16,0.38 0,0.37 0.36,0.64 0.7,0.89 0.05,0.04 0.09,0.07 0.14,0.1 -0.09,-0.51 -0.11,-1.04 -0.12,-1.52zm4.54 1.51c0.04,-0.03 0.08,-0.06 0.12,-0.09 0.35,-0.25 0.71,-0.52 0.71,-0.89 0,-0.16 -0.05,-0.29 -0.16,-0.38 -0.12,-0.08 -0.3,-0.13 -0.57,-0.15 0,0.47 -0.02,0.99 -0.1,1.51z"
   id="path7" />
 </g>
</svg>
