<?xml version="1.0" encoding="UTF-8" standalone="no"?>
<svg
   xmlns:dc="http://purl.org/dc/elements/1.1/"
   xmlns:cc="http://creativecommons.org/ns#"
   xmlns:rdf="http://www.w3.org/1999/02/22-rdf-syntax-ns#"
   xmlns:svg="http://www.w3.org/2000/svg"
   xmlns="http://www.w3.org/2000/svg"
   xmlns:sodipodi="http://sodipodi.sourceforge.net/DTD/sodipodi-0.dtd"
   xmlns:inkscape="http://www.inkscape.org/namespaces/inkscape"
   version="1.1"
   id="Слой_1"
   x="0px"
   y="0px"
   viewBox="0 0 24 24"
   style="enable-background:new 0 0 24 24;"
   xml:space="preserve"
   sodipodi:docname="ic-update.svg"><metadata
   id="metadata17"><rdf:RDF><cc:Work
       rdf:about=""><dc:format>image/svg+xml</dc:format><dc:type
         rdf:resource="http://purl.org/dc/dcmitype/StillImage" /></cc:Work></rdf:RDF></metadata><defs
   id="defs15" /><sodipodi:namedview
   pagecolor="#ffffff"
   bordercolor="#666666"
   borderopacity="1"
   objecttolerance="10"
   gridtolerance="10"
   guidetolerance="10"
   inkscape:pageopacity="0"
   inkscape:pageshadow="2"
   inkscape:window-width="640"
   inkscape:window-height="480"
   id="namedview13"
   inkscape:document-rotation="0" />
<style
   type="text/css"
   id="style2">
	.st0{fill:none;}
	.st1{fill:#6172F2;}
</style>
<title
   id="title4">Artboard</title>
<desc
   id="desc6">Created with Sketch.</desc>
<g
   id="Artboard">
	<g
   id="ic-update"
   transform="translate(2.000000, 2.000000)">
		<polygon
   id="Rectangle_4642"
   class="st0"
   points="0,0 20,0 20,20 0,20   " />
		<path
   id="Path_18962"
   class="st1"
   d="M13,8.5h5v-5h-2v1.2c-2.4-2.8-6.4-3.5-9.7-1.8s-4.9,5.4-4.1,9S6.3,18,10,18    c2.1,0,4.2-0.8,5.7-2.3l-1.4-1.4c-1.8,1.8-4.5,2.3-6.8,1.2S3.8,12,4,9.5C4.2,7,6,4.9,8.4,4.2s5,0.2,6.5,2.3H13V8.5z" />
	</g>
</g>
</svg>
