<?xml version="1.0" encoding="UTF-8" standalone="no"?>
<svg
   xmlns:dc="http://purl.org/dc/elements/1.1/"
   xmlns:cc="http://creativecommons.org/ns#"
   xmlns:rdf="http://www.w3.org/1999/02/22-rdf-syntax-ns#"
   xmlns:svg="http://www.w3.org/2000/svg"
   xmlns="http://www.w3.org/2000/svg"
   xmlns:sodipodi="http://sodipodi.sourceforge.net/DTD/sodipodi-0.dtd"
   xmlns:inkscape="http://www.inkscape.org/namespaces/inkscape"
   xml:space="preserve"
   width="24px"
   height="24px"
   version="1.0"
   style="shape-rendering:geometricPrecision; text-rendering:geometricPrecision; image-rendering:optimizeQuality; fill-rule:evenodd; clip-rule:evenodd"
   viewBox="0 0 1 1"
   id="svg14"
   sodipodi:docname="ic-wallet-status-locked.svg"><metadata
   id="metadata18"><rdf:RDF><cc:Work
       rdf:about=""><dc:format>image/svg+xml</dc:format><dc:type
         rdf:resource="http://purl.org/dc/dcmitype/StillImage" /></cc:Work></rdf:RDF></metadata><sodipodi:namedview
   pagecolor="#ffffff"
   bordercolor="#666666"
   borderopacity="1"
   objecttolerance="10"
   gridtolerance="10"
   guidetolerance="10"
   inkscape:pageopacity="0"
   inkscape:pageshadow="2"
   inkscape:window-width="640"
   inkscape:window-height="480"
   id="namedview16" />
 <defs
   id="defs4">
  <style
   type="text/css"
   id="style2">
   <![CDATA[
    .fil1 {fill:none}
    .fil0 {fill:#F05A40;fill-rule:nonzero}
   ]]>
  </style>
 </defs>
 <g
   id="Слой_x0020_1">
  <metadata
   id="CorelCorpID_0Corel-Layer" />
  <path
   class="fil0"
   d="M0.26 0.34l0 -0.08c0,-0.07 0.03,-0.13 0.07,-0.17l0 0c0.05,-0.04 0.1,-0.07 0.17,-0.07 0.06,0 0.12,0.03 0.16,0.07 0.05,0.05 0.07,0.11 0.07,0.17l-0.07 0c0,-0.04 -0.02,-0.09 -0.05,-0.12 -0.03,-0.02 -0.07,-0.04 -0.11,-0.04 -0.05,0 -0.09,0.02 -0.12,0.04l0 0c-0.02,0.03 -0.04,0.07 -0.04,0.12l0 0.08 0.35 0c0.05,0 0.09,0.02 0.12,0.05l0 0c0.03,0.03 0.05,0.07 0.05,0.12l0 0.3c0,0.04 -0.02,0.08 -0.05,0.11l0 0c-0.03,0.03 -0.07,0.05 -0.12,0.05l-0.39 0c-0.04,0 -0.09,-0.02 -0.12,-0.05l0 0c-0.03,-0.03 -0.05,-0.07 -0.05,-0.11l0 -0.3c0,-0.05 0.02,-0.09 0.05,-0.12 0.03,-0.02 0.05,-0.04 0.08,-0.05zm0.2 0.17l0.08 0c0.02,0 0.03,0 0.05,0.02l0 0c0.01,0.01 0.02,0.03 0.02,0.05l0 0.17c0,0.02 -0.01,0.03 -0.02,0.05 -0.02,0.01 -0.03,0.02 -0.05,0.02l-0.08 0c-0.02,0 -0.04,-0.01 -0.05,-0.02l0 0c-0.01,-0.02 -0.02,-0.03 -0.02,-0.05l0 -0.17c0,-0.02 0.01,-0.04 0.02,-0.05l0 0c0.01,-0.02 0.03,-0.02 0.05,-0.02zm0.07 0.07l-0.07 0 0 0.16 0.07 0 0 -0.16zm0.16 -0.17l-0.39 0c-0.02,0 -0.05,0.01 -0.06,0.03l0 0c-0.02,0.02 -0.03,0.04 -0.03,0.07l0 0.3c0,0.02 0.01,0.04 0.02,0.06l0.01 0c0.01,0.02 0.04,0.03 0.06,0.03l0.39 0c0.03,0 0.05,-0.01 0.07,-0.03 0.02,-0.02 0.03,-0.04 0.03,-0.06l0 -0.3c0,-0.03 -0.01,-0.05 -0.03,-0.07 -0.02,-0.02 -0.04,-0.03 -0.07,-0.03z"
   id="path7" />
  <rect
   class="fil1"
   width="1"
   height="1"
   id="rect9" />
  <path
   class="fil0"
   d="M0.73 0.34l0 -0.08c0,-0.07 -0.03,-0.13 -0.07,-0.17l0 0c-0.04,-0.04 -0.1,-0.07 -0.16,-0.07 -0.07,0 -0.13,0.03 -0.17,0.07 -0.04,0.05 -0.07,0.11 -0.07,0.17l0.08 0c0,-0.04 0.02,-0.09 0.04,-0.12 0.03,-0.02 0.07,-0.04 0.12,-0.04 0.04,0 0.08,0.02 0.11,0.04l0 0c0.03,0.03 0.05,0.07 0.05,0.12l0 0.08 -0.36 0c-0.04,0 -0.09,0.02 -0.12,0.05l0 0c-0.03,0.03 -0.05,0.07 -0.05,0.12l0 0.3c0,0.04 0.02,0.08 0.05,0.11l0 0c0.03,0.03 0.08,0.05 0.12,0.05l0.39 0c0.05,0 0.09,-0.02 0.12,-0.05l0 0c0.03,-0.03 0.05,-0.07 0.05,-0.11l0 -0.3c0,-0.05 -0.02,-0.09 -0.05,-0.12 -0.02,-0.02 -0.05,-0.04 -0.08,-0.05zm-0.19 0.17l-0.08 0c-0.02,0 -0.04,0 -0.05,0.02l0 0c-0.02,0.01 -0.02,0.03 -0.02,0.05l0 0.17c0,0.02 0.01,0.03 0.02,0.05 0.01,0.01 0.03,0.02 0.05,0.02l0.08 0c0.02,0 0.03,-0.01 0.05,-0.02l0 0c0.01,-0.02 0.02,-0.03 0.02,-0.05l0 -0.17c0,-0.02 -0.01,-0.04 -0.02,-0.05l0 0c-0.02,-0.02 -0.03,-0.02 -0.05,-0.02zm-0.08 0.07l0.07 0 0 0.16 -0.07 0 0 -0.16zm-0.16 -0.17l0.39 0c0.03,0 0.05,0.01 0.07,0.03l0 0c0.02,0.02 0.03,0.04 0.03,0.07l0 0.3c0,0.02 -0.01,0.04 -0.03,0.06l0 0c-0.02,0.02 -0.04,0.03 -0.07,0.03l-0.39 0c-0.02,0 -0.05,-0.01 -0.06,-0.03 -0.02,-0.02 -0.03,-0.04 -0.03,-0.06l0 -0.3c0,-0.03 0.01,-0.05 0.03,-0.07 0.01,-0.02 0.04,-0.03 0.06,-0.03z"
   id="path11" />
 </g>
</svg>
