<?xml version="1.0" encoding="UTF-8" standalone="no"?>
<svg
   xmlns:dc="http://purl.org/dc/elements/1.1/"
   xmlns:cc="http://creativecommons.org/ns#"
   xmlns:rdf="http://www.w3.org/1999/02/22-rdf-syntax-ns#"
   xmlns:svg="http://www.w3.org/2000/svg"
   xmlns="http://www.w3.org/2000/svg"
   xmlns:sodipodi="http://sodipodi.sourceforge.net/DTD/sodipodi-0.dtd"
   xmlns:inkscape="http://www.inkscape.org/namespaces/inkscape"
   xml:space="preserve"
   width="24px"
   height="24px"
   version="1.0"
   style="shape-rendering:geometricPrecision; text-rendering:geometricPrecision; image-rendering:optimizeQuality; fill-rule:evenodd; clip-rule:evenodd"
   viewBox="0 0 5.97 5.97"
   id="svg17"
   sodipodi:docname="ic-wallet-status-staking.svg"><metadata
   id="metadata21"><rdf:RDF><cc:Work
       rdf:about=""><dc:format>image/svg+xml</dc:format><dc:type
         rdf:resource="http://purl.org/dc/dcmitype/StillImage" /></cc:Work></rdf:RDF></metadata><sodipodi:namedview
   pagecolor="#ffffff"
   bordercolor="#666666"
   borderopacity="1"
   objecttolerance="10"
   gridtolerance="10"
   guidetolerance="10"
   inkscape:pageopacity="0"
   inkscape:pageshadow="2"
   inkscape:window-width="640"
   inkscape:window-height="480"
   id="namedview19" />
 <defs
   id="defs4">
  <style
   type="text/css"
   id="style2">
   <![CDATA[
    .fil1 {fill:none}
    .fil0 {fill:#F05A40;fill-rule:nonzero}
   ]]>
  </style>
 </defs>
 <g
   id="Слой_x0020_1">
  <metadata
   id="CorelCorpID_0Corel-Layer" />
  <g
   id="_3048066927232">
   <path
   class="fil0"
   d="M1.58 2.06l0 -0.52c0,-0.38 0.16,-0.73 0.41,-0.99l0 0c0.26,-0.25 0.61,-0.41 0.99,-0.41 0.4,0 0.75,0.16 1,0.42 0.25,0.26 0.4,0.63 0.4,1.03l-0.44 0c0,-0.29 -0.1,-0.54 -0.28,-0.72 -0.17,-0.18 -0.4,-0.29 -0.68,-0.29 -0.26,0 -0.5,0.11 -0.67,0.29l0 0c-0.18,0.17 -0.29,0.41 -0.29,0.67l0 0.49 2.14 0c0.28,0 0.52,0.12 0.7,0.3l0.01 0c0.18,0.18 0.29,0.43 0.29,0.7l0 1.8c0,0.27 -0.11,0.52 -0.29,0.7l-0.01 0c-0.18,0.18 -0.42,0.29 -0.7,0.29l-2.36 0c-0.27,0 -0.52,-0.11 -0.7,-0.29l-0.01 -0.01c-0.18,-0.18 -0.28,-0.43 -0.28,-0.69l0 -1.8c0,-0.27 0.11,-0.52 0.29,-0.7 0.13,-0.13 0.3,-0.23 0.48,-0.27zm2.58 0.42l-2.36 0c-0.15,0 -0.29,0.06 -0.39,0.16l0 0c-0.1,0.1 -0.16,0.24 -0.16,0.39l0 1.8c0,0.14 0.06,0.28 0.15,0.38l0.01 0.01c0.1,0.1 0.24,0.16 0.39,0.16l2.36 0c0.15,0 0.29,-0.06 0.39,-0.16 0.1,-0.1 0.17,-0.24 0.17,-0.39l0 -1.8c0,-0.15 -0.07,-0.29 -0.17,-0.39 -0.1,-0.1 -0.24,-0.16 -0.39,-0.16z"
   id="path7" />
   <path
   class="fil0"
   d="M4.38 2.06l0 -0.52c0,-0.38 -0.16,-0.73 -0.41,-0.99l0 0c-0.25,-0.25 -0.6,-0.41 -0.99,-0.41 -0.4,0 -0.74,0.16 -0.99,0.42 -0.26,0.26 -0.41,0.63 -0.41,1.03l0.44 0c0,-0.29 0.11,-0.54 0.28,-0.72 0.17,-0.18 0.41,-0.29 0.68,-0.29 0.27,0 0.51,0.11 0.68,0.29l0 0c0.17,0.17 0.28,0.41 0.28,0.67l0 0.49 -2.14 0c-0.27,0 -0.52,0.12 -0.7,0.3l0 0c-0.18,0.18 -0.29,0.43 -0.29,0.7l0 1.8c0,0.27 0.11,0.52 0.29,0.7l0 0c0.18,0.18 0.43,0.29 0.7,0.29l2.36 0c0.28,0 0.52,-0.11 0.71,-0.29l0.01 -0.01c0.17,-0.18 0.28,-0.43 0.28,-0.69l0 -1.8c0,-0.27 -0.11,-0.52 -0.3,-0.7 -0.13,-0.13 -0.29,-0.23 -0.48,-0.27zm-2.58 0.42l2.36 0c0.15,0 0.29,0.06 0.39,0.16l0 0c0.1,0.1 0.17,0.24 0.17,0.39l0 1.8c0,0.14 -0.06,0.28 -0.16,0.38l-0.01 0.01c-0.1,0.1 -0.24,0.16 -0.39,0.16l-2.36 0c-0.15,0 -0.29,-0.06 -0.39,-0.16 -0.1,-0.1 -0.16,-0.24 -0.16,-0.39l0 -1.8c0,-0.15 0.06,-0.29 0.16,-0.39 0.1,-0.1 0.24,-0.16 0.39,-0.16z"
   id="path9" />
   <path
   class="fil0"
   d="M3.73 4.49c0.05,0.05 0.05,0.13 0,0.19 -0.05,0.05 -0.13,0.05 -0.19,0l-0.42 -0.43 0 0.6c0,0.08 -0.06,0.14 -0.14,0.14 -0.07,0 -0.13,-0.06 -0.13,-0.14l0 -0.6 -0.43 0.43c-0.05,0.05 -0.13,0.05 -0.19,0 -0.05,-0.06 -0.05,-0.14 0,-0.19l0.43 -0.43 -0.6 0c-0.08,0 -0.14,-0.06 -0.14,-0.13 0,-0.07 0.06,-0.13 0.14,-0.13l0.6 0 -0.43 -0.43c-0.05,-0.05 -0.05,-0.14 0,-0.19 0.06,-0.05 0.14,-0.05 0.19,0l0.43 0.43 0 -0.61c0,-0.07 0.06,-0.13 0.13,-0.13 0.08,0 0.14,0.06 0.14,0.13l0 0.61 0.42 -0.43c0.06,-0.05 0.14,-0.05 0.19,0 0.05,0.05 0.05,0.14 0,0.19l-0.43 0.43 0.61 0c0.07,0 0.13,0.06 0.13,0.13 0,0.07 -0.06,0.13 -0.13,0.13l-0.61 0 0.43 0.43z"
   id="path11" />
  </g>
  <rect
   class="fil1"
   width="5.97"
   height="5.97"
   id="rect14" />
 </g>
</svg>
