<?xml version="1.0" encoding="UTF-8" standalone="no"?>
<svg
   xmlns:dc="http://purl.org/dc/elements/1.1/"
   xmlns:cc="http://creativecommons.org/ns#"
   xmlns:rdf="http://www.w3.org/1999/02/22-rdf-syntax-ns#"
   xmlns:svg="http://www.w3.org/2000/svg"
   xmlns="http://www.w3.org/2000/svg"
   xmlns:sodipodi="http://sodipodi.sourceforge.net/DTD/sodipodi-0.dtd"
   xmlns:inkscape="http://www.inkscape.org/namespaces/inkscape"
   xml:space="preserve"
   width="191px"
   height="50px"
   version="1.0"
   style="shape-rendering:geometricPrecision; text-rendering:geometricPrecision; image-rendering:optimizeQuality; fill-rule:evenodd; clip-rule:evenodd"
   viewBox="0 0 191 50.03"
   id="svg23"
   sodipodi:docname="img-nav-logo.svg"><metadata
   id="metadata27"><rdf:RDF><cc:Work
       rdf:about=""><dc:format>image/svg+xml</dc:format><dc:type
         rdf:resource="http://purl.org/dc/dcmitype/StillImage" /></cc:Work></rdf:RDF></metadata><sodipodi:namedview
   pagecolor="#ffffff"
   bordercolor="#666666"
   borderopacity="1"
   objecttolerance="10"
   gridtolerance="10"
   guidetolerance="10"
   inkscape:pageopacity="0"
   inkscape:pageshadow="2"
   inkscape:window-width="640"
   inkscape:window-height="480"
   id="namedview25"
   inkscape:document-rotation="0" />
 <defs
   id="defs4">
  <style
   type="text/css"
   id="style2">
   <![CDATA[
    .fil0 {fill:none}
    .fil3 {fill:#FEFEFE;fill-rule:nonzero}
    .fil1 {fill:#FEFEFE;fill-rule:nonzero}
    .fil2 {fill:#FF5E39;fill-rule:nonzero}
   ]]>
  </style>
 </defs>
 <g
   id="Слой_x0020_1">
  <metadata
   id="CorelCorpID_0Corel-Layer" />
  <rect
   class="fil0"
   width="191"
   height="50.03"
   id="rect7" />
  <g
   id="_1582934899936">
   <path
   class="fil1"
   d="M74.39 9.74l-12.44 0 0 16.42 13.5 0c11.1,-0.96 11.86,-16.42 -1.06,-16.42zm-15.99 -7.11l15.86 0c17.39,0 22.81,20.48 8.18,28.93l0 0.01c-0.09,0.05 -0.17,0.09 -0.25,0.14 3.19,3.59 6.41,7.04 9.47,10.76 3.22,3.92 -2.03,7.92 -5.64,4.17 0,0 -12.08,-13.36 -12.08,-13.36l-11.99 0 0 11.09c0,5.15 -7.1,5.07 -7.11,0l0 -38.18c0,-1.86 1.36,-3.56 3.56,-3.56z"
   id="path9" />
   <path
   class="fil2"
   d="M33.87 30.77c0.53,0.53 0.53,1.39 0,1.92 -0.53,0.53 -1.39,0.53 -1.92,0l-4.39 -4.39 0 6.21c0,0.75 -0.61,1.36 -1.36,1.36 -0.75,0 -1.36,-0.61 -1.36,-1.36l0 -6.21 -4.39 4.39c-0.53,0.53 -1.4,0.53 -1.93,0 -0.53,-0.53 -0.53,-1.39 0,-1.92l4.39 -4.39 -6.21 0c-0.75,0 -1.36,-0.61 -1.36,-1.36 0,-0.75 0.61,-1.36 1.36,-1.36l6.21 0 -4.39 -4.4c-0.53,-0.53 -0.53,-1.39 0,-1.92 0.53,-0.53 1.4,-0.53 1.93,0l4.39 4.39 0 -6.21c0,-0.75 0.61,-1.36 1.36,-1.36 0.75,0 1.36,0.61 1.36,1.36l0 6.21 4.39 -4.39c0.53,-0.53 1.39,-0.53 1.92,0 0.53,0.53 0.53,1.39 0,1.92l-4.39 4.4 6.21 0c0.75,0 1.36,0.61 1.36,1.36 0,0.75 -0.61,1.36 -1.36,1.36l-6.21 0 4.39 4.39z"
   id="path11" />
   <path
   class="fil3"
   d="M22.32 47.91c-5.53,-0.94 -10.4,-3.82 -13.86,-7.92 -3.42,-4.05 -5.48,-9.28 -5.48,-14.97 0,-6.42 2.6,-12.22 6.8,-16.42 4.2,-4.21 10.01,-6.8 16.42,-6.8 6.41,0 12.22,2.59 16.42,6.8 4.2,4.2 6.8,10 6.8,16.42 0,6.41 -2.6,12.21 -6.8,16.41 -4.2,4.21 -10.01,6.81 -16.42,6.81 -0.64,0 -1.29,-0.03 -1.95,-0.09 -0.61,-0.05 -1.25,-0.13 -1.93,-0.24zm-8.46 -12.49c2.41,2.85 5.79,4.86 9.63,5.5 0.4,0.07 0.85,0.13 1.34,0.17 0.44,0.03 0.89,0.05 1.37,0.05 4.45,0 8.48,-1.8 11.4,-4.72 2.92,-2.92 4.73,-6.95 4.73,-11.4 0,-4.46 -1.81,-8.49 -4.73,-11.41 -2.92,-2.92 -6.95,-4.72 -11.4,-4.72 -4.46,0 -8.49,1.8 -11.41,4.72 -2.91,2.92 -4.72,6.95 -4.72,11.41 0,3.97 1.43,7.59 3.79,10.4z"
   id="path13" />
   <path
   class="fil3"
   d="M34.67 39.96c-1.58,0 -2.87,-1.29 -2.87,-2.88 0,-1.33 0.9,-2.45 2.13,-2.78 4.42,-1.18 7.64,1.89 9.65,5.44 0.76,1.35 1.53,2.7 4.1,2.7 4.39,-0.03 4.24,5.76 0,5.76 -5.93,0 -7.53,-2.82 -9.11,-5.62 -0.74,-1.31 -1.49,-2.62 -3.9,-2.62z"
   id="path15" />
   <path
   class="fil1"
   d="M133.56 39.54l0 0c-0.63,-1.21 -1.13,-2.11 -1.49,-2.72l-12.04 0 -12.04 0c-0.36,0.61 -0.86,1.51 -1.49,2.72l0 0 -3.41 6.57c-2.28,4.4 -8.32,1.18 -6.07,-3.15l2.83 -5.46 -0.01 0c0.08,-0.14 0.16,-0.29 0.24,-0.44l0.35 -0.67 0 0c5.28,-10.37 9.35,-18.33 12.23,-23.9 2.84,-5.5 4.41,-8.45 4.71,-8.84 0.73,-1.11 1.69,-1.54 2.66,-1.48 0.97,-0.06 1.93,0.37 2.66,1.48 0.3,0.39 1.87,3.34 4.71,8.84 2.88,5.57 6.95,13.53 12.23,23.9l0 0 0.35 0.67c0.08,0.15 0.16,0.3 0.24,0.44l-0.01 0 2.83 5.46c2.25,4.33 -3.79,7.55 -6.07,3.15l-3.41 -6.57zm-13.53 -9.57l8.56 0 -8.56 -16.89 -8.55 16.89 8.55 0z"
   id="path17" />
   <path
   class="fil3"
   d="M153.56 46.99c-1.28,1.47 -3.52,1.62 -4.99,0.34 -1.47,-1.29 -1.61,-3.52 -0.33,-4.99l14.69 -16.81 -14.83 -16.97c-1.28,-1.47 -1.13,-3.7 0.34,-4.98 1.47,-1.29 3.7,-1.14 4.99,0.33l14.2 16.25 14.2 -16.25c1.28,-1.47 3.52,-1.62 4.98,-0.33 1.47,1.28 1.62,3.51 0.34,4.98l-14.83 16.97 14.69 16.81c1.29,1.47 1.14,3.7 -0.33,4.99 -1.47,1.28 -3.7,1.13 -4.99,-0.34l-14.06 -16.09 -14.07 16.09z"
   id="path19" />
  </g>
 </g>
</svg>
