<?xml version="1.0" encoding="UTF-8" standalone="no"?>
<svg
   xmlns:dc="http://purl.org/dc/elements/1.1/"
   xmlns:cc="http://creativecommons.org/ns#"
   xmlns:rdf="http://www.w3.org/1999/02/22-rdf-syntax-ns#"
   xmlns:svg="http://www.w3.org/2000/svg"
   xmlns="http://www.w3.org/2000/svg"
   xmlns:sodipodi="http://sodipodi.sourceforge.net/DTD/sodipodi-0.dtd"
   xmlns:inkscape="http://www.inkscape.org/namespaces/inkscape"
   xml:space="preserve"
   width="100px"
   height="100px"
   version="1.0"
   style="shape-rendering:geometricPrecision; text-rendering:geometricPrecision; image-rendering:optimizeQuality; fill-rule:evenodd; clip-rule:evenodd"
   viewBox="0 0 106.08 106.08"
   id="svg12"
   sodipodi:docname="img-empty-staking-off.svg"><metadata
   id="metadata16"><rdf:RDF><cc:Work
       rdf:about=""><dc:format>image/svg+xml</dc:format><dc:type
         rdf:resource="http://purl.org/dc/dcmitype/StillImage" /></cc:Work></rdf:RDF></metadata><sodipodi:namedview
   pagecolor="#ffffff"
   bordercolor="#666666"
   borderopacity="1"
   objecttolerance="10"
   gridtolerance="10"
   guidetolerance="10"
   inkscape:pageopacity="0"
   inkscape:pageshadow="2"
   inkscape:window-width="640"
   inkscape:window-height="480"
   id="namedview14"
   inkscape:document-rotation="0" />
 <defs
   id="defs4">
  <style
   type="text/css"
   id="style2">
   <![CDATA[
    .fil0 {fill:none}
    .fil1 {fill:#6172F2;fill-rule:nonzero}
   ]]>
  </style>
 </defs>
 <g
   id="Слой_x0020_1">
  <metadata
   id="CorelCorpID_0Corel-Layer" />
  <rect
   class="fil0"
   width="106.08"
   height="106.08"
   id="rect7" />
  <path
   class="fil1"
   d="M61.4 86.76l-43.33 0c-0.9,0 -1.72,-0.37 -2.31,-0.96 -0.59,-0.6 -0.96,-1.41 -0.96,-2.32l0 -42.23 -1.32 0c-0.83,0 -1.6,-0.35 -2.15,-0.9l-0.01 0c-0.55,-0.56 -0.9,-1.32 -0.9,-2.16l0 -14.2c0,-0.84 0.35,-1.6 0.9,-2.15l0 -0.01c0.55,-0.55 1.32,-0.9 2.16,-0.9l16.42 0 -0.05 -0.05 -0.01 0c-2.06,-2.07 -3.35,-4.92 -3.35,-8.06 0,-3.13 1.29,-5.98 3.35,-8.05l0 0c2.07,-2.07 4.92,-3.35 8.06,-3.35l0.58 0c3.14,0 6,1.28 8.06,3.35 0.65,0.65 1.22,1.37 1.7,2.16 0.48,-0.78 1.05,-1.51 1.7,-2.16l0.01 0c2.06,-2.07 4.92,-3.35 8.05,-3.35l0.59 0c3.13,0 5.98,1.28 8.05,3.35l0 0c2.07,2.07 3.35,4.92 3.35,8.05 0,3.14 -1.28,5.99 -3.35,8.06l0 0 -0.05 0.05 16.41 0c0.84,0 1.61,0.35 2.16,0.9 0.56,0.55 0.9,1.32 0.9,2.16l0 14.2c0,0.84 -0.34,1.61 -0.9,2.16 -0.55,0.55 -1.32,0.9 -2.16,0.9l-1.32 0 0 24.74c4.52,0.39 8.58,2.39 11.61,5.42 3.39,3.39 5.49,8.08 5.49,13.25 0,5.18 -2.1,9.87 -5.49,13.26 -3.39,3.39 -8.08,5.49 -13.26,5.49 -5.17,0 -9.86,-2.1 -13.25,-5.49 -2.93,-2.93 -4.9,-6.82 -5.38,-11.16zm25.82 2.75c0.64,0.65 0.64,1.69 0,2.34 -0.65,0.64 -1.69,0.64 -2.34,0l-4.85 -4.85 -4.85 4.85c-0.64,0.64 -1.68,0.64 -2.33,0 -0.64,-0.65 -0.64,-1.69 0,-2.34l4.85 -4.85 -4.85 -4.85c-0.64,-0.64 -0.64,-1.69 0,-2.33 0.65,-0.64 1.69,-0.64 2.33,0l4.85 4.85 4.85 -4.85c0.65,-0.64 1.69,-0.64 2.34,0 0.64,0.64 0.64,1.69 0,2.33l-4.85 4.85 4.85 4.85zm-8.84 -23.52l0 -24.74 -21.63 0 -17.02 0 -21.63 0 0 42.21 43.22 0c0.3,-4.7 2.33,-8.93 5.46,-12.05 3.03,-3.03 7.09,-5.03 11.6,-5.42zm12.58 7.75c-2.8,-2.8 -6.66,-4.53 -10.93,-4.53 -4.26,0 -8.13,1.73 -10.92,4.53 -2.8,2.79 -4.53,6.66 -4.53,10.92 0,4.27 1.73,8.13 4.53,10.93 2.79,2.79 6.66,4.52 10.92,4.52 4.27,0 8.13,-1.73 10.93,-4.52 2.79,-2.8 4.52,-6.66 4.52,-10.93 0,-4.26 -1.73,-8.13 -4.52,-10.92zm-33.26 -5.04c0.86,0.86 0.86,2.26 0,3.11 -0.86,0.86 -2.25,0.86 -3.11,0l-4.15 -4.15 0 5.87c0,1.22 -0.98,2.2 -2.2,2.2 -1.21,0 -2.2,-0.98 -2.2,-2.2l0 -5.87 -4.15 4.15c-0.86,0.86 -2.25,0.86 -3.11,0 -0.86,-0.85 -0.86,-2.25 0,-3.11l4.15 -4.15 -5.87 0c-1.21,0 -2.2,-0.98 -2.2,-2.2 0,-1.21 0.99,-2.2 2.2,-2.2l5.87 0 -4.15 -4.15c-0.86,-0.85 -0.86,-2.25 0,-3.11 0.86,-0.85 2.25,-0.85 3.11,0l4.15 4.16 0 -5.88c0,-1.21 0.99,-2.19 2.2,-2.19 1.22,0 2.2,0.98 2.2,2.19l0 5.87 4.15 -4.15c0.86,-0.85 2.25,-0.85 3.11,0 0.86,0.86 0.86,2.26 0,3.11l-4.15 4.15 5.87 0c1.22,0 2.2,0.99 2.2,2.2 0,1.22 -0.98,2.2 -2.2,2.2l-5.87 0 4.15 4.15zm-19.62 -30.75l0 -13.72 -0.18 0 -24.18 0 0 13.72 4.35 0 20.01 0zm20.32 -13.72l0 13.72 20.01 0 4.35 0 0 -13.72 -24.17 0 -0.19 0zm-17.02 0l0 13.72 13.72 0 0 -13.72 -6.86 0 -6.86 0zm8.51 -11.41l0 8.11 6.86 0 1.84 0c2.23,0 4.25,-0.91 5.72,-2.38 1.47,-1.47 2.38,-3.5 2.38,-5.73 0,-2.23 -0.91,-4.25 -2.38,-5.72 -1.47,-1.47 -3.49,-2.38 -5.72,-2.38l-0.59 0c-2.23,0 -4.26,0.91 -5.73,2.38 -1.47,1.47 -2.38,3.49 -2.38,5.72zm-11.99 8.11l1.83 0 6.86 0 0 -8.11c0,-2.22 -0.91,-4.25 -2.38,-5.72 -1.47,-1.47 -3.5,-2.38 -5.73,-2.38l-0.58 0c-2.23,0 -4.26,0.91 -5.73,2.38 -1.47,1.47 -2.38,3.49 -2.38,5.72 0,2.23 0.91,4.26 2.38,5.73 1.47,1.47 3.5,2.38 5.73,2.38z"
   id="path9" />
 </g>
</svg>
