<?xml version="1.0" encoding="UTF-8" standalone="no"?>
<svg
   xmlns:dc="http://purl.org/dc/elements/1.1/"
   xmlns:cc="http://creativecommons.org/ns#"
   xmlns:rdf="http://www.w3.org/1999/02/22-rdf-syntax-ns#"
   xmlns:svg="http://www.w3.org/2000/svg"
   xmlns="http://www.w3.org/2000/svg"
   xmlns:sodipodi="http://sodipodi.sourceforge.net/DTD/sodipodi-0.dtd"
   xmlns:inkscape="http://www.inkscape.org/namespaces/inkscape"
   xml:space="preserve"
   width="100px"
   height="94px"
   version="1.0"
   style="shape-rendering:geometricPrecision; text-rendering:geometricPrecision; image-rendering:optimizeQuality; fill-rule:evenodd; clip-rule:evenodd"
   viewBox="0 0 32.48 30.59"
   id="svg14"
   sodipodi:docname="img-empty-staking-on.svg"><metadata
   id="metadata18"><rdf:RDF><cc:Work
       rdf:about=""><dc:format>image/svg+xml</dc:format><dc:type
         rdf:resource="http://purl.org/dc/dcmitype/StillImage" /></cc:Work></rdf:RDF></metadata><sodipodi:namedview
   pagecolor="#ffffff"
   bordercolor="#666666"
   borderopacity="1"
   objecttolerance="10"
   gridtolerance="10"
   guidetolerance="10"
   inkscape:pageopacity="0"
   inkscape:pageshadow="2"
   inkscape:window-width="640"
   inkscape:window-height="480"
   id="namedview16"
   inkscape:document-rotation="0" />
 <defs
   id="defs4">
  <style
   type="text/css"
   id="style2">
   <![CDATA[
    .fil0 {fill:none}
    .fil1 {fill:#6172F2;fill-rule:nonzero}
   ]]>
  </style>
 </defs>
 <g
   id="Слой_x0020_1">
  <metadata
   id="CorelCorpID_0Corel-Layer" />
  <rect
   class="fil0"
   width="30.59"
   height="30.59"
   id="rect7" />
  <rect
   class="fil0"
   x="5.78"
   width="26.7"
   height="26.7"
   id="rect9" />
  <path
   class="fil1"
   d="M21.23 21.83l-10.9 0c-0.23,0 -0.43,-0.09 -0.58,-0.24 -0.15,-0.15 -0.24,-0.35 -0.24,-0.58l0 -10.63 -0.34 0c-0.21,0 -0.4,-0.09 -0.54,-0.23l0 0c-0.14,-0.14 -0.23,-0.33 -0.23,-0.54l0 -3.57c0,-0.21 0.09,-0.41 0.23,-0.54l0 -0.01c0.14,-0.14 0.33,-0.22 0.54,-0.22l4.13 0 -0.01 -0.01 0 -0.01c-0.52,-0.52 -0.84,-1.23 -0.84,-2.02 0,-0.79 0.32,-1.51 0.84,-2.03l0 0c0.52,-0.52 1.24,-0.84 2.03,-0.84l0.15 0c0.79,0 1.5,0.32 2.02,0.84 0.17,0.16 0.31,0.35 0.43,0.55 0.12,-0.2 0.27,-0.39 0.43,-0.55l0 0c0.52,-0.52 1.24,-0.84 2.03,-0.84l0.14 0c0.79,0 1.51,0.32 2.03,0.84l0 0c0.52,0.52 0.84,1.24 0.84,2.03 0,0.79 -0.32,1.5 -0.84,2.02l0 0.01 -0.01 0.01 4.13 0c0.21,0 0.4,0.08 0.54,0.22 0.14,0.14 0.23,0.34 0.23,0.55l0 3.57c0,0.21 -0.09,0.41 -0.23,0.54 -0.14,0.14 -0.33,0.23 -0.54,0.23l-0.33 0 0 6.23c1.13,0.1 2.16,0.6 2.92,1.36 0.85,0.85 1.38,2.03 1.38,3.34 0,1.3 -0.53,2.48 -1.38,3.33 -0.86,0.86 -2.04,1.39 -3.34,1.39 -1.3,0 -2.48,-0.53 -3.33,-1.39 -0.74,-0.73 -1.24,-1.71 -1.36,-2.81zm6.01 -2.44c0.09,-0.21 0.34,-0.3 0.54,-0.21 0.21,0.09 0.31,0.34 0.22,0.54l-1.66 3.74 0 0 -0.01 0.01 0 0 -0.01 0.02 0 0 0 0 -0.01 0.01 0 0 0 0.01 0 0c-0.04,0.06 -0.09,0.11 -0.15,0.14l0 0 0 0 -0.01 0.01 -0.01 0 0 0 -0.01 0.01 0 0 -0.01 0 0 0 -0.01 0 0 0 -0.01 0.01 0 0 -0.01 0 0 0 -0.01 0 0 0 -0.01 0.01 0 0 -0.01 0 0 0 -0.01 0 0 0 -0.01 0 0 0 -0.01 0 0 0 -0.01 0.01 0 0c-0.07,0.01 -0.15,0 -0.23,-0.03 -0.01,-0.01 -0.02,-0.02 -0.03,-0.02l0 0 -0.01 -0.01 0 0c-0.05,-0.03 -0.09,-0.06 -0.12,-0.1l-1.69 -2.11c-0.14,-0.18 -0.11,-0.44 0.07,-0.59 0.18,-0.14 0.44,-0.11 0.58,0.07l1.27 1.59 1.38 -3.11zm-1.73 -2.78l0 -6.23 -5.45 0 -4.28 0 -5.44 0 0 10.62 10.87 0c0.08,-1.18 0.59,-2.24 1.38,-3.03 0.76,-0.76 1.78,-1.26 2.92,-1.36zm3.16 1.95c-0.7,-0.71 -1.67,-1.14 -2.75,-1.14 -1.07,0 -2.04,0.43 -2.75,1.14 -0.7,0.7 -1.14,1.67 -1.14,2.75 0,1.07 0.44,2.04 1.14,2.75 0.71,0.7 1.68,1.13 2.75,1.13 1.08,0 2.05,-0.43 2.75,-1.13 0.7,-0.71 1.14,-1.68 1.14,-2.75 0,-1.08 -0.44,-2.05 -1.14,-2.75zm-8.37 -1.27c0.22,0.22 0.22,0.57 0,0.78 -0.21,0.22 -0.56,0.22 -0.78,0l-1.05 -1.04 0 1.48c0,0.3 -0.24,0.55 -0.55,0.55 -0.3,0 -0.55,-0.25 -0.55,-0.55l0 -1.48 -1.05 1.04c-0.21,0.22 -0.56,0.22 -0.78,0 -0.22,-0.21 -0.22,-0.56 0,-0.78l1.05 -1.04 -1.48 0c-0.31,0 -0.56,-0.25 -0.56,-0.56 0,-0.3 0.25,-0.55 0.56,-0.55l1.47 0 -1.04 -1.05c-0.22,-0.21 -0.22,-0.56 0,-0.78 0.22,-0.21 0.57,-0.21 0.78,0l1.05 1.05 0 -1.48c0,-0.31 0.25,-0.55 0.55,-0.55 0.31,0 0.55,0.24 0.55,0.55l0 1.48 1.05 -1.05c0.22,-0.21 0.57,-0.21 0.78,0 0.22,0.22 0.22,0.57 0,0.78l-1.04 1.05 1.47 0c0.31,0 0.56,0.25 0.56,0.55 0,0.31 -0.25,0.56 -0.56,0.56l-1.47 0 1.04 1.04zm-4.94 -7.74l0 -3.45 -0.04 0 -6.09 0 0 3.45 1.1 0 5.03 0zm5.12 -3.45l0 3.45 5.03 0 1.1 0 0 -3.45 -6.09 0 -0.04 0zm-4.28 0l0 3.45 3.45 0 0 -3.45 -1.73 0 -1.72 0zm2.14 -2.87l0 2.04 1.72 0 0.46 0c0.57,0 1.08,-0.23 1.45,-0.6 0.37,-0.37 0.59,-0.88 0.59,-1.44 0,-0.56 -0.22,-1.07 -0.59,-1.44 -0.37,-0.37 -0.88,-0.6 -1.45,-0.6l-0.14 0c-0.56,0 -1.08,0.23 -1.44,0.6 -0.37,0.37 -0.6,0.88 -0.6,1.44zm-3.02 2.04l0.46 0 1.73 0 0 -2.04c0,-0.56 -0.23,-1.07 -0.6,-1.44 -0.37,-0.37 -0.88,-0.6 -1.44,-0.6l-0.15 0c-0.56,0 -1.07,0.23 -1.44,0.6 -0.37,0.37 -0.6,0.88 -0.6,1.44 0,0.56 0.23,1.07 0.6,1.44 0.37,0.37 0.88,0.6 1.44,0.6z"
   id="path11" />
 </g>
</svg>
