<?xml version="1.0" encoding="UTF-8" standalone="no"?>
<svg
   xmlns:dc="http://purl.org/dc/elements/1.1/"
   xmlns:cc="http://creativecommons.org/ns#"
   xmlns:rdf="http://www.w3.org/1999/02/22-rdf-syntax-ns#"
   xmlns:svg="http://www.w3.org/2000/svg"
   xmlns="http://www.w3.org/2000/svg"
   xmlns:sodipodi="http://sodipodi.sourceforge.net/DTD/sodipodi-0.dtd"
   xmlns:inkscape="http://www.inkscape.org/namespaces/inkscape"
   xml:space="preserve"
   width="112px"
   height="114px"
   version="1.0"
   style="shape-rendering:geometricPrecision; text-rendering:geometricPrecision; image-rendering:optimizeQuality; fill-rule:evenodd; clip-rule:evenodd"
   viewBox="0 0 10.73 10.96"
   id="svg10"
   sodipodi:docname="img-empty-dark-masternode.svg"><metadata
   id="metadata14"><rdf:RDF><cc:Work
       rdf:about=""><dc:format>image/svg+xml</dc:format><dc:type
         rdf:resource="http://purl.org/dc/dcmitype/StillImage" /></cc:Work></rdf:RDF></metadata><sodipodi:namedview
   pagecolor="#ffffff"
   bordercolor="#666666"
   borderopacity="1"
   objecttolerance="10"
   gridtolerance="10"
   guidetolerance="10"
   inkscape:pageopacity="0"
   inkscape:pageshadow="2"
   inkscape:window-width="640"
   inkscape:window-height="480"
   id="namedview12"
   inkscape:document-rotation="0" />
 <defs
   id="defs4">
  <style
   type="text/css"
   id="style2">
   <![CDATA[
    .fil0 {fill:#6172F2;fill-rule:nonzero}
   ]]>
  </style>
 </defs>
 <g
   id="Слой_x0020_1">
  <metadata
   id="CorelCorpID_0Corel-Layer" />
  <path
   class="fil0"
   d="M0.65 0l9.43 0c0.18,0 0.34,0.07 0.46,0.19 0.11,0.12 0.19,0.28 0.19,0.46l0 1.8c0,0.18 -0.08,0.34 -0.19,0.46 -0.03,0.03 -0.07,0.06 -0.1,0.08l0 1.05c0.03,0.02 0.07,0.05 0.1,0.08 0.11,0.12 0.19,0.28 0.19,0.46l0 1.8c0,0.18 -0.08,0.34 -0.19,0.46 -0.03,0.03 -0.07,0.06 -0.1,0.08l0 1.05c0.03,0.02 0.07,0.05 0.1,0.08 0.11,0.12 0.19,0.28 0.19,0.46l0 1.8c0,0.18 -0.08,0.34 -0.19,0.46 -0.12,0.12 -0.28,0.19 -0.46,0.19l-9.43 0c-0.18,0 -0.34,-0.07 -0.46,-0.19 -0.12,-0.12 -0.19,-0.28 -0.19,-0.46l0 -1.8c0,-0.18 0.07,-0.34 0.19,-0.46 0.03,-0.03 0.06,-0.06 0.1,-0.08l0 -1.05c-0.04,-0.02 -0.07,-0.05 -0.1,-0.08 -0.12,-0.12 -0.19,-0.28 -0.19,-0.46l0 -1.8c0,-0.18 0.07,-0.34 0.19,-0.46 0.03,-0.03 0.06,-0.06 0.1,-0.08l0 -1.05c-0.04,-0.02 -0.07,-0.05 -0.1,-0.08 -0.12,-0.12 -0.19,-0.28 -0.19,-0.46l0 -1.8c0,-0.18 0.07,-0.34 0.19,-0.46 0.12,-0.12 0.28,-0.19 0.46,-0.19zm8.45 9.39c0,-0.2 0.16,-0.37 0.37,-0.37 0.2,0 0.37,0.17 0.37,0.37l0 0.02c0,0.2 -0.17,0.37 -0.37,0.37 -0.21,0 -0.37,-0.17 -0.37,-0.37l0 -0.02zm-0.99 0c0,-0.2 0.17,-0.37 0.37,-0.37 0.21,0 0.37,0.17 0.37,0.37l0 0.02c0,0.2 -0.16,0.37 -0.37,0.37 -0.2,0 -0.37,-0.17 -0.37,-0.37l0 -0.02zm-0.99 0c0,-0.2 0.17,-0.37 0.37,-0.37 0.21,0 0.37,0.17 0.37,0.37l0 0.02c0,0.2 -0.16,0.37 -0.37,0.37 -0.2,0 -0.37,-0.17 -0.37,-0.37l0 -0.02zm-0.99 0c0,-0.2 0.17,-0.37 0.38,-0.37 0.2,0 0.37,0.17 0.37,0.37l0 0.02c0,0.2 -0.17,0.37 -0.37,0.37 -0.21,0 -0.38,-0.17 -0.38,-0.37l0 -0.02zm2.97 -3.92c0,-0.21 0.16,-0.38 0.37,-0.38 0.2,0 0.37,0.17 0.37,0.38l0 0.01c0,0.2 -0.17,0.37 -0.37,0.37 -0.21,0 -0.37,-0.17 -0.37,-0.37l0 -0.01zm-0.99 0c0,-0.21 0.17,-0.38 0.37,-0.38 0.21,0 0.37,0.17 0.37,0.38l0 0.01c0,0.2 -0.16,0.37 -0.37,0.37 -0.2,0 -0.37,-0.17 -0.37,-0.37l0 -0.01zm-0.99 0c0,-0.21 0.17,-0.38 0.37,-0.38 0.21,0 0.37,0.17 0.37,0.38l0 0.01c0,0.2 -0.16,0.37 -0.37,0.37 -0.2,0 -0.37,-0.17 -0.37,-0.37l0 -0.01zm-0.99 0c0,-0.21 0.17,-0.38 0.38,-0.38 0.2,0 0.37,0.17 0.37,0.38l0 0.01c0,0.2 -0.17,0.37 -0.37,0.37 -0.21,0 -0.38,-0.17 -0.38,-0.37l0 -0.01zm2.97 -3.92c0,-0.2 0.16,-0.37 0.37,-0.37 0.2,0 0.37,0.17 0.37,0.37l0 0.02c0,0.2 -0.17,0.37 -0.37,0.37 -0.21,0 -0.37,-0.17 -0.37,-0.37l0 -0.02zm-0.99 0c0,-0.2 0.17,-0.37 0.37,-0.37 0.21,0 0.37,0.17 0.37,0.37l0 0.02c0,0.2 -0.16,0.37 -0.37,0.37 -0.2,0 -0.37,-0.17 -0.37,-0.37l0 -0.02zm-0.99 0c0,-0.2 0.17,-0.37 0.37,-0.37 0.21,0 0.37,0.17 0.37,0.37l0 0.02c0,0.2 -0.16,0.37 -0.37,0.37 -0.2,0 -0.37,-0.17 -0.37,-0.37l0 -0.02zm-0.99 0c0,-0.2 0.17,-0.37 0.38,-0.37 0.2,0 0.37,0.17 0.37,0.37l0 0.02c0,0.2 -0.17,0.37 -0.37,0.37 -0.21,0 -0.38,-0.17 -0.38,-0.37l0 -0.02zm-2.96 -0.71l0 1.42 -0.39 0 0 -1.42 0.39 0zm0 3.93l0 1.42 -0.39 0 0 -1.42 0.39 0zm0 3.93l0 1.42 -0.39 0 0 -1.42 0.39 0zm-0.92 -7.86l0 1.42 -0.39 0 0 -1.42 0.39 0zm-0.92 0l0 1.42 -0.39 0 0 -1.42 0.39 0zm0.92 3.93l0 1.42 -0.39 0 0 -1.42 0.39 0zm-0.92 0l0 1.42 -0.39 0 0 -1.42 0.39 0zm0.92 3.93l0 1.42 -0.39 0 0 -1.42 0.39 0zm-0.92 0l0 1.42 -0.39 0 0 -1.42 0.39 0zm-0.71 -5.99l9.49 0c0.06,0 0.11,-0.03 0.15,-0.07 0.05,-0.05 0.08,-0.11 0.08,-0.19l0 -1.8c0,-0.07 -0.03,-0.14 -0.08,-0.19 -0.05,-0.04 -0.11,-0.07 -0.18,-0.07l-9.43 0c-0.07,0 -0.14,0.03 -0.18,0.07 -0.05,0.05 -0.08,0.12 -0.08,0.19l0 1.8c0,0.08 0.03,0.14 0.08,0.19 0.04,0.04 0.09,0.07 0.15,0.07zm9.49 1.61l-9.49 0c-0.06,0.01 -0.11,0.03 -0.15,0.07 -0.05,0.05 -0.08,0.11 -0.08,0.19l0 1.8c0,0.08 0.03,0.14 0.08,0.19 0.04,0.04 0.09,0.06 0.15,0.07l9.49 0c0.06,-0.01 0.11,-0.03 0.15,-0.07 0.05,-0.05 0.08,-0.11 0.08,-0.19l0 -1.8c0,-0.08 -0.03,-0.14 -0.08,-0.19 -0.04,-0.04 -0.09,-0.06 -0.15,-0.07zm-0.06 -1.21l-9.37 0 0 0.82 9.37 0 0 -0.82zm0.06 5.14l-9.49 0c-0.06,0 -0.11,0.03 -0.15,0.07 -0.05,0.05 -0.08,0.11 -0.08,0.19l0 1.8c0,0.07 0.03,0.14 0.08,0.19 0.04,0.04 0.11,0.07 0.18,0.07l9.43 0c0.07,0 0.13,-0.03 0.18,-0.07 0.05,-0.05 0.08,-0.12 0.08,-0.19l0 -1.8c0,-0.08 -0.03,-0.14 -0.08,-0.19 -0.04,-0.04 -0.09,-0.07 -0.15,-0.07zm-0.06 -1.22l-9.37 0 0 0.82 9.37 0 0 -0.82z"
   id="path7" />
 </g>
</svg>
