<?xml version="1.0" encoding="UTF-8" standalone="no"?>
<svg
   xmlns:dc="http://purl.org/dc/elements/1.1/"
   xmlns:cc="http://creativecommons.org/ns#"
   xmlns:rdf="http://www.w3.org/1999/02/22-rdf-syntax-ns#"
   xmlns:svg="http://www.w3.org/2000/svg"
   xmlns="http://www.w3.org/2000/svg"
   xmlns:sodipodi="http://sodipodi.sourceforge.net/DTD/sodipodi-0.dtd"
   xmlns:inkscape="http://www.inkscape.org/namespaces/inkscape"
   xml:space="preserve"
   width="100px"
   height="100px"
   version="1.0"
   style="shape-rendering:geometricPrecision; text-rendering:geometricPrecision; image-rendering:optimizeQuality; fill-rule:evenodd; clip-rule:evenodd"
   viewBox="0 0 21.76 21.76"
   id="svg12"
   sodipodi:docname="img-empty-transactions.svg"><metadata
   id="metadata16"><rdf:RDF><cc:Work
       rdf:about=""><dc:format>image/svg+xml</dc:format><dc:type
         rdf:resource="http://purl.org/dc/dcmitype/StillImage" /></cc:Work></rdf:RDF></metadata><sodipodi:namedview
   pagecolor="#ffffff"
   bordercolor="#666666"
   borderopacity="1"
   objecttolerance="10"
   gridtolerance="10"
   guidetolerance="10"
   inkscape:pageopacity="0"
   inkscape:pageshadow="2"
   inkscape:window-width="640"
   inkscape:window-height="480"
   id="namedview14"
   inkscape:document-rotation="0" />
 <defs
   id="defs4">
  <style
   type="text/css"
   id="style2">
   <![CDATA[
    .fil0 {fill:none}
    .fil1 {fill:#6172F2;fill-rule:nonzero}
   ]]>
  </style>
 </defs>
 <g
   id="Слой_x0020_1">
  <metadata
   id="CorelCorpID_0Corel-Layer" />
  <rect
   class="fil0"
   width="21.76"
   height="21.76"
   id="rect7" />
  <path
   class="fil1"
   d="M18.07 4.49c1.27,1.27 1.91,2.94 1.91,4.61 0,1.67 -0.64,3.34 -1.91,4.62 -1.28,1.27 -2.95,1.91 -4.62,1.91 -1.67,0 -3.34,-0.64 -4.61,-1.91 -1.28,-1.28 -1.92,-2.95 -1.92,-4.62 0,-0.77 0.14,-1.54 0.41,-2.27l-3.38 3.38c-0.12,0.12 -0.3,0.12 -0.42,0 -0.11,-0.11 -0.11,-0.3 0,-0.42l5.26 -5.25 0 -0.01 0.05 -0.04c1.27,-1.28 2.94,-1.91 4.61,-1.91 1.67,0 3.34,0.63 4.62,1.91zm-15.78 7.39c-0.12,0.11 -0.31,0.11 -0.42,0 -0.12,-0.12 -0.12,-0.31 0,-0.42l0.82 -0.82c0.12,-0.12 0.3,-0.12 0.42,-0.01 0.11,0.12 0.12,0.31 0,0.42l-0.82 0.83zm2.02 3.6c0.12,-0.12 0.31,-0.12 0.42,0 0.12,0.11 0.12,0.3 0,0.42l-1.43 1.42c-0.11,0.12 -0.3,0.12 -0.42,0 -0.11,-0.11 -0.11,-0.3 0,-0.42l1.43 -1.42zm3.12 3.62c-0.12,0.11 -0.3,0.11 -0.42,0 -0.11,-0.12 -0.11,-0.31 0,-0.42l2.79 -2.8c0.12,-0.11 0.31,-0.11 0.42,0 0.12,0.12 0.12,0.31 0,0.42l-2.79 2.8zm6.32 -8.02c0,0.16 -0.13,0.3 -0.3,0.3 -0.16,0 -0.29,-0.14 -0.29,-0.3l0 -1.26 -0.9 0.89c-0.11,0.12 -0.3,0.12 -0.42,0 -0.11,-0.12 -0.11,-0.3 0,-0.42l0.9 -0.89 -1.26 0c-0.17,0 -0.3,-0.13 -0.3,-0.3 0,-0.16 0.13,-0.29 0.3,-0.29l1.26 0 -0.9 -0.89c-0.11,-0.12 -0.11,-0.31 0,-0.42 0.12,-0.12 0.31,-0.12 0.42,0l0.9 0.89 0 -1.26c0,-0.17 0.13,-0.3 0.29,-0.3 0.17,0 0.3,0.13 0.3,0.3l0 1.26 0.89 -0.89c0.11,-0.12 0.3,-0.12 0.42,0 0.11,0.11 0.11,0.3 0,0.42l-0.89 0.89 1.26 0c0.16,0 0.29,0.13 0.29,0.29 0,0.17 -0.13,0.3 -0.29,0.3l-1.26 0 0.89 0.89c0.11,0.12 0.11,0.3 0,0.42 -0.12,0.12 -0.31,0.12 -0.42,0l-0.89 -0.89 0 1.26zm-1.98 -6.12c-0.15,0.06 -0.33,-0.01 -0.39,-0.16 -0.06,-0.15 0.01,-0.33 0.16,-0.39l0.18 -0.07 0.17 -0.06c0.16,-0.05 0.33,0.04 0.38,0.19 0.05,0.16 -0.04,0.33 -0.19,0.38l-0.16 0.05 -0.15 0.06zm0.92 -0.26c-0.17,0.02 -0.32,-0.08 -0.35,-0.24 -0.02,-0.17 0.08,-0.32 0.25,-0.35 0.79,-0.13 1.62,-0.08 2.39,0.17 0.75,0.23 1.46,0.65 2.05,1.24 0.99,0.99 1.49,2.29 1.49,3.58 0,1.3 -0.5,2.6 -1.49,3.58 -0.99,0.99 -2.28,1.49 -3.58,1.49 -1.29,0 -2.59,-0.5 -3.58,-1.49 -0.99,-0.98 -1.48,-2.28 -1.48,-3.58 0,-1.29 0.49,-2.59 1.48,-3.58 0.1,-0.1 0.21,-0.2 0.32,-0.29l0.02 -0.01c0.11,-0.1 0.22,-0.18 0.32,-0.26 0.14,-0.09 0.32,-0.06 0.42,0.07 0.09,0.14 0.06,0.32 -0.08,0.42 -0.1,0.07 -0.19,0.14 -0.28,0.22l-0.02 0.01c-0.09,0.08 -0.19,0.17 -0.28,0.26 -0.87,0.87 -1.31,2.02 -1.31,3.16 0,1.15 0.44,2.29 1.31,3.17 0.87,0.87 2.02,1.3 3.16,1.3 1.15,0 2.29,-0.43 3.16,-1.3 0.88,-0.88 1.31,-2.02 1.31,-3.17 0,-1.14 -0.43,-2.29 -1.31,-3.16 -0.52,-0.52 -1.14,-0.89 -1.8,-1.1 -0.69,-0.22 -1.42,-0.26 -2.12,-0.14zm6.7 4.4c0,-1.52 -0.58,-3.03 -1.74,-4.19 -1.16,-1.16 -2.68,-1.74 -4.2,-1.74 -1.52,0 -3.04,0.58 -4.19,1.74 -1.16,1.16 -1.74,2.67 -1.74,4.19 0,1.52 0.58,3.04 1.74,4.2 1.15,1.16 2.67,1.74 4.19,1.74 1.52,0 3.04,-0.58 4.2,-1.74 1.16,-1.16 1.74,-2.68 1.74,-4.2z"
   id="path9" />
 </g>
</svg>
