<?xml version="1.0" encoding="UTF-8" standalone="no"?>
<svg
   xmlns:dc="http://purl.org/dc/elements/1.1/"
   xmlns:cc="http://creativecommons.org/ns#"
   xmlns:rdf="http://www.w3.org/1999/02/22-rdf-syntax-ns#"
   xmlns:svg="http://www.w3.org/2000/svg"
   xmlns="http://www.w3.org/2000/svg"
   xmlns:sodipodi="http://sodipodi.sourceforge.net/DTD/sodipodi-0.dtd"
   xmlns:inkscape="http://www.inkscape.org/namespaces/inkscape"
   xml:space="preserve"
   width="100px"
   height="100px"
   version="1.0"
   style="shape-rendering:geometricPrecision; text-rendering:geometricPrecision; image-rendering:optimizeQuality; fill-rule:evenodd; clip-rule:evenodd"
   viewBox="0 0 21.76 21.76"
   id="svg12"
   sodipodi:docname="img-empty-masternode.svg"><metadata
   id="metadata16"><rdf:RDF><cc:Work
       rdf:about=""><dc:format>image/svg+xml</dc:format><dc:type
         rdf:resource="http://purl.org/dc/dcmitype/StillImage" /></cc:Work></rdf:RDF></metadata><sodipodi:namedview
   pagecolor="#ffffff"
   bordercolor="#666666"
   borderopacity="1"
   objecttolerance="10"
   gridtolerance="10"
   guidetolerance="10"
   inkscape:pageopacity="0"
   inkscape:pageshadow="2"
   inkscape:window-width="640"
   inkscape:window-height="480"
   id="namedview14"
   inkscape:document-rotation="0" />
 <defs
   id="defs4">
  <style
   type="text/css"
   id="style2">
   <![CDATA[
    .fil1 {fill:none}
    .fil0 {fill:#6172F2;fill-rule:nonzero}
   ]]>
  </style>
 </defs>
 <g
   id="Слой_x0020_1">
  <metadata
   id="CorelCorpID_0Corel-Layer" />
  <path
   class="fil0"
   d="M2.74 1.42l16.28 0c0.31,0 0.59,0.12 0.8,0.33 0.2,0.2 0.33,0.48 0.33,0.79l0 3.11c0,0.31 -0.13,0.59 -0.33,0.8 -0.06,0.05 -0.11,0.09 -0.18,0.14l0 1.8c0.07,0.04 0.12,0.09 0.18,0.14 0.2,0.2 0.33,0.48 0.33,0.79l0 3.12c0,0.31 -0.13,0.59 -0.33,0.79 -0.06,0.05 -0.11,0.1 -0.18,0.14l0 1.8c0.07,0.05 0.12,0.09 0.18,0.15 0.2,0.2 0.33,0.48 0.33,0.79l0 3.11c0,0.31 -0.13,0.59 -0.33,0.8 -0.21,0.2 -0.49,0.33 -0.8,0.33l-16.28 0c-0.31,0 -0.59,-0.13 -0.79,-0.33 -0.21,-0.21 -0.33,-0.49 -0.33,-0.8l0 -3.11c0,-0.31 0.12,-0.59 0.33,-0.79 0.05,-0.06 0.1,-0.1 0.17,-0.15l0 -1.8c-0.07,-0.04 -0.12,-0.09 -0.17,-0.14 -0.21,-0.2 -0.33,-0.48 -0.33,-0.79l0 -3.12c0,-0.31 0.12,-0.59 0.33,-0.79 0.05,-0.05 0.1,-0.1 0.17,-0.14l0 -1.8c-0.07,-0.05 -0.12,-0.09 -0.17,-0.14 -0.21,-0.21 -0.33,-0.49 -0.33,-0.8l0 -3.11c0,-0.31 0.12,-0.59 0.33,-0.79 0.2,-0.21 0.48,-0.33 0.79,-0.33zm4.34 1.44l0 2.47 -0.67 0 0 -2.47 0.67 0zm0 6.79l0 2.46 -0.67 0 0 -2.46 0.67 0zm0 6.78l0 2.47 -0.67 0 0 -2.47 0.67 0zm10.25 1.21c0,-0.35 0.29,-0.64 0.64,-0.64 0.36,0 0.64,0.29 0.64,0.64l0 0.02c0,0.36 -0.28,0.65 -0.64,0.65 -0.35,0 -0.64,-0.29 -0.64,-0.65l0 -0.02zm-1.71 0c0,-0.35 0.29,-0.64 0.64,-0.64 0.36,0 0.65,0.29 0.65,0.64l0 0.02c0,0.36 -0.29,0.65 -0.65,0.65 -0.35,0 -0.64,-0.29 -0.64,-0.65l0 -0.02zm-1.7 0c0,-0.35 0.28,-0.64 0.64,-0.64 0.35,0 0.64,0.29 0.64,0.64l0 0.02c0,0.36 -0.29,0.65 -0.64,0.65 -0.36,0 -0.64,-0.29 -0.64,-0.65l0 -0.02zm-1.71 0c0,-0.35 0.29,-0.64 0.64,-0.64 0.35,0 0.64,0.29 0.64,0.64l0 0.02c0,0.36 -0.29,0.65 -0.64,0.65 -0.35,0 -0.64,-0.29 -0.64,-0.65l0 -0.02zm5.12 -6.78c0,-0.36 0.29,-0.65 0.64,-0.65 0.36,0 0.64,0.29 0.64,0.65l0 0.02c0,0.35 -0.28,0.64 -0.64,0.64 -0.35,0 -0.64,-0.29 -0.64,-0.64l0 -0.02zm-1.71 0c0,-0.36 0.29,-0.65 0.64,-0.65 0.36,0 0.65,0.29 0.65,0.65l0 0.02c0,0.35 -0.29,0.64 -0.65,0.64 -0.35,0 -0.64,-0.29 -0.64,-0.64l0 -0.02zm-1.7 0c0,-0.36 0.28,-0.65 0.64,-0.65 0.35,0 0.64,0.29 0.64,0.65l0 0.02c0,0.35 -0.29,0.64 -0.64,0.64 -0.36,0 -0.64,-0.29 -0.64,-0.64l0 -0.02zm-1.71 0c0,-0.36 0.29,-0.65 0.64,-0.65 0.35,0 0.64,0.29 0.64,0.65l0 0.02c0,0.35 -0.29,0.64 -0.64,0.64 -0.35,0 -0.64,-0.29 -0.64,-0.64l0 -0.02zm5.12 -6.76c0,-0.36 0.29,-0.65 0.64,-0.65 0.36,0 0.64,0.29 0.64,0.65l0 0.02c0,0.35 -0.28,0.64 -0.64,0.64 -0.35,0 -0.64,-0.29 -0.64,-0.64l0 -0.02zm-1.71 0c0,-0.36 0.29,-0.65 0.64,-0.65 0.36,0 0.65,0.29 0.65,0.65l0 0.02c0,0.35 -0.29,0.64 -0.65,0.64 -0.35,0 -0.64,-0.29 -0.64,-0.64l0 -0.02zm-1.7 0c0,-0.36 0.28,-0.65 0.64,-0.65 0.35,0 0.64,0.29 0.64,0.65l0 0.02c0,0.35 -0.29,0.64 -0.64,0.64 -0.36,0 -0.64,-0.29 -0.64,-0.64l0 -0.02zm-1.71 0c0,-0.36 0.29,-0.65 0.64,-0.65 0.35,0 0.64,0.29 0.64,0.65l0 0.02c0,0.35 -0.29,0.64 -0.64,0.64 -0.35,0 -0.64,-0.29 -0.64,-0.64l0 -0.02zm-6.71 -1.24l0 2.47 -0.67 0 0 -2.47 0.67 0zm-1.59 0l0 2.47 -0.67 0 0 -2.47 0.67 0zm1.59 6.79l0 2.46 -0.67 0 0 -2.46 0.67 0zm-1.59 0l0 2.46 -0.67 0 0 -2.46 0.67 0zm1.59 6.78l0 2.47 -0.67 0 0 -2.47 0.67 0zm-1.59 0l0 2.47 -0.67 0 0 -2.47 0.67 0zm15.17 -10.33c0.1,-0.01 0.19,-0.06 0.26,-0.13 0.08,-0.08 0.13,-0.19 0.13,-0.32l0 -3.11c0,-0.13 -0.05,-0.24 -0.13,-0.32 -0.08,-0.08 -0.2,-0.14 -0.32,-0.14l-16.28 0c-0.12,0 -0.24,0.05 -0.32,0.14 -0.08,0.08 -0.13,0.19 -0.13,0.32l0 3.11c0,0.13 0.05,0.24 0.13,0.32 0.07,0.07 0.16,0.12 0.26,0.13l16.4 0zm0 2.77l-16.4 0c-0.1,0.02 -0.19,0.06 -0.26,0.13 -0.08,0.08 -0.13,0.2 -0.13,0.32l0 3.12c0,0.12 0.05,0.24 0.13,0.32 0.07,0.07 0.16,0.11 0.26,0.13l16.4 0c0.1,-0.02 0.19,-0.06 0.26,-0.13 0.08,-0.08 0.13,-0.2 0.13,-0.32l0 -3.12c0,-0.12 -0.05,-0.24 -0.13,-0.32 -0.07,-0.07 -0.16,-0.11 -0.26,-0.13zm-0.11 -2.09l-16.18 0 0 1.42 16.18 0 0 -1.42zm0.11 8.88l-16.4 0c-0.1,0.01 -0.19,0.06 -0.26,0.13 -0.08,0.08 -0.13,0.19 -0.13,0.32l0 3.11c0,0.13 0.05,0.24 0.13,0.32 0.08,0.09 0.2,0.14 0.32,0.14l16.28 0c0.12,0 0.24,-0.05 0.32,-0.14 0.08,-0.08 0.13,-0.19 0.13,-0.32l0 -3.11c0,-0.13 -0.05,-0.24 -0.13,-0.32 -0.07,-0.07 -0.16,-0.12 -0.26,-0.13zm-0.11 -2.1l-16.18 0 0 1.42 16.18 0 0 -1.42z"
   id="path7" />
  <rect
   class="fil1"
   width="21.76"
   height="21.76"
   id="rect9" />
 </g>
</svg>
