<?xml version="1.0" encoding="UTF-8" standalone="no"?>
<svg
   xmlns:dc="http://purl.org/dc/elements/1.1/"
   xmlns:cc="http://creativecommons.org/ns#"
   xmlns:rdf="http://www.w3.org/1999/02/22-rdf-syntax-ns#"
   xmlns:svg="http://www.w3.org/2000/svg"
   xmlns="http://www.w3.org/2000/svg"
   xmlns:sodipodi="http://sodipodi.sourceforge.net/DTD/sodipodi-0.dtd"
   xmlns:inkscape="http://www.inkscape.org/namespaces/inkscape"
   xml:space="preserve"
   width="100px"
   height="115px"
   version="1.0"
   style="shape-rendering:geometricPrecision; text-rendering:geometricPrecision; image-rendering:optimizeQuality; fill-rule:evenodd; clip-rule:evenodd"
   viewBox="0 0 26.73 30.85"
   id="svg10"
   sodipodi:docname="img-empty-dark-staking-on.svg"><metadata
   id="metadata14"><rdf:RDF><cc:Work
       rdf:about=""><dc:format>image/svg+xml</dc:format><dc:type
         rdf:resource="http://purl.org/dc/dcmitype/StillImage" /></cc:Work></rdf:RDF></metadata><sodipodi:namedview
   pagecolor="#ffffff"
   bordercolor="#666666"
   borderopacity="1"
   objecttolerance="10"
   gridtolerance="10"
   guidetolerance="10"
   inkscape:pageopacity="0"
   inkscape:pageshadow="2"
   inkscape:window-width="640"
   inkscape:window-height="480"
   id="namedview12"
   inkscape:document-rotation="0" />
 <defs
   id="defs4">
  <style
   type="text/css"
   id="style2">
   <![CDATA[
    .fil0 {fill:#6172F2;fill-rule:nonzero}
   ]]>
  </style>
 </defs>
 <g
   id="Слой_x0020_1">
  <metadata
   id="CorelCorpID_0Corel-Layer" />
  <path
   class="fil0"
   d="M15.42 25.82l-13.11 0c-0.27,0 -0.52,-0.12 -0.7,-0.29 -0.17,-0.18 -0.29,-0.43 -0.29,-0.7l0 -12.78 -0.39 0c-0.26,0 -0.49,-0.1 -0.66,-0.27l0 0c-0.17,-0.17 -0.27,-0.4 -0.27,-0.66l0 -4.29c0,-0.25 0.1,-0.49 0.27,-0.65l0 -0.01c0.17,-0.16 0.4,-0.27 0.66,-0.27l4.96 0 -0.01 -0.01 -0.01 0c-0.62,-0.63 -1.01,-1.49 -1.01,-2.44 0,-0.95 0.39,-1.81 1.01,-2.43l0 -0.01c0.63,-0.62 1.49,-1.01 2.44,-1.01l0.18 0c0.95,0 1.81,0.39 2.44,1.01 0.19,0.2 0.37,0.42 0.51,0.66 0.15,-0.24 0.32,-0.46 0.51,-0.65l0.01 -0.01c0.62,-0.62 1.48,-1.01 2.43,-1.01l0.18 0c0.95,0 1.81,0.39 2.43,1.01l0.01 0.01c0.62,0.62 1.01,1.48 1.01,2.43 0,0.95 -0.39,1.81 -1.01,2.44l-0.01 0 -0.01 0.01 4.97 0c0.25,0 0.48,0.11 0.65,0.27 0.17,0.17 0.27,0.4 0.27,0.66l0 4.29c0,0.26 -0.1,0.49 -0.27,0.66 -0.17,0.17 -0.4,0.27 -0.65,0.27l-0.4 0 0 7.48c1.36,0.12 2.59,0.73 3.51,1.64 1.02,1.03 1.66,2.45 1.66,4.01 0,1.57 -0.64,2.99 -1.66,4.01 -1.03,1.03 -2.45,1.66 -4.01,1.66 -1.57,0 -2.99,-0.63 -4.01,-1.66 -0.89,-0.88 -1.48,-2.06 -1.63,-3.37zm7.22 -2.94c0.11,-0.25 0.41,-0.37 0.66,-0.25 0.25,0.11 0.36,0.4 0.25,0.65l-1.99 4.49 0 0 -0.01 0.01 0 0 -0.01 0.02 0 0.01 0 0 -0.01 0.01 0 0 -0.01 0.01 0 0c-0.04,0.07 -0.11,0.13 -0.18,0.17l0 0 0 0 -0.01 0.01 -0.01 0 0 0 -0.01 0.01 0 0 -0.01 0 0 0 -0.01 0.01 -0.01 0 -0.01 0 0 0 -0.01 0.01 0 0 -0.01 0 0 0 -0.01 0 0 0 -0.01 0.01 0 0 -0.01 0 0 0 -0.02 0 0 0 -0.01 0 0 0 -0.01 0.01 0 0c-0.09,0.01 -0.19,0 -0.28,-0.04 -0.01,-0.01 -0.03,-0.02 -0.04,-0.02l0 0 -0.01 -0.01 0 0c-0.06,-0.03 -0.1,-0.08 -0.14,-0.13l-2.03 -2.53c-0.17,-0.22 -0.14,-0.53 0.08,-0.7 0.21,-0.17 0.52,-0.14 0.7,0.08l1.52 1.91 1.66 -3.74zm-2.08 -3.35l0 -7.48 -6.55 0 -5.14 0 -6.55 0 0 12.77 13.08 0c0.09,-1.42 0.7,-2.7 1.65,-3.65 0.91,-0.91 2.14,-1.52 3.51,-1.64zm3.8 2.35c-0.84,-0.85 -2.01,-1.37 -3.3,-1.37 -1.29,0 -2.46,0.52 -3.31,1.37 -0.84,0.84 -1.37,2.01 -1.37,3.3 0,1.29 0.53,2.46 1.37,3.31 0.85,0.84 2.02,1.37 3.31,1.37 1.29,0 2.46,-0.53 3.3,-1.37 0.85,-0.85 1.37,-2.02 1.37,-3.31 0,-1.29 -0.52,-2.46 -1.37,-3.3zm-10.06 -1.53c0.26,0.26 0.26,0.69 0,0.95 -0.26,0.26 -0.68,0.26 -0.94,0l-1.25 -1.26 0 1.78c0,0.36 -0.3,0.66 -0.67,0.66 -0.37,0 -0.66,-0.3 -0.66,-0.66l0 -1.78 -1.26 1.26c-0.26,0.26 -0.68,0.26 -0.94,0 -0.26,-0.26 -0.26,-0.69 0,-0.95l1.25 -1.25 -1.77 0c-0.37,0 -0.67,-0.3 -0.67,-0.67 0,-0.36 0.3,-0.66 0.67,-0.66l1.77 0 -1.25 -1.26c-0.26,-0.26 -0.26,-0.68 0,-0.94 0.26,-0.26 0.68,-0.26 0.94,0l1.26 1.26 0 -1.78c0,-0.37 0.29,-0.66 0.66,-0.66 0.37,0 0.67,0.29 0.67,0.66l0 1.78 1.25 -1.26c0.26,-0.26 0.68,-0.26 0.94,0 0.26,0.26 0.26,0.68 0,0.94l-1.25 1.26 1.77 0c0.37,0 0.67,0.3 0.67,0.66 0,0.37 -0.3,0.67 -0.67,0.67l-1.77 0 1.25 1.25zm-5.93 -9.3l0 -4.15 -0.06 0 -7.31 0 0 4.15 1.31 0 6.06 0zm6.14 -4.15l0 4.15 6.06 0 1.31 0 0 -4.15 -7.31 0 -0.06 0zm-5.14 0l0 4.15 4.15 0 0 -4.15 -2.08 0 -2.07 0zm2.57 -3.45l0 2.45 2.07 0 0.56 0c0.67,0 1.29,-0.27 1.73,-0.72 0.45,-0.44 0.72,-1.05 0.72,-1.73 0,-0.67 -0.27,-1.29 -0.72,-1.73 -0.44,-0.45 -1.06,-0.72 -1.73,-0.72l-0.18 0c-0.67,0 -1.29,0.27 -1.73,0.72 -0.45,0.44 -0.72,1.06 -0.72,1.73zm-3.63 2.45l0.56 0 2.07 0 0 -2.45c0,-0.67 -0.27,-1.29 -0.72,-1.73 -0.44,-0.45 -1.06,-0.72 -1.73,-0.72l-0.18 0c-0.67,0 -1.29,0.27 -1.73,0.72 -0.45,0.44 -0.72,1.06 -0.72,1.73 0,0.68 0.27,1.29 0.72,1.73 0.44,0.45 1.06,0.72 1.73,0.72z"
   id="path7" />
 </g>
</svg>
