<?xml version="1.0" encoding="UTF-8" standalone="no"?>
<svg
   xmlns:dc="http://purl.org/dc/elements/1.1/"
   xmlns:cc="http://creativecommons.org/ns#"
   xmlns:rdf="http://www.w3.org/1999/02/22-rdf-syntax-ns#"
   xmlns:svg="http://www.w3.org/2000/svg"
   xmlns="http://www.w3.org/2000/svg"
   xmlns:sodipodi="http://sodipodi.sourceforge.net/DTD/sodipodi-0.dtd"
   xmlns:inkscape="http://www.inkscape.org/namespaces/inkscape"
   xml:space="preserve"
   width="331px"
   height="100px"
   version="1.0"
   style="shape-rendering:geometricPrecision; text-rendering:geometricPrecision; image-rendering:optimizeQuality; fill-rule:evenodd; clip-rule:evenodd"
   viewBox="0 0 185.89 56.13"
   id="svg25"
   sodipodi:docname="img-logo-qrax.svg"><metadata
   id="metadata29"><rdf:RDF><cc:Work
       rdf:about=""><dc:format>image/svg+xml</dc:format><dc:type
         rdf:resource="http://purl.org/dc/dcmitype/StillImage" /></cc:Work></rdf:RDF></metadata><sodipodi:namedview
   pagecolor="#ffffff"
   bordercolor="#666666"
   borderopacity="1"
   objecttolerance="10"
   gridtolerance="10"
   guidetolerance="10"
   inkscape:pageopacity="0"
   inkscape:pageshadow="2"
   inkscape:window-width="640"
   inkscape:window-height="480"
   id="namedview27"
   inkscape:document-rotation="0" />
 <defs
   id="defs4">
  <style
   type="text/css"
   id="style2">
   <![CDATA[
    .fil0 {fill:none}
    .fil2 {fill:#1023B6;fill-rule:nonzero}
    .fil1 {fill:#FF5E39;fill-rule:nonzero}
   ]]>
  </style>
 </defs>
 <g
   id="Слой_x0020_1">
  <metadata
   id="CorelCorpID_0Corel-Layer" />
  <rect
   class="fil0"
   x="6.22"
   width="173.44"
   height="56.13"
   id="rect7" />
  <rect
   class="fil0"
   width="185.89"
   height="56.13"
   id="rect9" />
  <g
   id="_1814757350128">
   <path
   class="fil1"
   d="M35.34 33.44c0.5,0.5 0.5,1.3 0,1.8 -0.5,0.49 -1.3,0.49 -1.8,0l-4.1 -4.11 0 5.81c0,0.7 -0.57,1.27 -1.27,1.27 -0.71,0 -1.27,-0.57 -1.27,-1.27l0 -5.81 -4.11 4.11c-0.49,0.49 -1.3,0.49 -1.8,0 -0.49,-0.5 -0.49,-1.3 0,-1.8l4.11 -4.1 -5.81 0c-0.7,0 -1.27,-0.57 -1.27,-1.28 0,-0.7 0.57,-1.27 1.27,-1.27l5.81 0 -4.11 -4.1c-0.49,-0.5 -0.49,-1.3 0,-1.8 0.5,-0.49 1.31,-0.49 1.8,0l4.11 4.11 0 -5.81c0,-0.7 0.56,-1.27 1.27,-1.27 0.7,0 1.27,0.57 1.27,1.27l0 5.81 4.1 -4.11c0.5,-0.49 1.3,-0.49 1.8,0 0.5,0.5 0.5,1.3 0,1.8l-4.1 4.1 5.8 0c0.7,0 1.27,0.57 1.27,1.27 0,0.71 -0.57,1.28 -1.27,1.28l-5.8 0 4.1 4.1z"
   id="path11" />
   <path
   class="fil2"
   d="M73.21 13.79l-11.62 0 0 15.35 12.61 0c10.38,-0.9 11.09,-15.35 -0.99,-15.35zm-14.95 -6.65l14.83 0c16.25,0 21.32,19.15 7.64,27.05l0 0c-0.08,0.04 -0.16,0.09 -0.23,0.13 2.99,3.35 6,6.58 8.85,10.06 3.01,3.66 -1.9,7.4 -5.27,3.89 0,0 -11.29,-12.49 -11.29,-12.49l-11.2 0 0 10.38c0,4.81 -6.64,4.73 -6.65,0l0 -35.69c0,-1.74 1.27,-3.33 3.32,-3.33z"
   id="path13" />
   <path
   class="fil2"
   d="M24.55 49.46c-5.18,-0.87 -9.73,-3.57 -12.96,-7.4 -3.2,-3.79 -5.13,-8.67 -5.13,-14 0,-5.99 2.43,-11.41 6.36,-15.34 3.93,-3.93 9.35,-6.36 15.35,-6.36 5.99,0 11.42,2.43 15.34,6.36 3.93,3.93 6.36,9.35 6.36,15.34 0,6 -2.43,11.42 -6.36,15.35 -3.92,3.93 -9.35,6.36 -15.34,6.36 -0.6,0 -1.21,-0.03 -1.82,-0.08 -0.57,-0.05 -1.18,-0.12 -1.8,-0.23zm-7.91 -11.68c2.25,2.67 5.41,4.55 8.99,5.15 0.38,0.07 0.8,0.12 1.26,0.16 0.41,0.03 0.83,0.05 1.28,0.05 4.16,0 7.93,-1.69 10.66,-4.42 2.72,-2.72 4.41,-6.49 4.41,-10.66 0,-4.16 -1.69,-7.93 -4.41,-10.65 -2.73,-2.73 -6.5,-4.42 -10.66,-4.42 -4.17,0 -7.93,1.69 -10.66,4.42 -2.73,2.72 -4.42,6.49 -4.42,10.65 0,3.72 1.34,7.11 3.55,9.72z"
   id="path15" />
   <path
   class="fil2"
   d="M36.09 42.03c-1.48,0 -2.69,-1.2 -2.69,-2.69 0,-1.24 0.85,-2.29 2,-2.6 4.13,-1.1 7.14,1.77 9.02,5.09 0.71,1.25 1.43,2.52 3.82,2.52 4.11,-0.03 3.97,5.38 0,5.38 -5.54,0 -7.03,-2.63 -8.51,-5.25 -0.7,-1.23 -1.39,-2.45 -3.64,-2.45z"
   id="path17" />
   <path
   class="fil2"
   d="M128.51 41.64l0.01 0c-0.59,-1.13 -1.06,-1.97 -1.4,-2.54l-11.25 0 -11.25 0c-0.34,0.57 -0.81,1.41 -1.4,2.54l0.01 0 -3.19 6.14c-2.13,4.11 -7.77,1.1 -5.68,-2.95l2.65 -5.09 -0.01 -0.01c0.07,-0.13 0.15,-0.27 0.22,-0.41l0.33 -0.63 0 0.01c4.94,-9.7 8.74,-17.14 11.43,-22.34 2.66,-5.14 4.12,-7.9 4.4,-8.27 0.69,-1.04 1.59,-1.43 2.49,-1.38 0.91,-0.05 1.8,0.34 2.49,1.38 0.28,0.37 1.75,3.13 4.4,8.27 2.69,5.2 6.5,12.64 11.43,22.34l0 -0.01 0.33 0.63c0.08,0.14 0.15,0.28 0.22,0.41l0 0.01 2.64 5.09c2.1,4.05 -3.54,7.06 -5.68,2.95l-3.19 -6.14zm-12.64 -8.94l8 0 -8 -15.79 -7.99 15.79 7.99 0z"
   id="path19" />
   <path
   class="fil2"
   d="M147.21 48.61c-1.2,1.37 -3.29,1.51 -4.66,0.31 -1.37,-1.2 -1.51,-3.29 -0.31,-4.66l13.73 -15.72 -13.86 -15.85c-1.2,-1.38 -1.06,-3.46 0.31,-4.67 1.38,-1.2 3.46,-1.06 4.67,0.32l13.27 15.18 13.27 -15.18c1.2,-1.38 3.29,-1.52 4.66,-0.32 1.38,1.21 1.52,3.29 0.32,4.67l-13.86 15.85 13.73 15.72c1.2,1.37 1.06,3.46 -0.31,4.66 -1.38,1.2 -3.46,1.06 -4.66,-0.31l-13.15 -15.05 -13.15 15.05z"
   id="path21" />
  </g>
 </g>
</svg>
