<?xml version="1.0" encoding="UTF-8" standalone="no"?>
<svg
   xmlns:dc="http://purl.org/dc/elements/1.1/"
   xmlns:cc="http://creativecommons.org/ns#"
   xmlns:rdf="http://www.w3.org/1999/02/22-rdf-syntax-ns#"
   xmlns:svg="http://www.w3.org/2000/svg"
   xmlns="http://www.w3.org/2000/svg"
   xmlns:sodipodi="http://sodipodi.sourceforge.net/DTD/sodipodi-0.dtd"
   xmlns:inkscape="http://www.inkscape.org/namespaces/inkscape"
   xml:space="preserve"
   width="100px"
   height="100px"
   version="1.0"
   style="shape-rendering:geometricPrecision; text-rendering:geometricPrecision; image-rendering:optimizeQuality; fill-rule:evenodd; clip-rule:evenodd"
   viewBox="0 0 21.76 21.76"
   id="svg12"
   sodipodi:docname="img-empty-contacts.svg"><metadata
   id="metadata16"><rdf:RDF><cc:Work
       rdf:about=""><dc:format>image/svg+xml</dc:format><dc:type
         rdf:resource="http://purl.org/dc/dcmitype/StillImage" /></cc:Work></rdf:RDF></metadata><sodipodi:namedview
   pagecolor="#ffffff"
   bordercolor="#666666"
   borderopacity="1"
   objecttolerance="10"
   gridtolerance="10"
   guidetolerance="10"
   inkscape:pageopacity="0"
   inkscape:pageshadow="2"
   inkscape:window-width="640"
   inkscape:window-height="480"
   id="namedview14"
   inkscape:document-rotation="0" />
 <defs
   id="defs4">
  <style
   type="text/css"
   id="style2">
   <![CDATA[
    .fil0 {fill:none}
    .fil1 {fill:#6172F2;fill-rule:nonzero}
   ]]>
  </style>
 </defs>
 <g
   id="Слой_x0020_1">
  <metadata
   id="CorelCorpID_0Corel-Layer" />
  <rect
   class="fil0"
   width="21.76"
   height="21.76"
   id="rect7" />
  <path
   class="fil1"
   d="M10.87 1.29c2.62,0 4.99,1.06 6.7,2.78 1.71,1.71 2.77,4.08 2.77,6.69 0,2.62 -1.06,4.98 -2.77,6.7 -1.71,1.71 -4.08,2.77 -6.7,2.77 -2.61,0 -4.98,-1.06 -6.69,-2.77 -1.72,-1.72 -2.78,-4.08 -2.78,-6.7 0,-2.61 1.06,-4.98 2.78,-6.69 1.71,-1.72 4.08,-2.78 6.69,-2.78zm-4.74 7.84c0.54,0 1.03,0.22 1.39,0.57 0.35,0.36 0.57,0.85 0.57,1.39 0,0.54 -0.22,1.03 -0.57,1.39l-0.02 0.02c-0.36,0.34 -0.84,0.55 -1.37,0.55 -0.54,0 -1.03,-0.22 -1.39,-0.57l0 -0.01c-0.35,-0.35 -0.57,-0.84 -0.57,-1.38 0,-0.54 0.22,-1.03 0.57,-1.39 0.36,-0.35 0.85,-0.57 1.39,-0.57zm0.91 1.05c-0.23,-0.23 -0.55,-0.38 -0.91,-0.38 -0.35,0 -0.68,0.15 -0.91,0.38 -0.23,0.23 -0.38,0.55 -0.38,0.91 0,0.36 0.15,0.68 0.38,0.91 0.23,0.23 0.55,0.38 0.91,0.38 0.35,0 0.66,-0.14 0.89,-0.37l0.02 -0.01c0.23,-0.23 0.38,-0.56 0.38,-0.91 0,-0.36 -0.15,-0.68 -0.38,-0.91zm0.09 6.05c0,0.19 -0.15,0.34 -0.34,0.34 -0.19,0 -0.34,-0.15 -0.34,-0.34 0,-1.22 0.5,-2.32 1.3,-3.13l0.01 0c0.8,-0.8 1.9,-1.29 3.12,-1.29 1.22,0 2.33,0.49 3.13,1.29l0.01 0.01c0.79,0.8 1.29,1.9 1.29,3.12 0,0.19 -0.15,0.34 -0.34,0.34 -0.19,0 -0.34,-0.15 -0.34,-0.34 0,-1.03 -0.42,-1.97 -1.1,-2.65 -0.67,-0.68 -1.61,-1.1 -2.65,-1.1 -1.04,0 -1.97,0.42 -2.65,1.1 -0.68,0.68 -1.1,1.62 -1.1,2.65zm3.75 -11.28c0.82,0 1.56,0.34 2.09,0.87l0.01 0.01c0.53,0.53 0.86,1.27 0.86,2.09 0,0.81 -0.33,1.56 -0.86,2.09 -0.54,0.54 -1.28,0.87 -2.1,0.87 -0.82,0 -1.56,-0.33 -2.09,-0.87l-0.01 0c-0.53,-0.54 -0.86,-1.28 -0.86,-2.09 0,-0.82 0.33,-1.56 0.86,-2.1l0.01 0c0.54,-0.54 1.28,-0.87 2.09,-0.87zm1.62 1.35c-0.42,-0.41 -0.99,-0.67 -1.62,-0.67 -0.63,0 -1.2,0.26 -1.62,0.67 -0.41,0.41 -0.67,0.98 -0.67,1.62 0,0.63 0.26,1.2 0.67,1.61 0.42,0.42 0.99,0.67 1.62,0.67 0.63,0 1.2,-0.25 1.62,-0.67 0.41,-0.41 0.67,-0.98 0.67,-1.61 0,-0.64 -0.26,-1.21 -0.67,-1.62zm-9.11 9.08c0.14,-0.45 0.39,-0.85 0.71,-1.17 0.52,-0.52 1.24,-0.84 2.03,-0.84 0.19,0 0.34,0.15 0.34,0.33 0,0.19 -0.15,0.34 -0.34,0.34 -0.6,0 -1.15,0.25 -1.55,0.64 -0.38,0.39 -0.62,0.91 -0.64,1.49 0.22,0.28 0.46,0.56 0.72,0.81 1.59,1.59 3.79,2.58 6.21,2.58 2.43,0 4.63,-0.99 6.22,-2.58 0.26,-0.25 0.49,-0.53 0.72,-0.81 -0.02,-0.58 -0.26,-1.1 -0.64,-1.49 -0.4,-0.39 -0.95,-0.64 -1.55,-0.64 -0.19,0 -0.34,-0.15 -0.34,-0.34 0,-0.18 0.15,-0.33 0.34,-0.33 0.79,0 1.5,0.32 2.02,0.84 0.33,0.32 0.58,0.72 0.72,1.17 0.83,-1.34 1.31,-2.92 1.31,-4.62 0,-2.43 -0.99,-4.62 -2.58,-6.21 -1.59,-1.6 -3.79,-2.58 -6.22,-2.58 -2.42,0 -4.62,0.98 -6.21,2.58 -1.59,1.59 -2.58,3.78 -2.58,6.21 0,1.7 0.48,3.28 1.31,4.62zm12.23 -6.25c0.54,0 1.03,0.22 1.38,0.57 0.36,0.36 0.58,0.85 0.58,1.39 0,0.54 -0.22,1.03 -0.58,1.39l-0.02 0.02c-0.35,0.34 -0.83,0.55 -1.36,0.55 -0.54,0 -1.03,-0.22 -1.39,-0.57l-0.01 -0.01c-0.35,-0.35 -0.57,-0.84 -0.57,-1.38 0,-0.54 0.22,-1.03 0.58,-1.39 0.35,-0.35 0.84,-0.57 1.39,-0.57zm0.91 1.05c-0.24,-0.23 -0.56,-0.38 -0.91,-0.38 -0.36,0 -0.68,0.15 -0.91,0.38 -0.24,0.23 -0.38,0.55 -0.38,0.91 0,0.36 0.14,0.68 0.38,0.91 0.23,0.23 0.55,0.38 0.91,0.38 0.34,0 0.66,-0.14 0.89,-0.37l0.02 -0.01c0.23,-0.23 0.37,-0.56 0.37,-0.91 0,-0.36 -0.14,-0.68 -0.37,-0.91z"
   id="path9" />
 </g>
</svg>
